<?xml version="1.0" encoding="utf-8"?><svg width="21" height="31" xmlns="http://www.w3.org/2000/svg" viewBox="0 0 21 31"><path d="M2.3.79h16.11c.92 0 1.66.76 1.63 1.68-.18 5.3-.95 21.63-3.43 27.43H4.42S.63 23.98.68 2.41C.67 1.51 1.4.79 2.3.79z" fill="#fff"/><path d="M16.6 30.41H4.41c-.18 0-.34-.09-.43-.24C3.82 29.92.11 23.87.16 2.4c0-1.18.97-2.14 2.15-2.14h16.11c.59 0 1.14.23 1.55.66.41.42.62.97.6 1.56-.22 6.39-1.01 21.87-3.47 27.62-.11.19-.29.31-.5.31zM4.72 29.38h11.54c2.36-6.01 3.09-22.08 3.26-26.93.01-.3-.1-.59-.31-.81-.21-.22-.5-.34-.8-.34H2.3c-.61 0-1.11.5-1.11 1.1-.05 18.8 2.87 25.68 3.53 26.98z"/></svg>