<?xml version="1.0" encoding="utf-8"?><svg width="24" height="35" xmlns="http://www.w3.org/2000/svg" viewBox="0 0 24 35"><path d="M3.64.91h17c1.44 0 2.62 1.14 2.67 2.58.18 4.86.11 16.09-3.24 29.35l-14.33.94S1.06 28.28.96 3.61c0-1.49 1.2-2.7 2.68-2.7z" fill="#fff"/><path d="M5.75 34.36a.55.55 0 01-.44-.21C5.11 33.92.49 28.2.39 3.6c0-.88.34-1.7.95-2.32C1.96.66 2.78.32 3.65.32h17c1.76 0 3.19 1.38 3.26 3.14.2 5.41.04 16.44-3.26 29.52-.06.25-.27.42-.53.44l-14.33.94h-.04zM3.64 1.49c-.56 0-1.08.22-1.48.62-.4.4-.62.93-.62 1.5.09 21.43 3.69 28.31 4.49 29.57l13.58-.89c3.17-12.76 3.32-23.49 3.12-28.78a2.088 2.088 0 00-2.09-2.02h-17z"/></svg>