<?xml version="1.0" encoding="utf-8"?><svg width="30" height="35" xmlns="http://www.w3.org/2000/svg" viewBox="0 0 30 35"><path d="M6.36 33.85h16.17s7.29-9.41 5.7-18.82C26.98 7.64 19.76 3.02 16.72 1.39a3.55 3.55 0 00-2.87-.22C10.92 2.18 4.49 5.14 1.4 12.24a8.736 8.736 0 00-.71 3.31c-.05 3.37.46 11.18 5.67 18.3z" fill="#fff"/><path d="M22.54 34.4H6.37c-.18 0-.34-.08-.44-.23C.55 26.82.1 18.69.16 15.53c.02-1.23.28-2.41.75-3.52C4.12 4.62 10.91 1.59 13.68.64c1.1-.38 2.3-.29 3.31.26 3.12 1.68 10.5 6.41 11.79 14.04 1.61 9.54-5.5 18.86-5.81 19.25-.1.13-.26.21-.43.21zM6.65 33.3h15.61c1.04-1.44 6.84-9.89 5.43-18.18-1.21-7.15-8.26-11.65-11.23-13.25-.74-.4-1.62-.46-2.43-.19-2.63.91-9.09 3.78-12.12 10.77-.42.97-.64 2.01-.66 3.1-.05 3.02.37 10.73 5.4 17.75z"/></svg>