<?xml version="1.0" encoding="utf-8"?><svg width="39" height="29" xmlns="http://www.w3.org/2000/svg" viewBox="0 0 39 29"><path d="M6.08 27.85h26.16s6.36-13.64 5.87-17.09c-.48-3.35-2.16-9.33-8.78-9.51-4.44-.12-6.3 1.07-7.66 3.22-.71 1.12-2.38 1.15-3.09.02-.5-.8-1.22-1.66-2.23-2.51-1.15-.97-2.69-1.39-4.2-1.41C10.04.55 6.91 1 4.67 3.45c-.49.53-2.42 2.16-3.3 4.9C.93 9.71.85 11 .83 11.67c0 0-.03 1.09.15 2.28.31 2.05 2.13 7.23 5.1 13.9z" fill="#fff"/><path d="M32.24 28.38H6.08c-.21 0-.4-.12-.48-.31C2.83 21.85.81 16.35.46 14.04.27 12.82.3 11.72.3 11.67c.02-.84.14-2.13.57-3.47.8-2.49 2.39-4.07 3.16-4.84l.26-.26C6.65.53 9.87-.01 12.17.05c1.77.02 3.38.56 4.53 1.53.96.81 1.74 1.69 2.34 2.63.24.37.63.58 1.08.58.46 0 .87-.23 1.11-.61C22.6 2.01 24.5.59 29.35.71c5.09.14 8.39 3.68 9.29 9.97.51 3.57-5.65 16.83-5.91 17.39a.54.54 0 01-.49.31zM6.43 27.32H31.9c1.84-3.98 6.06-13.85 5.68-16.48-.58-4.05-2.49-8.9-8.27-9.06-4.34-.11-5.98 1.05-7.19 2.97-.43.69-1.19 1.1-2.01 1.1-.81 0-1.55-.4-1.98-1.08-.54-.85-1.25-1.65-2.12-2.39-.96-.81-2.33-1.26-3.86-1.28-2.11-.04-5 .43-7.09 2.71-.07.08-.17.18-.29.3-.71.7-2.18 2.17-2.9 4.41-.39 1.22-.5 2.39-.52 3.17 0 .01-.02 1.06.15 2.18.28 1.8 1.91 6.64 4.93 13.45z"/></svg>