<?xml version="1.0" encoding="utf-8"?><svg width="18" height="19" fill="none" xmlns="http://www.w3.org/2000/svg" viewBox="0 0 18 19"><g fill="#E30613"><path d="M9 12.972a.563.563 0 01-.563-.562V.785a.563.563 0 011.126 0V12.41c0 .31-.253.562-.563.562z"/><path d="M9 12.972a.558.558 0 01-.398-.165l-3-3a.563.563 0 01.796-.796l2.603 2.603 2.602-2.603a.563.563 0 01.796.796l-3 3a.564.564 0 01-.399.165z"/><path d="M15.937 18.222H2.063A2.064 2.064 0 010 16.16v-3.374a.563.563 0 011.125 0v3.375c0 .516.42.937.938.937h13.874c.517 0 .938-.42.938-.938v-3.374a.563.563 0 011.125 0v3.375a2.064 2.064 0 01-2.063 2.062z"/></g></svg>