<?xml version="1.0" encoding="utf-8"?><svg width="40" height="40" fill="none" xmlns="http://www.w3.org/2000/svg" viewBox="0 0 40 40"><path d="M25.211 9.925H14.69A4.78 4.78 0 009.914 14.7v10.618a4.78 4.78 0 004.775 4.776h10.522a4.78 4.78 0 004.776-4.776V14.7a4.78 4.78 0 00-4.776-4.775zm-5.24 16.442c-3.57 0-6.473-2.873-6.473-6.404 0-3.53 2.904-6.403 6.472-6.403 3.57 0 6.473 2.873 6.473 6.403 0 3.531-2.904 6.404-6.473 6.404zm6.587-11.546a1.523 1.523 0 110-3.046 1.523 1.523 0 010 3.046z" fill="#7C7C7D"/><path d="M20 0C8.954 0 0 8.954 0 20s8.954 20 20 20 20-8.954 20-20S31.046 0 20 0zm12.349 25.318c0 3.936-3.202 7.138-7.138 7.138H14.69c-3.935 0-7.137-3.202-7.137-7.138V14.7c0-3.936 3.202-7.138 7.137-7.138h10.522c3.936 0 7.138 3.202 7.138 7.138v10.618z" fill="#7C7C7D"/><path d="M19.97 15.918c-2.269 0-4.115 1.815-4.115 4.046 0 2.23 1.846 4.046 4.115 4.046 2.27 0 4.115-1.815 4.115-4.046 0-2.231-1.845-4.046-4.115-4.046z" fill="#7C7C7D"/></svg>