<?xml version="1.0" encoding="utf-8"?><svg width="28" height="36" xmlns="http://www.w3.org/2000/svg" viewBox="0 0 28 36"><path d="M2.28 14.26s.8-4.51 5.04-9.28S17.39-.23 21.37 3.3c3.98 3.53 5.3 15.81 5.3 15.81v9.52c0 3.47-2.81 6.29-6.29 6.29H7.14a6.29 6.29 0 01-6.29-6.27c-.02-3.72.25-8.8 1.43-14.39z" fill="#fff"/><path d="M20.38 35.47H7.14c-3.75 0-6.82-3.06-6.84-6.82-.03-4.93.46-9.81 1.44-14.5.05-.3.93-4.77 5.17-9.54C11.2-.21 17.44-.94 21.74 2.88c4.09 3.63 5.43 15.65 5.48 16.16v9.58c0 3.78-3.07 6.85-6.84 6.85zM15.4 1.52c-2.67 0-5.42 1.3-7.67 3.83-4.07 4.59-4.9 8.97-4.91 9.01v.02c-.95 4.55-1.44 9.48-1.41 14.27.02 3.15 2.59 5.72 5.74 5.72h13.24c3.16 0 5.73-2.57 5.73-5.73v-9.52c-.01-.06-1.35-12.04-5.12-15.4-1.66-1.48-3.61-2.2-5.6-2.2z"/></svg>