<?xml version="1.0" encoding="utf-8"?><svg width="31" height="38" xmlns="http://www.w3.org/2000/svg" viewBox="0 0 31 38"><path d="M6.48.74h18.29l4.77 15.38c.39 1.63.75 4.19 0 7.07-1.01 3.89-3.5 6.32-6.54 9.28-1.15 1.12-2.7 2.5-4.69 3.93-1.11.79-2.56.95-3.8.4-1.31-.58-2.72-1.36-4.16-2.38-3.18-2.27-6.82-5.98-8.88-11.81-.24-.67-.36-1.38-.39-2.1C.97 17.5 1.19 9.2 6.48.74z" fill="#fff"/><path d="M16.06 37.67c-.6 0-1.21-.12-1.77-.38A24.873 24.873 0 01.97 22.78c-.25-.69-.39-1.45-.42-2.26C.42 17.33.68 8.98 6.02.44c.1-.16.28-.26.47-.26h18.29c.24 0 .45.16.53.39l4.77 15.38c.61 2.57.61 5.04.01 7.37-1.05 4.03-3.66 6.58-6.68 9.53a40.21 40.21 0 01-4.75 3.98c-.78.56-1.69.84-2.6.84zM6.79 1.29C1.77 9.48 1.52 17.42 1.65 20.48c.03.69.15 1.35.36 1.94 1.68 4.75 4.6 8.64 8.68 11.55 1.27.9 2.63 1.69 4.06 2.32 1.06.47 2.31.34 3.26-.34a40.98 40.98 0 004.62-3.87c3.03-2.95 5.42-5.29 6.39-9.02.56-2.16.56-4.45 0-6.8L24.38 1.31H6.79v-.02z"/></svg>