<?xml version="1.0" encoding="utf-8"?><svg width="29" height="34" xmlns="http://www.w3.org/2000/svg" viewBox="0 0 29 34"><path d="M6.56 1.3h15.8s5.57 11.75 5.83 16.52c.26 4.77-1.99 9.05-7.95 12.87-2.4 1.54-4 2.02-4.77 2.17-.31.06-.61.06-.92.01-1.92-.35-10.38-2.31-13.66-10.28-.01.01-2.18-7.32 5.67-21.29z" fill="#fff"/><path d="M14.99 33.47c-.18 0-.36-.02-.55-.05C12.69 33.1 3.78 31.1.37 22.81c-.11-.36-2.16-7.77 5.7-21.78.1-.17.28-.28.48-.28h15.8c.21 0 .41.12.5.31.23.48 5.62 11.91 5.89 16.73.29 5.27-2.39 9.64-8.21 13.36-2.5 1.6-4.18 2.1-4.96 2.25-.19.05-.38.07-.58.07zM6.88 1.85C-.54 15.21 1.39 22.37 1.41 22.44c3.18 7.7 11.58 9.59 13.23 9.89.24.04.48.04.72 0 .7-.14 2.23-.59 4.58-2.1 5.45-3.49 7.97-7.54 7.7-12.37-.23-4.18-4.75-14.11-5.63-16H6.88v-.01z"/></svg>