<?xml version="1.0" encoding="utf-8"?><svg width="42" height="32" xmlns="http://www.w3.org/2000/svg" viewBox="0 0 42 32"><path d="M28.46 28.59s-4.64 4.75-11.06 0c0 0 2.97-4.98 3.44-7.4.01 0 2.95 7.31 7.62 7.4z" fill="#E1E1E1"/><path d="M23.1 31.24c-1.74 0-3.78-.55-6.02-2.21a.55.55 0 01-.15-.72c.03-.05 2.92-4.92 3.37-7.22a.552.552 0 011.05-.1c.03.07 2.87 6.97 7.12 7.06a.545.545 0 01.38.93c-.03.03-2.27 2.26-5.75 2.26zm-4.97-2.81c4.21 2.88 7.49 1.52 9.01.51-3.04-.85-5.19-4.28-6.18-6.22-.77 2.07-2.23 4.68-2.83 5.71z"/><path d="M7.53 1.3h28.1s3.82 9.83 4.61 12.02c.86 2.39 2 8.22-.7 12.14-.34.49-2.47 2.66-4.46 4.17a4.855 4.855 0 01-4.79.61c-.52-.22-1.05-.44-1.48-.63-2.02-.9-4.98-2.6-6.41-5.31-.37-.7-1.39-.67-1.74.05-.85 1.77-2.5 4.05-5.7 6.23-1.07.73-2.41.61-3.67.23-4.11-1.22-8.88-4.51-9.54-7.78-.86-4.24.48-8.66.48-8.66s.51-4.39 5.3-13.07z" fill="#fff"/><path d="M13.1 31.68c-.6 0-1.26-.11-1.98-.32-4.32-1.29-9.21-4.71-9.92-8.2-.88-4.33.44-8.74.5-8.93 0-.09.56-4.51 5.35-13.18.1-.18.28-.28.48-.28h28.1c.23 0 .43.14.51.35.04.1 3.83 9.86 4.61 12.03 1.01 2.81 1.99 8.63-.76 12.64-.4.59-2.62 2.8-4.58 4.3a5.448 5.448 0 01-5.34.69c-.53-.22-1.06-.44-1.49-.63-2.23-.99-5.2-2.76-6.67-5.55-.1-.2-.3-.21-.37-.21-.06 0-.28.02-.38.24-1.15 2.4-3.14 4.57-5.89 6.45-.62.39-1.34.6-2.17.6zM7.85 1.85C3.33 10.11 2.77 14.4 2.77 14.44c-.03.14-1.31 4.44-.49 8.49.62 3.05 5.23 6.2 9.16 7.36 1.39.42 2.44.37 3.2-.16 2.56-1.74 4.47-3.82 5.52-6.02.25-.52.77-.85 1.35-.86h.03c.56 0 1.07.3 1.33.8 1.33 2.51 4.08 4.14 6.15 5.06.42.19.95.41 1.47.62 1.41.58 3.04.37 4.25-.54 1.98-1.51 4.06-3.65 4.34-4.05 2.51-3.65 1.51-9.21.63-11.64-.69-1.92-3.78-9.88-4.46-11.65H7.85z"/></svg>