<?xml version="1.0" encoding="utf-8"?><svg width="64" height="40" fill="none" xmlns="http://www.w3.org/2000/svg" viewBox="0 0 64 40"><path d="M8 23.974a1 1 0 011 1v7.007h1.591a6.32 6.32 0 0112.56 0H44v-29H9v3.145a1 1 0 01-2 0V1.98a1 1 0 011-1h37a1 1 0 011 1v1h11.452A4.554 4.554 0 0162 7.529V8.98a1 1 0 01-1 1h-1.163l.763 9.165a4.545 4.545 0 013.4 4.383v8.452a1 1 0 01-1 1h-2.025a6.494 6.494 0 01-12.95 0c-.009 0-.016.005-.025.005h-2a1 1 0 01-1 1H23.06a6.322 6.322 0 01-12.378 0H8a1 1 0 01-1-1v-8.012a1 1 0 011-1zM54.5 36.98a4.5 4.5 0 100-9 4.5 4.5 0 000 9zm-8.5-6h2a.928.928 0 01.173.035 6.492 6.492 0 0112.645-.035H62v-7.452a2.551 2.551 0 00-2.548-2.548H46v10zm0-12h12.58l-.75-9H46v9zm0-11h14v-.452a2.551 2.551 0 00-2.548-2.548H46v3zM12.556 32.94a4.314 4.314 0 004.314 4.072h.001a4.321 4.321 0 004.248-3.583.9.9 0 01.051-.973 4.314 4.314 0 00-8.614.484z" fill="#E30613"/><path d="M9 8.98h14a1 1 0 010 2H9a1 1 0 010-2zM7 19.98h22a1 1 0 010 2H7a1 1 0 010-2zM9 13.98h11a1 1 0 010 2H9a1 1 0 010-2zM5 10.98H3a1 1 0 010-2h2a1 1 0 010 2zM2 19.98h2a1 1 0 010 2H2a1 1 0 010-2zM1 13.98h4a1 1 0 010 2H1a1 1 0 010-2z" fill="#E30613"/></svg>