<svg width="21" height="31" viewBox="0 0 21 31" xmlns="http://www.w3.org/2000/svg">
<path d="M2.29999 0.790039H18.41C19.33 0.790039 20.07 1.55004 20.04 2.47004C19.86 7.77004 19.09 24.1 16.61 29.9H4.42002C4.42002 29.9 0.629995 23.98 0.679995 2.41004C0.669995 1.51004 1.39999 0.790039 2.29999 0.790039Z" fill="white"/>
<path d="M16.6 30.41H4.41002C4.23002 30.41 4.07002 30.32 3.98002 30.17C3.82002 29.92 0.110016 23.87 0.160016 2.4C0.160016 1.22 1.13001 0.26001 2.31001 0.26001H18.42C19.01 0.26001 19.56 0.490006 19.97 0.920006C20.38 1.34001 20.59 1.89 20.57 2.48C20.35 8.87 19.56 24.35 17.1 30.1C16.99 30.29 16.81 30.41 16.6 30.41ZM4.72001 29.38H16.26C18.62 23.37 19.35 7.3 19.52 2.45C19.53 2.15 19.42 1.86001 19.21 1.64001C19 1.42001 18.71 1.30001 18.41 1.30001H2.3C1.69 1.30001 1.19001 1.8 1.19001 2.4C1.14001 21.2 4.06001 28.08 4.72001 29.38Z" fill=""/>
</svg>
