<svg width="24" height="35" viewBox="0 0 24 35" xmlns="http://www.w3.org/2000/svg">
<path d="M3.64001 0.910034H20.64C22.08 0.910034 23.26 2.05003 23.31 3.49003C23.49 8.35003 23.42 19.58 20.07 32.84L5.73999 33.78C5.73999 33.78 1.05999 28.28 0.959991 3.61003C0.959991 2.12003 2.16001 0.910034 3.64001 0.910034Z" fill="white"/>
<path d="M5.75 34.36C5.58 34.36 5.42 34.29 5.31 34.15C5.11 33.92 0.490015 28.2 0.390015 3.60001C0.390015 2.72001 0.729996 1.90001 1.34 1.28001C1.96 0.660006 2.77999 0.320007 3.64999 0.320007H20.65C22.41 0.320007 23.84 1.70001 23.91 3.46001C24.11 8.87001 23.95 19.9 20.65 32.98C20.59 33.23 20.38 33.4 20.12 33.42L5.79001 34.36C5.77001 34.36 5.76 34.36 5.75 34.36ZM3.64001 1.49001C3.08001 1.49001 2.56 1.71001 2.16 2.11001C1.76 2.51001 1.54001 3.04001 1.54001 3.61001C1.63001 25.04 5.23 31.92 6.03 33.18L19.61 32.29C22.78 19.53 22.93 8.80001 22.73 3.51001C22.69 2.38001 21.77 1.49001 20.64 1.49001H3.64001Z" fill=""/>
</svg>
