<svg width="30" height="40" viewBox="0 0 30 40" xmlns="http://www.w3.org/2000/svg">
<path d="M5.32998 38.88H25.12C25.12 38.88 30.25 22.04 28.51 10.89C28.44 10.41 28.28 9.94996 28.06 9.52996C27.26 8.00996 24.94 4.38996 19.72 1.34996C18.12 0.419961 16.16 0.30996 14.47 1.05996C10.3 2.90996 2.53001 7.13995 1.17001 13.43C1.09001 13.79 1.06998 14.16 1.07998 14.53C1.13998 17.22 1.59998 29.08 5.32998 38.88Z" fill="white"/>
<path d="M25.13 39.43H5.33999C5.10999 39.43 4.90998 39.29 4.82998 39.07C1.02998 29.1 0.590003 16.88 0.540003 14.53C0.530003 14.08 0.560009 13.68 0.640009 13.3C2.04001 6.82998 9.76999 2.52998 14.25 0.539978C16.1 -0.280022 18.25 -0.160022 20 0.859977C25.38 3.98998 27.77 7.76997 28.55 9.25997C28.8 9.73997 28.97 10.26 29.06 10.8C30.8 21.95 25.86 38.35 25.65 39.04C25.58 39.28 25.37 39.43 25.13 39.43ZM5.70999 38.33H24.71C25.45 35.75 29.52 20.94 27.97 10.97C27.9 10.55 27.77 10.15 27.57 9.77998C26.83 8.37998 24.57 4.80998 19.44 1.81998C17.99 0.979977 16.21 0.87998 14.69 1.54998C10.4 3.44998 2.99999 7.53998 1.70999 13.53C1.64999 13.82 1.62 14.13 1.63 14.5C1.68 16.8 2.09999 28.59 5.70999 38.33Z" fill=""/>
</svg>
