<svg width="30" height="35" viewBox="0 0 30 35" xmlns="http://www.w3.org/2000/svg">
<path d="M6.36 33.8501H22.53C22.53 33.8501 29.82 24.44 28.23 15.03C26.98 7.64004 19.76 3.02004 16.72 1.39004C15.84 0.910044 14.8 0.840043 13.85 1.17004C10.92 2.18004 4.48999 5.14005 1.39999 12.2401C0.949991 13.2801 0.71 14.41 0.69 15.55C0.64 18.92 1.15 26.7301 6.36 33.8501Z" fill="white"/>
<path d="M22.54 34.4H6.37C6.19 34.4 6.03 34.32 5.93 34.17C0.549996 26.82 0.100007 18.69 0.160007 15.53C0.180007 14.3 0.440007 13.12 0.910007 12.01C4.12001 4.62002 10.91 1.59003 13.68 0.640025C14.78 0.260025 15.98 0.350027 16.99 0.900027C20.11 2.58003 27.49 7.31003 28.78 14.94C30.39 24.48 23.28 33.8 22.97 34.19C22.87 34.32 22.71 34.4 22.54 34.4ZM6.65 33.3H22.26C23.3 31.86 29.1 23.41 27.69 15.12C26.48 7.97002 19.43 3.47003 16.46 1.87003C15.72 1.47003 14.84 1.41003 14.03 1.68003C11.4 2.59003 4.94001 5.46002 1.91001 12.45C1.49001 13.42 1.27 14.46 1.25 15.55C1.2 18.57 1.62 26.28 6.65 33.3Z" fill=""/>
</svg>
