<svg width="31" height="33" viewBox="0 0 31 33" xmlns="http://www.w3.org/2000/svg">
<path d="M7.13001 31.97H24.1C24.1 31.97 34.17 16.98 28.61 9.42999C23.04 1.87998 17.12 0.219992 11.29 1.31999C5.46 2.42999 2.1 5.58999 1.04 14.4C1.03 14.39 0.500007 24.95 7.13001 31.97Z" fill="white"/>
<path d="M24.09 32.51H7.11999C6.96999 32.51 6.82999 32.45 6.72999 32.34C0.0199943 25.24 0.459994 14.81 0.479994 14.37C1.48999 5.96 4.59 2.04 11.17 0.790003C18.09 -0.519997 23.93 2.2 29.03 9.11C34.76 16.88 24.96 31.65 24.54 32.28C24.44 32.42 24.27 32.51 24.09 32.51ZM7.36 31.43H23.8C25.04 29.5 33.07 16.4 28.16 9.75C23.34 3.21 17.85 0.630001 11.38 1.85C6.28 2.82 2.67001 5.33001 1.57001 14.46C1.56001 14.52 1.14 24.66 7.36 31.43Z" fill=""/>
</svg>
