<svg width="38" height="30" viewBox="0 0 38 30" xmlns="http://www.w3.org/2000/svg">
<path d="M16.94 4.42001C16.94 4.42001 21.24 -0.32999 27.2 4.42001C27.2 4.42001 24.45 9.40002 24.01 11.82C24 11.82 21.27 4.51001 16.94 4.42001Z" fill="#E1E1E1"/>
<path d="M24 12.35C23.78 12.35 23.58 12.21 23.5 12.01C23.47 11.94 20.84 5.04002 16.92 4.95002C16.71 4.95002 16.53 4.82002 16.44 4.63002C16.36 4.44002 16.39 4.22002 16.53 4.06002C16.58 4.01002 21.24 -0.99998 27.51 4.00002C27.71 4.16002 27.77 4.44002 27.64 4.67002C27.61 4.72002 24.93 9.60002 24.51 11.91C24.47 12.15 24.27 12.32 24.04 12.34C24.04 12.35 24.02 12.35 24 12.35ZM18.14 4.08002C20.96 4.91002 22.95 8.30002 23.89 10.25C24.62 8.17002 25.98 5.56003 26.51 4.57003C22.6 1.66003 19.54 3.07002 18.14 4.08002Z" fill=""/>
<path d="M17.65 4.42001C17.65 4.42001 13.35 -0.32999 7.38998 4.42001C7.38998 4.42001 10.14 9.40002 10.58 11.82C10.59 11.82 13.32 4.51001 17.65 4.42001Z" fill="#E1E1E1"/>
<path d="M10.59 12.35C10.57 12.35 10.56 12.35 10.54 12.35C10.3 12.33 10.11 12.15 10.07 11.92C9.64999 9.61003 6.95998 4.73002 6.93998 4.68002C6.80998 4.45002 6.86999 4.17003 7.06999 4.01003C13.34 -0.989974 18 4.02004 18.05 4.07004C18.19 4.22004 18.23 4.45003 18.14 4.64003C18.06 4.83003 17.87 4.96004 17.66 4.96004C13.73 5.04004 11.11 11.95 11.08 12.02C11 12.21 10.81 12.35 10.59 12.35ZM8.07998 4.56003C8.60998 5.55003 9.96998 8.16004 10.7 10.24C11.64 8.29004 13.63 4.90004 16.45 4.07004C15.05 3.07004 11.99 1.66003 8.07998 4.56003Z" fill=""/>
<path d="M5.41999 28.64H32.11C32.11 28.64 36.65 21.36 36.62 13.44C36.6 8.34998 33.79 4.38998 31.19 2.35998C29.61 1.11998 27.36 1.22998 25.89 2.58998C24.66 3.73998 23.42 5.34998 23.17 7.33998C23.17 7.33998 19.61 2.15998 17.45 1.50998C14.8 0.719982 12.32 1.52998 11.33 4.60998C11.1 5.31998 10.24 5.54997 9.68999 5.03997C8.54999 3.98997 6.84999 2.94998 5.42999 4.32998C1.36999 8.28998 0.809996 11.81 1.41 14.9C2.38 19.97 5.41999 28.64 5.41999 28.64Z" fill="white"/>
<path d="M32.11 29.17H5.41999C5.19999 29.17 4.98999 29.03 4.91999 28.82C4.88999 28.73 1.84999 20.06 0.879986 15.01C0.109986 11 1.42999 7.49 5.04999 3.96C5.81999 3.21 7.48998 2.3 10.04 4.66C10.16 4.78 10.32 4.81999 10.48 4.77999C10.64 4.74 10.76 4.62 10.81 4.46C11.8 1.38 14.4 0.0699985 17.59 1.01C19.33 1.53 21.71 4.48 22.9 6.07C23.33 4.72 24.21 3.41999 25.52 2.19999C27.19 0.639993 29.71 0.529999 31.51 1.94C34.22 4.06 37.13 8.19 37.15 13.44C37.18 21.42 32.75 28.62 32.56 28.92C32.46 29.08 32.29 29.17 32.11 29.17ZM5.79999 28.11H31.81C32.58 26.78 36.11 20.31 36.09 13.44C36.07 8.58 33.38 4.74 30.86 2.77C29.48 1.69 27.54 1.77 26.25 2.97C24.74 4.37 23.89 5.85999 23.7 7.39999C23.67 7.61999 23.51 7.8 23.3 7.85C23.08 7.9 22.86 7.82 22.74 7.64C21.78 6.24 18.93 2.5 17.3 2.02C14.64 1.23 12.65 2.23 11.83 4.77C11.67 5.28 11.27 5.65999 10.76 5.78999C10.25 5.91999 9.71999 5.78999 9.32999 5.42999C7.87999 4.07999 6.68999 3.84 5.79999 4.71C2.45999 7.97 1.22999 11.18 1.92999 14.8C2.76999 19.2 5.21999 26.43 5.79999 28.11Z" fill=""/>
</svg>
