<svg width="39" height="29" viewBox="0 0 39 29" xmlns="http://www.w3.org/2000/svg">
<path d="M6.08 27.85H32.24C32.24 27.85 38.6 14.2099 38.11 10.7599C37.63 7.40995 35.95 1.42995 29.33 1.24995C24.89 1.12995 23.03 2.31995 21.67 4.46995C20.96 5.58995 19.29 5.61996 18.58 4.48996C18.08 3.68996 17.36 2.82995 16.35 1.97995C15.2 1.00995 13.66 0.58996 12.15 0.56996C10.04 0.54996 6.91 0.99995 4.67 3.44995C4.18 3.97995 2.25 5.60996 1.37 8.34996C0.929997 9.70996 0.85 11 0.83 11.67C0.83 11.67 0.799998 12.76 0.979998 13.95C1.29 16 3.11 21.18 6.08 27.85Z" fill="white"/>
<path d="M32.24 28.38H6.08001C5.87001 28.38 5.68001 28.26 5.60001 28.07C2.83001 21.85 0.810007 16.35 0.460007 14.04C0.270007 12.82 0.300007 11.72 0.300007 11.67C0.320007 10.83 0.440006 9.53998 0.870007 8.19998C1.67001 5.70998 3.26001 4.12999 4.03001 3.35999C4.14001 3.24999 4.22001 3.16999 4.29001 3.09999C6.65001 0.529993 9.87001 -0.0100102 12.17 0.0499898C13.94 0.0699898 15.55 0.609989 16.7 1.57999C17.66 2.38999 18.44 3.26999 19.04 4.20999C19.28 4.57999 19.67 4.78998 20.12 4.78998C20.58 4.78998 20.99 4.55998 21.23 4.17998C22.6 2.00998 24.5 0.589993 29.35 0.709993C34.44 0.849993 37.74 4.38998 38.64 10.68C39.15 14.25 32.99 27.51 32.73 28.07C32.64 28.26 32.45 28.38 32.24 28.38ZM6.43001 27.32H31.9C33.74 23.34 37.96 13.47 37.58 10.84C37 6.78998 35.09 1.93999 29.31 1.77999C24.97 1.66999 23.33 2.82999 22.12 4.74999C21.69 5.43999 20.93 5.84999 20.11 5.84999C19.3 5.84999 18.56 5.44999 18.13 4.76999C17.59 3.91999 16.88 3.11999 16.01 2.37999C15.05 1.56999 13.68 1.11999 12.15 1.09999C10.04 1.05999 7.15001 1.52998 5.06001 3.80998C4.99001 3.88998 4.89 3.98999 4.77 4.10999C4.06 4.80999 2.59001 6.27999 1.87001 8.51999C1.48001 9.73999 1.37001 10.91 1.35001 11.69C1.35001 11.7 1.33001 12.75 1.50001 13.87C1.78001 15.67 3.41001 20.51 6.43001 27.32Z" fill=""/>
</svg>
