<svg width="41" height="29" viewBox="0 0 41 29" xmlns="http://www.w3.org/2000/svg">
<path d="M13.95 3.35995C13.95 3.35995 18.25 -1.39005 24.21 3.35995C24.21 3.35995 21.46 8.33994 21.02 10.7599C21.02 10.7599 18.28 3.44995 13.95 3.35995Z" fill="#E1E1E1"/>
<path d="M21.02 11.29C20.8 11.29 20.6 11.15 20.52 10.95C20.49 10.88 17.86 3.97996 13.94 3.88996C13.73 3.88996 13.55 3.75997 13.46 3.56997C13.38 3.37997 13.41 3.15996 13.55 2.99996C13.6 2.94996 18.26 -2.06004 24.53 2.93996C24.73 3.09996 24.79 3.37996 24.66 3.60996C24.63 3.65996 21.95 8.53997 21.53 10.85C21.49 11.09 21.29 11.26 21.06 11.28C21.05 11.29 21.03 11.29 21.02 11.29ZM15.16 3.01996C17.98 3.84996 19.97 7.23996 20.91 9.18996C21.64 7.10996 23 4.49995 23.53 3.50995C19.61 0.599953 16.55 2.01996 15.16 3.01996Z" fill=""/>
<path d="M8.61002 27.85H33.8C33.8 27.85 42.09 18.57 39.67 10.09C37.59 2.80999 32.41 1.19 30.99 0.880003C30.74 0.830003 30.5 0.810005 30.25 0.820005C28.93 0.880005 24.42 1.41999 22.12 5.94999C21.85 6.48999 21.08 6.43 20.84 5.88C20.18 4.41 18.59 2.57 14.81 1.25C13.73 0.879998 12.58 0.760001 11.45 0.910001C9.25002 1.2 5.64002 2.26 3.14002 5.92C2.90002 6.27 2.71002 6.65 2.56002 7.05C2.10002 8.25 0.570017 11.15 1.72002 14.33C4.43002 21.82 8.61002 27.85 8.61002 27.85Z" fill="white"/>
<path d="M33.8 28.38H8.61001C8.44001 28.38 8.27001 28.3 8.17001 28.15C8.13001 28.09 3.92001 21.97 1.21001 14.5C0.120012 11.48 1.26001 8.75998 1.87001 7.29998C1.94001 7.12998 2.00001 6.97998 2.06001 6.84998C2.24001 6.37998 2.45001 5.96998 2.70001 5.60998C5.36001 1.69998 9.28001 0.64997 11.38 0.36997C12.58 0.20997 13.83 0.33998 14.98 0.73998C19.03 2.14998 20.66 4.18997 21.32 5.64997C21.38 5.77997 21.48 5.78997 21.52 5.77997C21.61 5.77997 21.64 5.71997 21.65 5.69997C24.08 0.919971 28.83 0.339973 30.23 0.279973C30.53 0.259973 30.82 0.289981 31.11 0.349981C32.7 0.699981 38.04 2.41997 40.19 9.92997C42.66 18.6 34.55 27.8 34.21 28.19C34.09 28.32 33.95 28.38 33.8 28.38ZM8.89001 27.32H33.55C34.65 26.01 41.29 17.71 39.15 10.23C37.16 3.27997 32.3 1.70997 30.86 1.38997C30.67 1.34997 30.46 1.32997 30.26 1.33997C29.01 1.39997 24.75 1.90997 22.58 6.17997C22.37 6.59997 21.95 6.81997 21.47 6.83997C20.98 6.82997 20.54 6.53998 20.34 6.07998C19.77 4.80998 18.31 3.01998 14.62 1.73998C13.62 1.38998 12.55 1.27997 11.51 1.41997C9.16001 1.72997 5.88001 2.80997 3.57001 6.19997C3.37001 6.48997 3.20001 6.82998 3.05001 7.21998C3.00001 7.35998 2.93001 7.51997 2.85001 7.69997C2.29001 9.02997 1.26001 11.5 2.21001 14.13C4.58001 20.68 8.12001 26.16 8.89001 27.32Z" fill=""/>
</svg>
