<svg width="40" height="37" viewBox="0 0 40 37" fill="none" xmlns="http://www.w3.org/2000/svg">
<path d="M10.8329 36.6674C8.47627 36.6725 6.21529 35.7359 4.55276 34.0657L2.601 32.1139C-0.866949 28.646 -0.867027 23.0234 2.60093 19.5555L2.601 19.5554L18.578 3.57841C18.8978 3.24739 19.4253 3.23817 19.7564 3.55794C20.0874 3.87771 20.0966 4.40522 19.7769 4.73632C19.7701 4.74328 19.7633 4.75007 19.7564 4.75679L3.77939 20.7321C0.962928 23.5495 0.962928 28.1164 3.77939 30.9339L5.73278 32.8873C8.55025 35.7037 13.1171 35.7037 15.9346 32.8873L36.81 12.0119C38.8407 9.98009 38.8407 6.68698 36.81 4.65515L35.345 3.19012C33.2851 1.22821 30.048 1.22821 27.9882 3.19012L9.26777 21.9104C8.02188 23.1561 8.02173 25.1759 9.26745 26.4218C9.26753 26.4219 9.26769 26.422 9.26777 26.4221L10.2444 27.3988C11.5138 28.5865 13.4867 28.5865 14.7561 27.3988L28.578 13.5769C28.8978 13.2458 29.4253 13.2366 29.7564 13.5564C30.0874 13.8762 30.0966 14.4037 29.7769 14.7348C29.7702 14.7417 29.7634 14.7485 29.7564 14.7552L15.9346 28.5772C14.0027 30.3869 10.998 30.3869 9.06612 28.5772L8.08946 27.6006C6.19279 25.7039 6.19279 22.6287 8.08946 20.7321L26.8098 2.01174C29.4921 -0.670568 33.8409 -0.670568 36.5233 2.01167C36.5233 2.01167 36.5233 2.01167 36.5233 2.01174L37.9884 3.47677C40.6707 6.15908 40.6707 10.5079 37.9884 13.1902C37.9884 13.1902 37.9884 13.1902 37.9884 13.1903L17.113 34.0657C15.4505 35.7359 13.1895 36.6725 10.8329 36.6674Z" fill="#7C7C7D"/>
</svg>
