<svg width="18" height="19" viewBox="0 0 18 19" fill="none" xmlns="http://www.w3.org/2000/svg">
<g>
<path d="M9 12.9723C8.68957 12.9723 8.4375 12.7202 8.4375 12.4098V0.784668C8.4375 0.474238 8.68957 0.222168 9 0.222168C9.31043 0.222168 9.5625 0.474238 9.5625 0.784668V12.4098C9.5625 12.7202 9.31043 12.9723 9 12.9723Z" fill="#E30613"/>
<path d="M9.00001 12.9723C8.85587 12.9723 8.71208 12.9174 8.60239 12.8071L5.60251 9.80717C5.38278 9.58744 5.38278 9.23131 5.60251 9.01123C5.82224 8.7915 6.17837 8.7915 6.39845 9.01123L9.00071 11.6138L11.6033 9.01123C11.8231 8.7915 12.1795 8.7915 12.3993 9.01123C12.619 9.23096 12.619 9.58744 12.3993 9.80717L9.39903 12.8071C9.28794 12.9174 9.14415 12.9723 9.00001 12.9723Z" fill="#E30613"/>
<path d="M15.9374 18.2222H2.06262C0.924609 18.2222 0 17.2976 0 16.1595V12.7845C0 12.4741 0.25207 12.222 0.5625 12.222C0.87293 12.222 1.125 12.4741 1.125 12.7845V16.1595C1.125 16.6763 1.54582 17.0972 2.06262 17.0972H15.9374C16.4542 17.0972 16.875 16.6763 16.875 16.1595V12.7845C16.875 12.4741 17.1271 12.222 17.4375 12.222C17.7479 12.222 18 12.4741 18 12.7845V16.1595C18 17.2976 17.0754 18.2222 15.9374 18.2222Z" fill="#E30613"/>
</g>
</svg>
