<svg width="16" height="10" viewBox="0 0 16 10" fill="none" xmlns="http://www.w3.org/2000/svg">
<g>
<path d="M15.1794 0H0.820625C0.369063 0 0 0.340965 0 0.757508V9.08894C0 9.50548 0.369063 9.84644 0.820625 9.84644H15.1797C15.6309 9.84644 16.0003 9.50548 16.0003 9.08894V0.757508C16 0.340965 15.6306 0 15.1794 0ZM14.8716 0.567986L8.47188 4.9988C8.35688 5.07957 8.18031 5.13005 8 5.12947C7.81969 5.13034 7.64312 5.07957 7.52812 4.9988L1.12844 0.567986H14.8716ZM11.4531 5.2913L14.9403 9.26778C14.9437 9.27182 14.9481 9.27471 14.9519 9.27846H1.04813C1.05187 9.27471 1.05625 9.27182 1.05969 9.26778L4.54688 5.2913C4.65375 5.16928 4.63344 4.99072 4.50125 4.89178C4.36906 4.79312 4.17562 4.81187 4.06875 4.93389L0.615625 8.87143V0.923086L7.15906 5.45342C7.405 5.62246 7.70437 5.69688 8 5.69775C8.29531 5.69717 8.595 5.62275 8.84094 5.45342L15.3844 0.923086V8.87115L11.9312 4.93361C11.8244 4.81159 11.6306 4.79284 11.4987 4.89149C11.3666 4.99043 11.3462 5.16928 11.4531 5.2913Z" fill="#E30613"/>
</g>
</svg>
