<svg width="9" height="16" viewBox="0 0 9 16" fill="none" xmlns="http://www.w3.org/2000/svg">
<path d="M3.24841 0.799927H5.86272C6.00702 0.799927 6.12405 0.919302 6.12405 1.06649C6.12405 1.21368 6.00702 1.33305 5.86272 1.33305H3.24841C3.10411 1.33305 2.98707 1.21368 2.98707 1.06649C2.98676 0.919302 3.10411 0.799927 3.24841 0.799927Z" fill="#E30613"/>
<path d="M1.41812 0.799927H1.67946C1.82376 0.799927 1.9408 0.919302 1.9408 1.06649C1.9408 1.21368 1.82376 1.33305 1.67946 1.33305H1.41812C1.27381 1.33305 1.15678 1.21368 1.15678 1.06649C1.15678 0.919302 1.27381 0.799927 1.41812 0.799927Z" fill="#E30613"/>
<path d="M4.23096 13.6001H4.88017C5.27785 13.6001 5.60138 13.9301 5.60138 14.3357V14.4645C5.60138 14.8701 5.27785 15.2001 4.88048 15.2001H4.23127C3.83359 15.2001 3.51006 14.8701 3.51006 14.4645V14.3357C3.50975 13.9301 3.83328 13.6001 4.23096 13.6001ZM4.03273 14.4645C4.03273 14.576 4.12158 14.6667 4.23096 14.6667H4.88017C4.98955 14.6667 5.0787 14.576 5.0787 14.4645V14.3357C5.0787 14.2238 4.98985 14.1332 4.88017 14.1332H4.23127C4.12158 14.1332 4.03273 14.2238 4.03273 14.3357V14.4645Z" fill="#E30613"/>
<path d="M1.05598 0H8.05483C8.57598 0 9 0.4325 9 0.964063V15.0359C9 15.5675 8.57598 16 8.05483 16H1.05598C0.53483 16 0.110806 15.5675 0.110806 15.0363V0.964063C0.111112 0.4325 0.535136 0 1.05598 0ZM0.633789 15.0359C0.633789 15.2734 0.823131 15.4666 1.05567 15.4666H8.05483C8.28768 15.4666 8.47702 15.2731 8.47702 15.0363V0.964063C8.47702 0.726875 8.28768 0.533437 8.05483 0.533437H1.05598C0.82313 0.533437 0.633789 0.726875 0.633789 0.964063V15.0359Z" fill="#E30613"/>
<path d="M0.37245 1.6001H8.73866C8.88296 1.6001 9 1.71947 9 1.86666V13.0667C9 13.2138 8.88296 13.3332 8.73866 13.3332H0.37245C0.228147 13.3332 0.111111 13.2138 0.111111 13.0667V1.86666C0.111111 1.71947 0.228147 1.6001 0.37245 1.6001ZM0.633788 12.8001H8.47702V2.13354H0.633788V12.8001Z" fill="#E30613"/>
</svg>
