<svg width="12" height="16" viewBox="0 0 12 16" fill="none" xmlns="http://www.w3.org/2000/svg">
<path d="M6 0C9.30838 0 12 2.65146 12 5.91047C12 6.98349 11.5116 8.13733 11.4909 8.18601C11.3329 8.55498 11.0219 9.12777 10.7974 9.46371L6.68338 15.6041C6.51485 15.8557 6.26603 16 5.99956 16C5.73309 16 5.48426 15.8557 5.31574 15.6045L1.20132 9.46371C0.976323 9.12777 0.665735 8.55498 0.507794 8.18601C0.487942 8.13777 0 6.98392 0 5.91047C0 2.65146 2.69162 0 6 0ZM1.15941 7.91612C1.30015 8.24685 1.59 8.77966 1.79162 9.08083L5.90603 15.2216C5.98721 15.3429 6.01279 15.3429 6.09397 15.2216L10.2084 9.08083C10.41 8.77966 10.6999 8.24641 10.8406 7.91569C10.8463 7.90178 11.2941 6.83963 11.2941 5.91047C11.2941 3.03477 8.91926 0.69535 6 0.69535C3.08074 0.69535 0.705882 3.03477 0.705882 5.91047C0.705882 6.84094 1.155 7.90569 1.15941 7.91612Z" fill="#E30613"/>
<path d="M6.00001 2.78174C7.75148 2.78174 9.17648 4.18548 9.17648 5.91081C9.17648 7.63615 7.75148 9.03989 6.00001 9.03989C4.24854 9.03989 2.82354 7.63615 2.82354 5.91081C2.82354 4.18548 4.24854 2.78174 6.00001 2.78174ZM6.00001 8.34454C7.36192 8.34454 8.4706 7.25284 8.4706 5.91081C8.4706 4.56879 7.36192 3.47709 6.00001 3.47709C4.6381 3.47709 3.52942 4.56879 3.52942 5.91081C3.52942 7.25284 4.6381 8.34454 6.00001 8.34454Z" fill="#E30613"/>
</svg>
