<svg width="34" height="42" viewBox="0 0 34 42" xmlns="http://www.w3.org/2000/svg">
<path d="M5.79998 41.12H28.79C31.16 41.12 33.08 39.22 33.1 36.85C33.13 31.19 32.99 21.34 31.71 16.41C29.85 9.24997 25.08 2.88997 19.52 1.02997H11.04C11.04 1.02997 -1.95001 6.03997 1.52999 37.26C1.74999 39.45 3.58998 41.12 5.79998 41.12Z" fill="white"/>
<path d="M28.78 41.67H5.79999C3.31999 41.67 1.24001 39.8 0.970006 37.32C-2.51999 6.03998 10.28 0.72998 10.83 0.51998C10.89 0.49998 10.96 0.47998 11.03 0.47998H19.51C19.57 0.47998 19.63 0.48998 19.68 0.50998C25.22 2.35998 30.27 8.68998 32.23 16.27C33.53 21.28 33.67 31.31 33.64 36.85C33.63 39.5 31.45 41.67 28.78 41.67ZM11.14 1.57998C10.06 2.08998 -1.18 8.15998 2.06 37.2C2.27 39.12 3.87999 40.57 5.79999 40.57H28.79C30.85 40.57 32.54 38.9 32.55 36.85C32.58 31.37 32.44 21.45 31.18 16.55C29.31 9.35998 24.6 3.35998 19.43 1.58998H11.14V1.57998Z" fill=""/>
</svg>
