<svg width="28" height="36" viewBox="0 0 28 36" xmlns="http://www.w3.org/2000/svg">
<path d="M2.28 14.26C2.28 14.26 3.08001 9.75004 7.32001 4.98004C11.56 0.210043 17.39 -0.229956 21.37 3.30004C25.35 6.83004 26.67 19.11 26.67 19.11V28.63C26.67 32.1 23.86 34.92 20.38 34.92H7.14002C3.67002 34.92 0.870009 32.12 0.850009 28.65C0.830009 24.93 1.1 19.85 2.28 14.26Z" fill="white"/>
<path d="M20.38 35.47H7.14C3.39 35.47 0.319974 32.41 0.299974 28.65C0.269974 23.72 0.759977 18.84 1.73998 14.15C1.78998 13.85 2.66999 9.38001 6.90999 4.61001C11.2 -0.209987 17.44 -0.939986 21.74 2.88001C25.83 6.51001 27.17 18.53 27.22 19.04V28.62C27.22 32.4 24.15 35.47 20.38 35.47ZM15.4 1.52001C12.73 1.52001 9.98 2.82001 7.73 5.35001C3.66 9.94001 2.82999 14.32 2.81999 14.36C2.81999 14.37 2.81999 14.37 2.81999 14.38C1.86999 18.93 1.37999 23.86 1.40999 28.65C1.42999 31.8 3.99998 34.37 7.14998 34.37H20.39C23.55 34.37 26.12 31.8 26.12 28.64V19.12C26.11 19.06 24.77 7.08001 21 3.72001C19.34 2.24001 17.39 1.52001 15.4 1.52001Z" fill=""/>
</svg>
