<svg width="31" height="38" viewBox="0 0 31 38" xmlns="http://www.w3.org/2000/svg">
<path d="M6.48001 0.73999H24.77L29.54 16.12C29.93 17.75 30.29 20.31 29.54 23.19C28.53 27.08 26.04 29.51 23 32.47C21.85 33.59 20.3 34.97 18.31 36.4C17.2 37.19 15.75 37.35 14.51 36.8C13.2 36.22 11.79 35.44 10.35 34.42C7.17 32.15 3.53 28.44 1.47 22.61C1.23 21.94 1.10999 21.23 1.07999 20.51C0.969985 17.5 1.19001 9.19999 6.48001 0.73999Z" fill="white"/>
<path d="M16.06 37.67C15.46 37.67 14.85 37.55 14.29 37.29C12.8 36.62 11.37 35.81 10.04 34.86C5.83 31.86 2.68999 27.68 0.96999 22.78C0.71999 22.09 0.579976 21.33 0.549976 20.52C0.419976 17.33 0.679977 8.97999 6.01998 0.439993C6.11998 0.279993 6.29998 0.179993 6.48998 0.179993H24.78C25.02 0.179993 25.23 0.339993 25.31 0.569993L30.08 15.95C30.69 18.52 30.69 20.99 30.09 23.32C29.04 27.35 26.43 29.9 23.41 32.85C21.94 34.29 20.34 35.63 18.66 36.83C17.88 37.39 16.97 37.67 16.06 37.67ZM6.79 1.28999C1.77 9.47999 1.51998 17.42 1.64998 20.48C1.67998 21.17 1.8 21.83 2.01 22.42C3.69 27.17 6.60999 31.06 10.69 33.97C11.96 34.87 13.32 35.66 14.75 36.29C15.81 36.76 17.06 36.63 18.01 35.95C19.65 34.77 21.2 33.47 22.63 32.08C25.66 29.13 28.05 26.79 29.02 23.06C29.58 20.9 29.58 18.61 29.02 16.26L24.38 1.30999H6.79V1.28999Z" fill=""/>
</svg>
