<svg width="31" height="36" viewBox="0 0 31 36" xmlns="http://www.w3.org/2000/svg">
<path d="M8.42 1.07001H23.09C23.09 1.07001 28.75 10.61 29.28 14.5C29.81 18.39 29.28 24.19 27.16 26.94C25.04 29.7 18.95 33.92 18.95 33.92C18.95 33.92 17.62 35.67 13.91 33.92C11.52 32.8 7.66 30.49 4.7 27.55C2.06 24.93 0.8 21.27 1.31 17.59C1.9 13.3 3.6 6.75001 8.42 1.07001Z" fill="white"/>
<path d="M16.86 35.24C16.03 35.24 14.98 35.03 13.67 34.41C11.06 33.18 7.23 30.84 4.3 27.93C1.51 25.16 0.219994 21.36 0.759994 17.5C1.37999 12.99 3.14999 6.42001 8.00999 0.700009C8.10999 0.580009 8.26999 0.51001 8.42999 0.51001H23.1C23.29 0.51001 23.47 0.61001 23.57 0.78001C23.8 1.17001 29.29 10.46 29.83 14.42C30.39 18.52 29.8 24.42 27.6 27.27C25.54 29.95 19.98 33.87 19.32 34.32C19.09 34.57 18.34 35.24 16.86 35.24ZM8.67999 1.62001C4.11999 7.09001 2.45001 13.35 1.85001 17.66C1.36001 21.17 2.54 24.63 5.08 27.16C7.91 29.97 11.61 32.24 14.14 33.42C17.35 34.93 18.47 33.63 18.52 33.58C18.55 33.54 18.6 33.5 18.64 33.47C18.7 33.43 24.68 29.27 26.73 26.61C28.67 24.09 29.28 18.51 28.74 14.58C28.28 11.2 23.7 3.20001 22.78 1.63001H8.67999V1.62001Z" fill=""/>
</svg>
