<svg width="29" height="34" viewBox="0 0 29 34" xmlns="http://www.w3.org/2000/svg">
<path d="M6.56 1.29999H22.36C22.36 1.29999 27.93 13.05 28.19 17.82C28.45 22.59 26.2 26.87 20.24 30.69C17.84 32.23 16.24 32.71 15.47 32.86C15.16 32.92 14.86 32.92 14.55 32.87C12.63 32.52 4.17 30.56 0.890004 22.59C0.880004 22.6 -1.29 15.27 6.56 1.29999Z" fill="white"/>
<path d="M14.99 33.47C14.81 33.47 14.63 33.45 14.44 33.42C12.69 33.1 3.78 31.1 0.369998 22.81C0.259998 22.45 -1.78999 15.04 6.07001 1.03C6.17001 0.86 6.35001 0.75 6.55001 0.75H22.35C22.56 0.75 22.76 0.87 22.85 1.06C23.08 1.54 28.47 12.97 28.74 17.79C29.03 23.06 26.35 27.43 20.53 31.15C18.03 32.75 16.35 33.25 15.57 33.4C15.38 33.45 15.19 33.47 14.99 33.47ZM6.88001 1.85C-0.539992 15.21 1.39001 22.37 1.41001 22.44C4.59001 30.14 12.99 32.03 14.64 32.33C14.88 32.37 15.12 32.37 15.36 32.33C16.06 32.19 17.59 31.74 19.94 30.23C25.39 26.74 27.91 22.69 27.64 17.86C27.41 13.68 22.89 3.75 22.01 1.86H6.88001V1.85Z" fill=""/>
</svg>
