<svg width="42" height="32" viewBox="0 0 42 32" xmlns="http://www.w3.org/2000/svg">
<path d="M28.46 28.59C28.46 28.59 23.82 33.34 17.4 28.59C17.4 28.59 20.37 23.61 20.84 21.19C20.85 21.19 23.79 28.5 28.46 28.59Z" fill="#E1E1E1"/>
<path d="M23.1 31.24C21.36 31.24 19.32 30.69 17.08 29.03C16.85 28.86 16.79 28.55 16.93 28.31C16.96 28.26 19.85 23.39 20.3 21.09C20.35 20.85 20.55 20.67 20.79 20.65C21.03 20.62 21.26 20.77 21.35 20.99C21.38 21.06 24.22 27.96 28.47 28.05C28.69 28.05 28.89 28.19 28.97 28.39C29.05 28.59 29.01 28.83 28.85 28.98C28.82 29.01 26.58 31.24 23.1 31.24ZM18.13 28.43C22.34 31.31 25.62 29.95 27.14 28.94C24.1 28.09 21.95 24.66 20.96 22.72C20.19 24.79 18.73 27.4 18.13 28.43Z" fill=""/>
<path d="M7.53002 1.30005H35.63C35.63 1.30005 39.45 11.13 40.24 13.32C41.1 15.71 42.24 21.54 39.54 25.46C39.2 25.95 37.07 28.1201 35.08 29.6301C33.71 30.6701 31.88 30.9001 30.29 30.2401C29.77 30.0201 29.24 29.8001 28.81 29.6101C26.79 28.7101 23.83 27.01 22.4 24.3C22.03 23.6 21.01 23.63 20.66 24.35C19.81 26.12 18.16 28.4001 14.96 30.5801C13.89 31.3101 12.55 31.1901 11.29 30.8101C7.18001 29.5901 2.41002 26.3 1.75002 23.03C0.890017 18.79 2.23002 14.37 2.23002 14.37C2.23002 14.37 2.74002 9.98005 7.53002 1.30005Z" fill="white"/>
<path d="M13.1 31.68C12.5 31.68 11.84 31.57 11.12 31.36C6.80001 30.07 1.91001 26.65 1.20001 23.16C0.320008 18.83 1.64001 14.42 1.70001 14.23C1.70001 14.14 2.26001 9.72002 7.05001 1.05002C7.15001 0.87002 7.33001 0.77002 7.53001 0.77002H35.63C35.86 0.77002 36.06 0.910019 36.14 1.12002C36.18 1.22002 39.97 10.98 40.75 13.15C41.76 15.96 42.74 21.78 39.99 25.79C39.59 26.38 37.37 28.59 35.41 30.09C33.89 31.24 31.85 31.51 30.07 30.78C29.54 30.56 29.01 30.34 28.58 30.15C26.35 29.16 23.38 27.39 21.91 24.6C21.81 24.4 21.61 24.39 21.54 24.39C21.48 24.39 21.26 24.41 21.16 24.63C20.01 27.03 18.02 29.2 15.27 31.08C14.65 31.47 13.93 31.68 13.1 31.68ZM7.85002 1.85002C3.33002 10.11 2.77001 14.4 2.77001 14.44C2.74001 14.58 1.46001 18.88 2.28001 22.93C2.90001 25.98 7.51001 29.13 11.44 30.29C12.83 30.71 13.88 30.66 14.64 30.13C17.2 28.39 19.11 26.31 20.16 24.11C20.41 23.59 20.93 23.26 21.51 23.25C21.52 23.25 21.53 23.25 21.54 23.25C22.1 23.25 22.61 23.55 22.87 24.05C24.2 26.56 26.95 28.19 29.02 29.11C29.44 29.3 29.97 29.52 30.49 29.73C31.9 30.31 33.53 30.1 34.74 29.19C36.72 27.68 38.8 25.54 39.08 25.14C41.59 21.49 40.59 15.93 39.71 13.5C39.02 11.58 35.93 3.62002 35.25 1.85002H7.85002Z" fill=""/>
</svg>
