<?xml version="1.0" encoding="utf-8"?><svg viewBox="0 0 64 47.97" xmlns="http://www.w3.org/2000/svg" xmlns:xlink="http://www.w3.org/1999/xlink"><style>:root>svg{display:none}:root>svg:target{display:block}</style><svg fill="none" viewBox="0 0 26 26" id="account" xmlns="http://www.w3.org/2000/svg"><path d="M13 0C5.82 0 0 5.82 0 13s5.82 13 13 13 13-5.82 13-13C25.992 5.824 20.176.008 13 0zm0 1.238c6.487-.009 11.753 5.243 11.762 11.73a11.75 11.75 0 01-1.9 6.42c-4.678-5.446-12.885-6.07-18.332-1.391-.498.428-.964.894-1.392 1.392C-.399 13.95 1.142 6.675 6.58 3.138A11.75 11.75 0 0113 1.238zm0 23.524a11.744 11.744 0 01-9.112-4.336c4.099-5.033 11.5-5.79 16.533-1.691.62.505 1.186 1.07 1.691 1.69A11.746 11.746 0 0113 24.763z" fill="#343434"/><path d="M13 13a4.333 4.333 0 100-8.667A4.333 4.333 0 0013 13zm0-7.429a3.095 3.095 0 110 6.19 3.095 3.095 0 010-6.19z" fill="#343434"/></svg><svg viewBox="0 0 47.971 47.971" id="close" xmlns="http://www.w3.org/2000/svg"><path d="M28.228 23.986L47.092 5.122a2.998 2.998 0 000-4.242 2.998 2.998 0 00-4.242 0L23.986 19.744 5.121.88a2.998 2.998 0 00-4.242 0 2.998 2.998 0 000 4.242l18.865 18.864L.879 42.85a2.998 2.998 0 104.242 4.241l18.865-18.864L42.85 47.091c.586.586 1.354.879 2.121.879s1.535-.293 2.121-.879a2.998 2.998 0 000-4.242L28.228 23.986z"/></svg><svg fill="none" viewBox="0 0 18 19" id="download_icon" xmlns="http://www.w3.org/2000/svg"><g fill="#E30613"><path d="M9 12.972a.563.563 0 01-.563-.562V.785a.563.563 0 011.126 0V12.41c0 .31-.253.562-.563.562z"/><path d="M9 12.972a.558.558 0 01-.398-.165l-3-3a.563.563 0 01.796-.796l2.603 2.603 2.602-2.603a.563.563 0 01.796.796l-3 3a.564.564 0 01-.399.165z"/><path d="M15.937 18.222H2.063A2.064 2.064 0 010 16.16v-3.374a.563.563 0 011.125 0v3.375c0 .516.42.937.938.937h13.874c.517 0 .938-.42.938-.938v-3.374a.563.563 0 011.125 0v3.375a2.064 2.064 0 01-2.063 2.062z"/></g></svg><svg fill="none" viewBox="0 0 40 40" id="facebook" xmlns="http://www.w3.org/2000/svg"><path d="M20 0C8.954 0 0 8.954 0 20s8.954 20 20 20 20-8.954 20-20S31.046 0 20 0zm5.876 11.464h-2.858c-.601-.04-1.222.42-1.332 1.021-.013 1.042-.006 2.082-.006 3.123 1.396.007 2.793 0 4.19.007a57.902 57.902 0 01-.51 4.494c-1.236.013-2.47 0-3.706.006-.013 4.442.007 8.878-.006 13.32-1.837.006-3.666-.007-5.503.006-.032-4.442 0-8.884-.02-13.326-.891-.006-1.79.007-2.682-.006.006-1.494 0-2.987 0-4.475.892-.013 1.79 0 2.683-.006.026-1.448-.026-2.903.026-4.352.097-1.157.53-2.314 1.39-3.11 1.041-.989 2.515-1.325 3.912-1.364 1.474-.013 2.949-.006 4.422-.006.006 1.558.006 3.11 0 4.668z" fill="#7C7C7D"/></svg><svg fill="none" viewBox="0 0 40 40" id="insta" xmlns="http://www.w3.org/2000/svg"><path d="M25.211 9.925H14.69A4.78 4.78 0 009.914 14.7v10.618a4.78 4.78 0 004.775 4.776h10.522a4.78 4.78 0 004.776-4.776V14.7a4.78 4.78 0 00-4.776-4.775zm-5.24 16.442c-3.57 0-6.473-2.873-6.473-6.404 0-3.53 2.904-6.403 6.472-6.403 3.57 0 6.473 2.873 6.473 6.403 0 3.531-2.904 6.404-6.473 6.404zm6.587-11.546a1.523 1.523 0 110-3.046 1.523 1.523 0 010 3.046z" fill="#7C7C7D"/><path d="M20 0C8.954 0 0 8.954 0 20s8.954 20 20 20 20-8.954 20-20S31.046 0 20 0zm12.349 25.318c0 3.936-3.202 7.138-7.138 7.138H14.69c-3.935 0-7.137-3.202-7.137-7.138V14.7c0-3.936 3.202-7.138 7.137-7.138h10.522c3.936 0 7.138 3.202 7.138 7.138v10.618z" fill="#7C7C7D"/><path d="M19.97 15.918c-2.269 0-4.115 1.815-4.115 4.046 0 2.23 1.846 4.046 4.115 4.046 2.27 0 4.115-1.815 4.115-4.046 0-2.231-1.845-4.046-4.115-4.046z" fill="#7C7C7D"/></svg><svg fill="none" viewBox="0 0 40 43" id="linked" xmlns="http://www.w3.org/2000/svg"><path d="M20 .867c-11.046 0-20 9.37-20 20.928 0 11.558 8.954 20.928 20 20.928s20-9.37 20-20.928C40 10.237 31.046.867 20 .867zm-5.355 30.685H9.82V16.366h4.825v15.186zm-2.412-17.259H12.2c-1.618 0-2.667-1.167-2.667-2.625 0-1.49 1.08-2.624 2.731-2.624 1.652 0 2.667 1.134 2.698 2.624 0 1.458-1.046 2.625-2.73 2.625zm19.81 17.26H27.22v-8.126c0-2.04-.698-3.433-2.444-3.433-1.333 0-2.127.938-2.476 1.846-.127.325-.16.777-.16 1.231v8.481h-4.826s.065-13.76 0-15.186h4.825v2.152c.641-1.033 1.786-2.51 4.35-2.51 3.175 0 5.555 2.171 5.555 6.836v8.708z" fill="#7C7C7D"/></svg><svg fill="none" viewBox="0 0 16 10" id="mail_icon" xmlns="http://www.w3.org/2000/svg"><path d="M15.18 0H.82C.37 0 0 .341 0 .758v8.33c0 .417.37.758.82.758h14.36c.45 0 .82-.34.82-.757V.758C16 .34 15.63 0 15.18 0zm-.308.568l-6.4 4.43A.849.849 0 018 5.13.846.846 0 017.528 5L1.128.568h13.744zm-3.419 4.723l3.487 3.977.012.01H1.048l.012-.01L4.547 5.29a.27.27 0 00-.046-.4.325.325 0 00-.432.043L.616 8.87V.923l6.543 4.53c.246.17.545.244.841.245.295 0 .595-.075.84-.245l6.544-4.53v7.948l-3.453-3.937a.325.325 0 00-.432-.043.27.27 0 00-.046.4z" fill="#fff"/></svg><svg fill="none" viewBox="0 0 16 10" id="mail_icon_red" xmlns="http://www.w3.org/2000/svg"><path d="M15.18 0H.82C.37 0 0 .341 0 .758v8.33c0 .417.37.758.82.758h14.36c.45 0 .82-.34.82-.757V.758C16 .34 15.63 0 15.18 0zm-.308.568l-6.4 4.43A.849.849 0 018 5.13.846.846 0 017.528 5L1.128.568h13.744zm-3.419 4.723l3.487 3.977.012.01H1.048l.012-.01L4.547 5.29a.27.27 0 00-.046-.4.325.325 0 00-.432.043L.616 8.87V.923l6.543 4.53c.246.17.545.244.841.245.295 0 .595-.075.84-.245l6.544-4.53v7.948l-3.453-3.937a.325.325 0 00-.432-.043.27.27 0 00-.046.4z" fill="#E30613"/></svg><svg fill="none" viewBox="0 0 9 16" id="phone_icon" xmlns="http://www.w3.org/2000/svg"><path d="M3.138.8h2.614c.144 0 .261.12.261.266a.264.264 0 01-.261.267H3.138a.264.264 0 01-.262-.267c0-.147.117-.266.262-.266zM1.307.8h.262c.144 0 .261.12.261.266a.264.264 0 01-.261.267h-.262a.264.264 0 01-.261-.267c0-.147.117-.266.261-.266zM4.12 13.6h.65a.73.73 0 01.72.736v.128a.73.73 0 01-.72.736h-.65a.73.73 0 01-.72-.736v-.128c-.001-.406.322-.736.72-.736zm-.198.864a.2.2 0 00.198.203h.65a.2.2 0 00.198-.203v-.128a.2.2 0 00-.199-.203H4.12a.2.2 0 00-.198.203v.128z" fill="#fff"/><path d="M.945 0h6.999c.521 0 .945.432.945.964v14.072a.956.956 0 01-.945.964H.945A.956.956 0 010 15.036V.964C0 .433.424 0 .945 0zM.523 15.036c0 .237.19.43.422.43h6.999a.427.427 0 00.422-.43V.964c0-.237-.19-.43-.422-.43H.945a.427.427 0 00-.422.43v14.072z" fill="#fff"/><path d="M.262 1.6h8.366c.144 0 .261.12.261.267v11.2a.264.264 0 01-.261.266H.262A.264.264 0 010 13.067v-11.2C0 1.719.117 1.6.262 1.6zm.261 11.2h7.843V2.134H.523V12.8z" fill="#fff"/></svg><svg fill="none" viewBox="0 0 9 16" id="phone_icon_red" xmlns="http://www.w3.org/2000/svg"><path d="M3.248.8h2.615c.144 0 .261.12.261.266a.264.264 0 01-.261.267H3.248a.264.264 0 01-.26-.267C2.986.92 3.103.8 3.247.8zM1.418.8h.261c.145 0 .262.12.262.266a.264.264 0 01-.262.267h-.26a.264.264 0 01-.262-.267c0-.147.117-.266.261-.266zM4.231 13.6h.65a.73.73 0 01.72.736v.128a.73.73 0 01-.72.736h-.65a.73.73 0 01-.72-.736v-.128c-.001-.406.322-.736.72-.736zm-.198.864a.2.2 0 00.198.203h.65a.2.2 0 00.198-.203v-.128a.2.2 0 00-.199-.203h-.649a.2.2 0 00-.198.203v.128z" fill="#E30613"/><path d="M1.056 0h6.999C8.576 0 9 .432 9 .964v14.072a.956.956 0 01-.945.964H1.056a.956.956 0 01-.945-.964V.964C.11.433.535 0 1.056 0zM.634 15.036c0 .237.19.43.422.43h6.999a.427.427 0 00.422-.43V.964c0-.237-.19-.43-.422-.43H1.056a.427.427 0 00-.422.43v14.072z" fill="#E30613"/><path d="M.372 1.6H8.74c.144 0 .261.12.261.267v11.2a.264.264 0 01-.261.266H.372a.264.264 0 01-.26-.266v-11.2c0-.148.116-.267.26-.267zm.262 11.2h7.843V2.134H.634V12.8z" fill="#E30613"/></svg><svg fill="none" viewBox="0 0 12 16" id="pin_icon" xmlns="http://www.w3.org/2000/svg"><path d="M6 0c3.308 0 6 2.651 6 5.91 0 1.073-.488 2.227-.51 2.276a9.508 9.508 0 01-.693 1.278l-4.114 6.14C6.515 15.856 6.266 16 6 16c-.267 0-.516-.144-.684-.396L1.2 9.465a9.446 9.446 0 01-.693-1.278C.488 8.138 0 6.984 0 5.91 0 2.651 2.692 0 6 0zM1.16 7.916c.14.33.43.864.632 1.165l4.114 6.14c.081.122.107.122.188 0l4.114-6.14c.202-.301.492-.835.633-1.165.005-.014.453-1.076.453-2.006C11.294 3.035 8.92.695 6 .695 3.08.695.706 3.035.706 5.91c0 .93.449 1.996.453 2.006z" fill="#E30613"/><path d="M6 2.782c1.751 0 3.176 1.403 3.176 3.129C9.176 7.636 7.751 9.04 6 9.04c-1.751 0-3.176-1.404-3.176-3.13 0-1.725 1.425-3.128 3.176-3.128zm0 5.563c1.362 0 2.47-1.092 2.47-2.434S7.363 3.477 6 3.477 3.53 4.57 3.53 5.911 4.637 8.345 6 8.345z" fill="#E30613"/></svg><svg fill="none" viewBox="0 0 64 40" id="track" xmlns="http://www.w3.org/2000/svg"><path d="M8 23.974a1 1 0 011 1v7.007h1.591a6.32 6.32 0 0112.56 0H44v-29H9v3.145a1 1 0 01-2 0V1.98a1 1 0 011-1h37a1 1 0 011 1v1h11.452A4.554 4.554 0 0162 7.529V8.98a1 1 0 01-1 1h-1.163l.763 9.165a4.545 4.545 0 013.4 4.383v8.452a1 1 0 01-1 1h-2.025a6.494 6.494 0 01-12.95 0c-.009 0-.016.005-.025.005h-2a1 1 0 01-1 1H23.06a6.322 6.322 0 01-12.378 0H8a1 1 0 01-1-1v-8.012a1 1 0 011-1zM54.5 36.98a4.5 4.5 0 100-9 4.5 4.5 0 000 9zm-8.5-6h2a.928.928 0 01.173.035 6.492 6.492 0 0112.645-.035H62v-7.452a2.551 2.551 0 00-2.548-2.548H46v10zm0-12h12.58l-.75-9H46v9zm0-11h14v-.452a2.551 2.551 0 00-2.548-2.548H46v3zM12.556 32.94a4.314 4.314 0 004.314 4.072h.001a4.321 4.321 0 004.248-3.583.9.9 0 01.051-.973 4.314 4.314 0 00-8.614.484z" fill="#E30613"/><path d="M9 8.98h14a1 1 0 010 2H9a1 1 0 010-2zM7 19.98h22a1 1 0 010 2H7a1 1 0 010-2zM9 13.98h11a1 1 0 010 2H9a1 1 0 010-2zM5 10.98H3a1 1 0 010-2h2a1 1 0 010 2zM2 19.98h2a1 1 0 010 2H2a1 1 0 010-2zM1 13.98h4a1 1 0 010 2H1a1 1 0 010-2z" fill="#E30613"/></svg><svg fill="none" viewBox="0 0 40 40" id="youtube" xmlns="http://www.w3.org/2000/svg"><path d="M17.73 22.927l6.194-3.286-6.194-3.219v6.505z" fill="#7C7C7D"/><path d="M20 0C8.954 0 0 8.954 0 20s8.954 20 20 20 20-8.954 20-20S31.046 0 20 0zm11.167 24.658c-.267 1.687-1.082 2.604-2.797 2.797-1.917.217-6.227.317-8.143.317-1.982 0-5.99-.083-7.991-.25-1.72-.143-2.894-1.104-3.13-2.814-.173-1.245-.284-2.725-.284-5.078 0-2.62.095-3.728.317-4.912.316-1.689 1.123-2.507 2.963-2.697 1.931-.2 3.757-.3 7.842-.3 1.998 0 6.303.104 8.292.283 1.737.157 2.716 1.22 2.93 2.914.15 1.182.284 2.875.284 4.695 0 3.197-.283 5.045-.283 5.045z" fill="#7C7C7D"/></svg></svg>