<?xml version="1.0" encoding="utf-8"?><svg viewBox="0 0 64 47.97" xmlns="http://www.w3.org/2000/svg" xmlns:xlink="http://www.w3.org/1999/xlink"><style>:root>svg{display:none}:root>svg:target{display:block}</style><svg fill="none" viewBox="0 0 26 26" id="account" xmlns="http://www.w3.org/2000/svg"><path d="M13 0C5.82 0 0 5.82 0 13s5.82 13 13 13 13-5.82 13-13C25.992 5.824 20.176.008 13 0zm0 1.238c6.487-.009 11.753 5.243 11.762 11.73a11.75 11.75 0 01-1.9 6.42c-4.678-5.446-12.885-6.07-18.332-1.391-.498.428-.964.894-1.392 1.392C-.399 13.95 1.142 6.675 6.58 3.138A11.75 11.75 0 0113 1.238zm0 23.524a11.744 11.744 0 01-9.112-4.336c4.099-5.033 11.5-5.79 16.533-1.691.62.505 1.186 1.07 1.691 1.69A11.746 11.746 0 0113 24.763z" fill="#343434"/><path d="M13 13a4.333 4.333 0 100-8.667A4.333 4.333 0 0013 13zm0-7.429a3.095 3.095 0 110 6.19 3.095 3.095 0 010-6.19z" fill="#343434"/></svg><svg viewBox="0 0 21 31" id="b1" xmlns="http://www.w3.org/2000/svg"><path d="M2.3.79h16.11c.92 0 1.66.76 1.63 1.68-.18 5.3-.95 21.63-3.43 27.43H4.42S.63 23.98.68 2.41C.67 1.51 1.4.79 2.3.79z" fill="#fff"/><path d="M16.6 30.41H4.41c-.18 0-.34-.09-.43-.24C3.82 29.92.11 23.87.16 2.4c0-1.18.97-2.14 2.15-2.14h16.11c.59 0 1.14.23 1.55.66.41.42.62.97.6 1.56-.22 6.39-1.01 21.87-3.47 27.62-.11.19-.29.31-.5.31zM4.72 29.38h11.54c2.36-6.01 3.09-22.08 3.26-26.93.01-.3-.1-.59-.31-.81-.21-.22-.5-.34-.8-.34H2.3c-.61 0-1.11.5-1.11 1.1-.05 18.8 2.87 25.68 3.53 26.98z"/></svg><svg viewBox="0 0 24 35" id="b2" xmlns="http://www.w3.org/2000/svg"><path d="M3.64.91h17c1.44 0 2.62 1.14 2.67 2.58.18 4.86.11 16.09-3.24 29.35l-14.33.94S1.06 28.28.96 3.61c0-1.49 1.2-2.7 2.68-2.7z" fill="#fff"/><path d="M5.75 34.36a.55.55 0 01-.44-.21C5.11 33.92.49 28.2.39 3.6c0-.88.34-1.7.95-2.32C1.96.66 2.78.32 3.65.32h17c1.76 0 3.19 1.38 3.26 3.14.2 5.41.04 16.44-3.26 29.52-.06.25-.27.42-.53.44l-14.33.94h-.04zM3.64 1.49c-.56 0-1.08.22-1.48.62-.4.4-.62.93-.62 1.5.09 21.43 3.69 28.31 4.49 29.57l13.58-.89c3.17-12.76 3.32-23.49 3.12-28.78a2.088 2.088 0 00-2.09-2.02h-17z"/></svg><svg viewBox="0 0 30 40" id="b3" xmlns="http://www.w3.org/2000/svg"><path d="M5.33 38.88h19.79s5.13-16.84 3.39-27.99c-.07-.48-.23-.94-.45-1.36-.8-1.52-3.12-5.14-8.34-8.18a5.793 5.793 0 00-5.25-.29C10.3 2.91 2.53 7.14 1.17 13.43c-.08.36-.1.73-.09 1.1.06 2.69.52 14.55 4.25 24.35z" fill="#fff"/><path d="M25.13 39.43H5.34c-.23 0-.43-.14-.51-.36C1.03 29.1.59 16.88.54 14.53c-.01-.45.02-.85.1-1.23C2.04 6.83 9.77 2.53 14.25.54c1.85-.82 4-.7 5.75.32 5.38 3.13 7.77 6.91 8.55 8.4.25.48.42 1 .51 1.54 1.74 11.15-3.2 27.55-3.41 28.24-.07.24-.28.39-.52.39zm-19.42-1.1h19c.74-2.58 4.81-17.39 3.26-27.36-.07-.42-.2-.82-.4-1.19-.74-1.4-3-4.97-8.13-7.96a5.275 5.275 0 00-4.75-.27C10.4 3.45 3 7.54 1.71 13.53c-.06.29-.09.6-.08.97.05 2.3.47 14.09 4.08 23.83z"/></svg><svg viewBox="0 0 30 35" id="b4" xmlns="http://www.w3.org/2000/svg"><path d="M6.36 33.85h16.17s7.29-9.41 5.7-18.82C26.98 7.64 19.76 3.02 16.72 1.39a3.55 3.55 0 00-2.87-.22C10.92 2.18 4.49 5.14 1.4 12.24a8.736 8.736 0 00-.71 3.31c-.05 3.37.46 11.18 5.67 18.3z" fill="#fff"/><path d="M22.54 34.4H6.37c-.18 0-.34-.08-.44-.23C.55 26.82.1 18.69.16 15.53c.02-1.23.28-2.41.75-3.52C4.12 4.62 10.91 1.59 13.68.64c1.1-.38 2.3-.29 3.31.26 3.12 1.68 10.5 6.41 11.79 14.04 1.61 9.54-5.5 18.86-5.81 19.25-.1.13-.26.21-.43.21zM6.65 33.3h15.61c1.04-1.44 6.84-9.89 5.43-18.18-1.21-7.15-8.26-11.65-11.23-13.25-.74-.4-1.62-.46-2.43-.19-2.63.91-9.09 3.78-12.12 10.77-.42.97-.64 2.01-.66 3.1-.05 3.02.37 10.73 5.4 17.75z"/></svg><svg viewBox="0 0 31 33" id="b5" xmlns="http://www.w3.org/2000/svg"><path d="M7.13 31.97H24.1s10.07-14.99 4.51-22.54C23.04 1.88 17.12.22 11.29 1.32 5.46 2.43 2.1 5.59 1.04 14.4c-.01-.01-.54 10.55 6.09 17.57z" fill="#fff"/><path d="M24.09 32.51H7.12c-.15 0-.29-.06-.39-.17C.02 25.24.46 14.81.48 14.37 1.49 5.96 4.59 2.04 11.17.79 18.09-.52 23.93 2.2 29.03 9.11c5.73 7.77-4.07 22.54-4.49 23.17-.1.14-.27.23-.45.23zM7.36 31.43H23.8c1.24-1.93 9.27-15.03 4.36-21.68-4.82-6.54-10.31-9.12-16.78-7.9-5.1.97-8.71 3.48-9.81 12.61-.01.06-.43 10.2 5.79 16.97z"/></svg><svg viewBox="0 0 38 30" id="b6" xmlns="http://www.w3.org/2000/svg"><path d="M16.94 4.42s4.3-4.75 10.26 0c0 0-2.75 4.98-3.19 7.4-.01 0-2.74-7.31-7.07-7.4z" fill="#E1E1E1"/><path d="M24 12.35c-.22 0-.42-.14-.5-.34-.03-.07-2.66-6.97-6.58-7.06a.536.536 0 01-.39-.89C16.58 4.01 21.24-1 27.51 4c.2.16.26.44.13.67-.03.05-2.71 4.93-3.13 7.24a.52.52 0 01-.47.43c0 .01-.02.01-.04.01zm-5.86-8.27c2.82.83 4.81 4.22 5.75 6.17.73-2.08 2.09-4.69 2.62-5.68-3.91-2.91-6.97-1.5-8.37-.49z"/><path d="M17.65 4.42s-4.3-4.75-10.26 0c0 0 2.75 4.98 3.19 7.4.01 0 2.74-7.31 7.07-7.4z" fill="#E1E1E1"/><path d="M10.59 12.35h-.05a.52.52 0 01-.47-.43c-.42-2.31-3.11-7.19-3.13-7.24a.524.524 0 01.13-.67c6.27-5 10.93.01 10.98.06.14.15.18.38.09.57-.08.19-.27.32-.48.32-3.93.08-6.55 6.99-6.58 7.06-.08.19-.27.33-.49.33zM8.08 4.56c.53.99 1.89 3.6 2.62 5.68.94-1.95 2.93-5.34 5.75-6.17-1.4-1-4.46-2.41-8.37.49z"/><path d="M5.42 28.64h26.69s4.54-7.28 4.51-15.2c-.02-5.09-2.83-9.05-5.43-11.08-1.58-1.24-3.83-1.13-5.3.23-1.23 1.15-2.47 2.76-2.72 4.75 0 0-3.56-5.18-5.72-5.83-2.65-.79-5.13.02-6.12 3.1a.996.996 0 01-1.64.43c-1.14-1.05-2.84-2.09-4.26-.71C1.37 8.29.81 11.81 1.41 14.9c.97 5.07 4.01 13.74 4.01 13.74z" fill="#fff"/><path d="M32.11 29.17H5.42a.53.53 0 01-.5-.35c-.03-.09-3.07-8.76-4.04-13.81C.11 11 1.43 7.49 5.05 3.96c.77-.75 2.44-1.66 4.99.7.12.12.28.16.44.12.16-.04.28-.16.33-.32.99-3.08 3.59-4.39 6.78-3.45 1.74.52 4.12 3.47 5.31 5.06.43-1.35 1.31-2.65 2.62-3.87a4.588 4.588 0 015.99-.26c2.71 2.12 5.62 6.25 5.64 11.5.03 7.98-4.4 15.18-4.59 15.48-.1.16-.27.25-.45.25zM5.8 28.11h26.01c.77-1.33 4.3-7.8 4.28-14.67-.02-4.86-2.71-8.7-5.23-10.67-1.38-1.08-3.32-1-4.61.2-1.51 1.4-2.36 2.89-2.55 4.43-.03.22-.19.4-.4.45a.523.523 0 01-.56-.21c-.96-1.4-3.81-5.14-5.44-5.62-2.66-.79-4.65.21-5.47 2.75-.16.51-.56.89-1.07 1.02s-1.04 0-1.43-.36C7.88 4.08 6.69 3.84 5.8 4.71 2.46 7.97 1.23 11.18 1.93 14.8c.84 4.4 3.29 11.63 3.87 13.31z"/></svg><svg viewBox="0 0 39 29" id="b7" xmlns="http://www.w3.org/2000/svg"><path d="M6.08 27.85h26.16s6.36-13.64 5.87-17.09c-.48-3.35-2.16-9.33-8.78-9.51-4.44-.12-6.3 1.07-7.66 3.22-.71 1.12-2.38 1.15-3.09.02-.5-.8-1.22-1.66-2.23-2.51-1.15-.97-2.69-1.39-4.2-1.41C10.04.55 6.91 1 4.67 3.45c-.49.53-2.42 2.16-3.3 4.9C.93 9.71.85 11 .83 11.67c0 0-.03 1.09.15 2.28.31 2.05 2.13 7.23 5.1 13.9z" fill="#fff"/><path d="M32.24 28.38H6.08c-.21 0-.4-.12-.48-.31C2.83 21.85.81 16.35.46 14.04.27 12.82.3 11.72.3 11.67c.02-.84.14-2.13.57-3.47.8-2.49 2.39-4.07 3.16-4.84l.26-.26C6.65.53 9.87-.01 12.17.05c1.77.02 3.38.56 4.53 1.53.96.81 1.74 1.69 2.34 2.63.24.37.63.58 1.08.58.46 0 .87-.23 1.11-.61C22.6 2.01 24.5.59 29.35.71c5.09.14 8.39 3.68 9.29 9.97.51 3.57-5.65 16.83-5.91 17.39a.54.54 0 01-.49.31zM6.43 27.32H31.9c1.84-3.98 6.06-13.85 5.68-16.48-.58-4.05-2.49-8.9-8.27-9.06-4.34-.11-5.98 1.05-7.19 2.97-.43.69-1.19 1.1-2.01 1.1-.81 0-1.55-.4-1.98-1.08-.54-.85-1.25-1.65-2.12-2.39-.96-.81-2.33-1.26-3.86-1.28-2.11-.04-5 .43-7.09 2.71-.07.08-.17.18-.29.3-.71.7-2.18 2.17-2.9 4.41-.39 1.22-.5 2.39-.52 3.17 0 .01-.02 1.06.15 2.18.28 1.8 1.91 6.64 4.93 13.45z"/></svg><svg viewBox="0 0 41 29" id="b8" xmlns="http://www.w3.org/2000/svg"><path d="M13.95 3.36s4.3-4.75 10.26 0c0 0-2.75 4.98-3.19 7.4 0 0-2.74-7.31-7.07-7.4z" fill="#E1E1E1"/><path d="M21.02 11.29c-.22 0-.42-.14-.5-.34-.03-.07-2.66-6.97-6.58-7.06a.536.536 0 01-.39-.89c.05-.05 4.71-5.06 10.98-.06.2.16.26.44.13.67-.03.05-2.71 4.93-3.13 7.24a.52.52 0 01-.47.43c-.01.01-.03.01-.04.01zm-5.86-8.27c2.82.83 4.81 4.22 5.75 6.17.73-2.08 2.09-4.69 2.62-5.68-3.92-2.91-6.98-1.49-8.37-.49z"/><path d="M8.61 27.85H33.8s8.29-9.28 5.87-17.76c-2.08-7.28-7.26-8.9-8.68-9.21-.25-.05-.49-.07-.74-.06-1.32.06-5.83.6-8.13 5.13-.27.54-1.04.48-1.28-.07-.66-1.47-2.25-3.31-6.03-4.63a7.375 7.375 0 00-3.36-.34c-2.2.29-5.81 1.35-8.31 5.01-.24.35-.43.73-.58 1.13-.46 1.2-1.99 4.1-.84 7.28 2.71 7.49 6.89 13.52 6.89 13.52z" fill="#fff"/><path d="M33.8 28.38H8.61c-.17 0-.34-.08-.44-.23-.04-.06-4.25-6.18-6.96-13.65-1.09-3.02.05-5.74.66-7.2.07-.17.13-.32.19-.45.18-.47.39-.88.64-1.24C5.36 1.7 9.28.65 11.38.37c1.2-.16 2.45-.03 3.6.37 4.05 1.41 5.68 3.45 6.34 4.91.06.13.16.14.2.13.09 0 .12-.06.13-.08C24.08.92 28.83.34 30.23.28c.3-.02.59.01.88.07 1.59.35 6.93 2.07 9.08 9.58 2.47 8.67-5.64 17.87-5.98 18.26-.12.13-.26.19-.41.19zM8.89 27.32h24.66c1.1-1.31 7.74-9.61 5.6-17.09-1.99-6.95-6.85-8.52-8.29-8.84-.19-.04-.4-.06-.6-.05-1.25.06-5.51.57-7.68 4.84-.21.42-.63.64-1.11.66-.49-.01-.93-.3-1.13-.76-.57-1.27-2.03-3.06-5.72-4.34-1-.35-2.07-.46-3.11-.32-2.35.31-5.63 1.39-7.94 4.78-.2.29-.37.63-.52 1.02-.05.14-.12.3-.2.48-.56 1.33-1.59 3.8-.64 6.43 2.37 6.55 5.91 12.03 6.68 13.19z"/></svg><svg fill="none" viewBox="0 0 40 37" id="clip" xmlns="http://www.w3.org/2000/svg"><path d="M10.833 36.667a8.834 8.834 0 01-6.28-2.601L2.6 32.114a8.88 8.88 0 010-12.558L18.578 3.577a.833.833 0 111.178 1.179L3.78 20.732a7.215 7.215 0 000 10.202l1.954 1.953a7.215 7.215 0 0010.202 0L36.81 12.012a5.203 5.203 0 000-7.357L35.345 3.19a5.333 5.333 0 00-7.357 0L9.268 21.91a3.19 3.19 0 000 4.512l.976.977a3.302 3.302 0 004.512 0l13.822-13.822a.833.833 0 111.178 1.178L15.935 28.577a5.023 5.023 0 01-6.869 0l-.977-.976a4.857 4.857 0 010-6.869l18.72-18.72a6.869 6.869 0 019.714 0l1.465 1.465a6.868 6.868 0 010 9.713L17.113 34.066a8.834 8.834 0 01-6.28 2.601z" fill="#7C7C7D"/></svg><svg viewBox="0 0 47.971 47.971" id="close" xmlns="http://www.w3.org/2000/svg"><path d="M28.228 23.986L47.092 5.122a2.998 2.998 0 000-4.242 2.998 2.998 0 00-4.242 0L23.986 19.744 5.121.88a2.998 2.998 0 00-4.242 0 2.998 2.998 0 000 4.242l18.865 18.864L.879 42.85a2.998 2.998 0 104.242 4.241l18.865-18.864L42.85 47.091c.586.586 1.354.879 2.121.879s1.535-.293 2.121-.879a2.998 2.998 0 000-4.242L28.228 23.986z"/></svg><svg fill="none" viewBox="0 0 18 19" id="download_icon" xmlns="http://www.w3.org/2000/svg"><g fill="#E30613"><path d="M9 12.972a.563.563 0 01-.563-.562V.785a.563.563 0 011.126 0V12.41c0 .31-.253.562-.563.562z"/><path d="M9 12.972a.558.558 0 01-.398-.165l-3-3a.563.563 0 01.796-.796l2.603 2.603 2.602-2.603a.563.563 0 01.796.796l-3 3a.564.564 0 01-.399.165z"/><path d="M15.937 18.222H2.063A2.064 2.064 0 010 16.16v-3.374a.563.563 0 011.125 0v3.375c0 .516.42.937.938.937h13.874c.517 0 .938-.42.938-.938v-3.374a.563.563 0 011.125 0v3.375a2.064 2.064 0 01-2.063 2.062z"/></g></svg><svg fill="none" viewBox="0 0 40 40" id="facebook" xmlns="http://www.w3.org/2000/svg"><path d="M20 0C8.954 0 0 8.954 0 20s8.954 20 20 20 20-8.954 20-20S31.046 0 20 0zm5.876 11.464h-2.858c-.601-.04-1.222.42-1.332 1.021-.013 1.042-.006 2.082-.006 3.123 1.396.007 2.793 0 4.19.007a57.902 57.902 0 01-.51 4.494c-1.236.013-2.47 0-3.706.006-.013 4.442.007 8.878-.006 13.32-1.837.006-3.666-.007-5.503.006-.032-4.442 0-8.884-.02-13.326-.891-.006-1.79.007-2.682-.006.006-1.494 0-2.987 0-4.475.892-.013 1.79 0 2.683-.006.026-1.448-.026-2.903.026-4.352.097-1.157.53-2.314 1.39-3.11 1.041-.989 2.515-1.325 3.912-1.364 1.474-.013 2.949-.006 4.422-.006.006 1.558.006 3.11 0 4.668z" fill="#7C7C7D"/></svg><svg fill="none" viewBox="0 0 40 40" id="insta" xmlns="http://www.w3.org/2000/svg"><path d="M25.211 9.925H14.69A4.78 4.78 0 009.914 14.7v10.618a4.78 4.78 0 004.775 4.776h10.522a4.78 4.78 0 004.776-4.776V14.7a4.78 4.78 0 00-4.776-4.775zm-5.24 16.442c-3.57 0-6.473-2.873-6.473-6.404 0-3.53 2.904-6.403 6.472-6.403 3.57 0 6.473 2.873 6.473 6.403 0 3.531-2.904 6.404-6.473 6.404zm6.587-11.546a1.523 1.523 0 110-3.046 1.523 1.523 0 010 3.046z" fill="#7C7C7D"/><path d="M20 0C8.954 0 0 8.954 0 20s8.954 20 20 20 20-8.954 20-20S31.046 0 20 0zm12.349 25.318c0 3.936-3.202 7.138-7.138 7.138H14.69c-3.935 0-7.137-3.202-7.137-7.138V14.7c0-3.936 3.202-7.138 7.137-7.138h10.522c3.936 0 7.138 3.202 7.138 7.138v10.618z" fill="#7C7C7D"/><path d="M19.97 15.918c-2.269 0-4.115 1.815-4.115 4.046 0 2.23 1.846 4.046 4.115 4.046 2.27 0 4.115-1.815 4.115-4.046 0-2.231-1.845-4.046-4.115-4.046z" fill="#7C7C7D"/></svg><svg fill="none" viewBox="0 0 40 43" id="linked" xmlns="http://www.w3.org/2000/svg"><path d="M20 .867c-11.046 0-20 9.37-20 20.928 0 11.558 8.954 20.928 20 20.928s20-9.37 20-20.928C40 10.237 31.046.867 20 .867zm-5.355 30.685H9.82V16.366h4.825v15.186zm-2.412-17.259H12.2c-1.618 0-2.667-1.167-2.667-2.625 0-1.49 1.08-2.624 2.731-2.624 1.652 0 2.667 1.134 2.698 2.624 0 1.458-1.046 2.625-2.73 2.625zm19.81 17.26H27.22v-8.126c0-2.04-.698-3.433-2.444-3.433-1.333 0-2.127.938-2.476 1.846-.127.325-.16.777-.16 1.231v8.481h-4.826s.065-13.76 0-15.186h4.825v2.152c.641-1.033 1.786-2.51 4.35-2.51 3.175 0 5.555 2.171 5.555 6.836v8.708z" fill="#7C7C7D"/></svg><svg fill="none" viewBox="0 0 16 10" id="mail_icon" xmlns="http://www.w3.org/2000/svg"><path d="M15.18 0H.82C.37 0 0 .341 0 .758v8.33c0 .417.37.758.82.758h14.36c.45 0 .82-.34.82-.757V.758C16 .34 15.63 0 15.18 0zm-.308.568l-6.4 4.43A.849.849 0 018 5.13.846.846 0 017.528 5L1.128.568h13.744zm-3.419 4.723l3.487 3.977.012.01H1.048l.012-.01L4.547 5.29a.27.27 0 00-.046-.4.325.325 0 00-.432.043L.616 8.87V.923l6.543 4.53c.246.17.545.244.841.245.295 0 .595-.075.84-.245l6.544-4.53v7.948l-3.453-3.937a.325.325 0 00-.432-.043.27.27 0 00-.046.4z" fill="#fff"/></svg><svg fill="none" viewBox="0 0 16 10" id="mail_icon_red" xmlns="http://www.w3.org/2000/svg"><path d="M15.18 0H.82C.37 0 0 .341 0 .758v8.33c0 .417.37.758.82.758h14.36c.45 0 .82-.34.82-.757V.758C16 .34 15.63 0 15.18 0zm-.308.568l-6.4 4.43A.849.849 0 018 5.13.846.846 0 017.528 5L1.128.568h13.744zm-3.419 4.723l3.487 3.977.012.01H1.048l.012-.01L4.547 5.29a.27.27 0 00-.046-.4.325.325 0 00-.432.043L.616 8.87V.923l6.543 4.53c.246.17.545.244.841.245.295 0 .595-.075.84-.245l6.544-4.53v7.948l-3.453-3.937a.325.325 0 00-.432-.043.27.27 0 00-.046.4z" fill="#E30613"/></svg><svg fill="none" viewBox="0 0 9 16" id="phone_icon" xmlns="http://www.w3.org/2000/svg"><path d="M3.138.8h2.614c.144 0 .261.12.261.266a.264.264 0 01-.261.267H3.138a.264.264 0 01-.262-.267c0-.147.117-.266.262-.266zM1.307.8h.262c.144 0 .261.12.261.266a.264.264 0 01-.261.267h-.262a.264.264 0 01-.261-.267c0-.147.117-.266.261-.266zM4.12 13.6h.65a.73.73 0 01.72.736v.128a.73.73 0 01-.72.736h-.65a.73.73 0 01-.72-.736v-.128c-.001-.406.322-.736.72-.736zm-.198.864a.2.2 0 00.198.203h.65a.2.2 0 00.198-.203v-.128a.2.2 0 00-.199-.203H4.12a.2.2 0 00-.198.203v.128z" fill="#fff"/><path d="M.945 0h6.999c.521 0 .945.432.945.964v14.072a.956.956 0 01-.945.964H.945A.956.956 0 010 15.036V.964C0 .433.424 0 .945 0zM.523 15.036c0 .237.19.43.422.43h6.999a.427.427 0 00.422-.43V.964c0-.237-.19-.43-.422-.43H.945a.427.427 0 00-.422.43v14.072z" fill="#fff"/><path d="M.262 1.6h8.366c.144 0 .261.12.261.267v11.2a.264.264 0 01-.261.266H.262A.264.264 0 010 13.067v-11.2C0 1.719.117 1.6.262 1.6zm.261 11.2h7.843V2.134H.523V12.8z" fill="#fff"/></svg><svg fill="none" viewBox="0 0 9 16" id="phone_icon_red" xmlns="http://www.w3.org/2000/svg"><path d="M3.248.8h2.615c.144 0 .261.12.261.266a.264.264 0 01-.261.267H3.248a.264.264 0 01-.26-.267C2.986.92 3.103.8 3.247.8zM1.418.8h.261c.145 0 .262.12.262.266a.264.264 0 01-.262.267h-.26a.264.264 0 01-.262-.267c0-.147.117-.266.261-.266zM4.231 13.6h.65a.73.73 0 01.72.736v.128a.73.73 0 01-.72.736h-.65a.73.73 0 01-.72-.736v-.128c-.001-.406.322-.736.72-.736zm-.198.864a.2.2 0 00.198.203h.65a.2.2 0 00.198-.203v-.128a.2.2 0 00-.199-.203h-.649a.2.2 0 00-.198.203v.128z" fill="#E30613"/><path d="M1.056 0h6.999C8.576 0 9 .432 9 .964v14.072a.956.956 0 01-.945.964H1.056a.956.956 0 01-.945-.964V.964C.11.433.535 0 1.056 0zM.634 15.036c0 .237.19.43.422.43h6.999a.427.427 0 00.422-.43V.964c0-.237-.19-.43-.422-.43H1.056a.427.427 0 00-.422.43v14.072z" fill="#E30613"/><path d="M.372 1.6H8.74c.144 0 .261.12.261.267v11.2a.264.264 0 01-.261.266H.372a.264.264 0 01-.26-.266v-11.2c0-.148.116-.267.26-.267zm.262 11.2h7.843V2.134H.634V12.8z" fill="#E30613"/></svg><svg fill="none" viewBox="0 0 12 16" id="pin_icon" xmlns="http://www.w3.org/2000/svg"><path d="M6 0c3.308 0 6 2.651 6 5.91 0 1.073-.488 2.227-.51 2.276a9.508 9.508 0 01-.693 1.278l-4.114 6.14C6.515 15.856 6.266 16 6 16c-.267 0-.516-.144-.684-.396L1.2 9.465a9.446 9.446 0 01-.693-1.278C.488 8.138 0 6.984 0 5.91 0 2.651 2.692 0 6 0zM1.16 7.916c.14.33.43.864.632 1.165l4.114 6.14c.081.122.107.122.188 0l4.114-6.14c.202-.301.492-.835.633-1.165.005-.014.453-1.076.453-2.006C11.294 3.035 8.92.695 6 .695 3.08.695.706 3.035.706 5.91c0 .93.449 1.996.453 2.006z" fill="#E30613"/><path d="M6 2.782c1.751 0 3.176 1.403 3.176 3.129C9.176 7.636 7.751 9.04 6 9.04c-1.751 0-3.176-1.404-3.176-3.13 0-1.725 1.425-3.128 3.176-3.128zm0 5.563c1.362 0 2.47-1.092 2.47-2.434S7.363 3.477 6 3.477 3.53 4.57 3.53 5.911 4.637 8.345 6 8.345z" fill="#E30613"/></svg><svg viewBox="0 0 34 42" id="t1" xmlns="http://www.w3.org/2000/svg"><path d="M5.8 41.12h22.99c2.37 0 4.29-1.9 4.31-4.27.03-5.66-.11-15.51-1.39-20.44-1.86-7.16-6.63-13.52-12.19-15.38h-8.48S-1.95 6.04 1.53 37.26a4.287 4.287 0 004.27 3.86z" fill="#fff"/><path d="M28.78 41.67H5.8c-2.48 0-4.56-1.87-4.83-4.35C-2.52 6.04 10.28.73 10.83.52c.06-.02.13-.04.2-.04h8.48c.06 0 .12.01.17.03 5.54 1.85 10.59 8.18 12.55 15.76 1.3 5.01 1.44 15.04 1.41 20.58-.01 2.65-2.19 4.82-4.86 4.82zM11.14 1.58c-1.08.51-12.32 6.58-9.08 35.62a3.768 3.768 0 003.74 3.37h22.99c2.06 0 3.75-1.67 3.76-3.72.03-5.48-.11-15.4-1.37-20.3C29.31 9.36 24.6 3.36 19.43 1.59h-8.29v-.01z"/></svg><svg viewBox="0 0 28 36" id="t2" xmlns="http://www.w3.org/2000/svg"><path d="M2.28 14.26s.8-4.51 5.04-9.28S17.39-.23 21.37 3.3c3.98 3.53 5.3 15.81 5.3 15.81v9.52c0 3.47-2.81 6.29-6.29 6.29H7.14a6.29 6.29 0 01-6.29-6.27c-.02-3.72.25-8.8 1.43-14.39z" fill="#fff"/><path d="M20.38 35.47H7.14c-3.75 0-6.82-3.06-6.84-6.82-.03-4.93.46-9.81 1.44-14.5.05-.3.93-4.77 5.17-9.54C11.2-.21 17.44-.94 21.74 2.88c4.09 3.63 5.43 15.65 5.48 16.16v9.58c0 3.78-3.07 6.85-6.84 6.85zM15.4 1.52c-2.67 0-5.42 1.3-7.67 3.83-4.07 4.59-4.9 8.97-4.91 9.01v.02c-.95 4.55-1.44 9.48-1.41 14.27.02 3.15 2.59 5.72 5.74 5.72h13.24c3.16 0 5.73-2.57 5.73-5.73v-9.52c-.01-.06-1.35-12.04-5.12-15.4-1.66-1.48-3.61-2.2-5.6-2.2z"/></svg><svg viewBox="0 0 31 38" id="t3" xmlns="http://www.w3.org/2000/svg"><path d="M6.48.74h18.29l4.77 15.38c.39 1.63.75 4.19 0 7.07-1.01 3.89-3.5 6.32-6.54 9.28-1.15 1.12-2.7 2.5-4.69 3.93-1.11.79-2.56.95-3.8.4-1.31-.58-2.72-1.36-4.16-2.38-3.18-2.27-6.82-5.98-8.88-11.81-.24-.67-.36-1.38-.39-2.1C.97 17.5 1.19 9.2 6.48.74z" fill="#fff"/><path d="M16.06 37.67c-.6 0-1.21-.12-1.77-.38A24.873 24.873 0 01.97 22.78c-.25-.69-.39-1.45-.42-2.26C.42 17.33.68 8.98 6.02.44c.1-.16.28-.26.47-.26h18.29c.24 0 .45.16.53.39l4.77 15.38c.61 2.57.61 5.04.01 7.37-1.05 4.03-3.66 6.58-6.68 9.53a40.21 40.21 0 01-4.75 3.98c-.78.56-1.69.84-2.6.84zM6.79 1.29C1.77 9.48 1.52 17.42 1.65 20.48c.03.69.15 1.35.36 1.94 1.68 4.75 4.6 8.64 8.68 11.55 1.27.9 2.63 1.69 4.06 2.32 1.06.47 2.31.34 3.26-.34a40.98 40.98 0 004.62-3.87c3.03-2.95 5.42-5.29 6.39-9.02.56-2.16.56-4.45 0-6.8L24.38 1.31H6.79v-.02z"/></svg><svg viewBox="0 0 31 36" id="t4" xmlns="http://www.w3.org/2000/svg"><path d="M8.42 1.07h14.67s5.66 9.54 6.19 13.43c.53 3.89 0 9.69-2.12 12.44-2.12 2.76-8.21 6.98-8.21 6.98s-1.33 1.75-5.04 0c-2.39-1.12-6.25-3.43-9.21-6.37-2.64-2.62-3.9-6.28-3.39-9.96C1.9 13.3 3.6 6.75 8.42 1.07z" fill="#fff"/><path d="M16.86 35.24c-.83 0-1.88-.21-3.19-.83-2.61-1.23-6.44-3.57-9.37-6.48C1.51 25.16.22 21.36.76 17.5 1.38 12.99 3.15 6.42 8.01.7c.1-.12.26-.19.42-.19H23.1c.19 0 .37.1.47.27.23.39 5.72 9.68 6.26 13.64.56 4.1-.03 10-2.23 12.85-2.06 2.68-7.62 6.6-8.28 7.05-.23.25-.98.92-2.46.92zM8.68 1.62C4.12 7.09 2.45 13.35 1.85 17.66c-.49 3.51.69 6.97 3.23 9.5 2.83 2.81 6.53 5.08 9.06 6.26 3.21 1.51 4.33.21 4.38.16.03-.04.08-.08.12-.11.06-.04 6.04-4.2 8.09-6.86 1.94-2.52 2.55-8.1 2.01-12.03-.46-3.38-5.04-11.38-5.96-12.95H8.68v-.01z"/></svg><svg viewBox="0 0 29 34" id="t5" xmlns="http://www.w3.org/2000/svg"><path d="M6.56 1.3h15.8s5.57 11.75 5.83 16.52c.26 4.77-1.99 9.05-7.95 12.87-2.4 1.54-4 2.02-4.77 2.17-.31.06-.61.06-.92.01-1.92-.35-10.38-2.31-13.66-10.28-.01.01-2.18-7.32 5.67-21.29z" fill="#fff"/><path d="M14.99 33.47c-.18 0-.36-.02-.55-.05C12.69 33.1 3.78 31.1.37 22.81c-.11-.36-2.16-7.77 5.7-21.78.1-.17.28-.28.48-.28h15.8c.21 0 .41.12.5.31.23.48 5.62 11.91 5.89 16.73.29 5.27-2.39 9.64-8.21 13.36-2.5 1.6-4.18 2.1-4.96 2.25-.19.05-.38.07-.58.07zM6.88 1.85C-.54 15.21 1.39 22.37 1.41 22.44c3.18 7.7 11.58 9.59 13.23 9.89.24.04.48.04.72 0 .7-.14 2.23-.59 4.58-2.1 5.45-3.49 7.97-7.54 7.7-12.37-.23-4.18-4.75-14.11-5.63-16H6.88v-.01z"/></svg><svg viewBox="0 0 42 32" id="t6" xmlns="http://www.w3.org/2000/svg"><path d="M28.46 28.59s-4.64 4.75-11.06 0c0 0 2.97-4.98 3.44-7.4.01 0 2.95 7.31 7.62 7.4z" fill="#E1E1E1"/><path d="M23.1 31.24c-1.74 0-3.78-.55-6.02-2.21a.55.55 0 01-.15-.72c.03-.05 2.92-4.92 3.37-7.22a.552.552 0 011.05-.1c.03.07 2.87 6.97 7.12 7.06a.545.545 0 01.38.93c-.03.03-2.27 2.26-5.75 2.26zm-4.97-2.81c4.21 2.88 7.49 1.52 9.01.51-3.04-.85-5.19-4.28-6.18-6.22-.77 2.07-2.23 4.68-2.83 5.71z"/><path d="M7.53 1.3h28.1s3.82 9.83 4.61 12.02c.86 2.39 2 8.22-.7 12.14-.34.49-2.47 2.66-4.46 4.17a4.855 4.855 0 01-4.79.61c-.52-.22-1.05-.44-1.48-.63-2.02-.9-4.98-2.6-6.41-5.31-.37-.7-1.39-.67-1.74.05-.85 1.77-2.5 4.05-5.7 6.23-1.07.73-2.41.61-3.67.23-4.11-1.22-8.88-4.51-9.54-7.78-.86-4.24.48-8.66.48-8.66s.51-4.39 5.3-13.07z" fill="#fff"/><path d="M13.1 31.68c-.6 0-1.26-.11-1.98-.32-4.32-1.29-9.21-4.71-9.92-8.2-.88-4.33.44-8.74.5-8.93 0-.09.56-4.51 5.35-13.18.1-.18.28-.28.48-.28h28.1c.23 0 .43.14.51.35.04.1 3.83 9.86 4.61 12.03 1.01 2.81 1.99 8.63-.76 12.64-.4.59-2.62 2.8-4.58 4.3a5.448 5.448 0 01-5.34.69c-.53-.22-1.06-.44-1.49-.63-2.23-.99-5.2-2.76-6.67-5.55-.1-.2-.3-.21-.37-.21-.06 0-.28.02-.38.24-1.15 2.4-3.14 4.57-5.89 6.45-.62.39-1.34.6-2.17.6zM7.85 1.85C3.33 10.11 2.77 14.4 2.77 14.44c-.03.14-1.31 4.44-.49 8.49.62 3.05 5.23 6.2 9.16 7.36 1.39.42 2.44.37 3.2-.16 2.56-1.74 4.47-3.82 5.52-6.02.25-.52.77-.85 1.35-.86h.03c.56 0 1.07.3 1.33.8 1.33 2.51 4.08 4.14 6.15 5.06.42.19.95.41 1.47.62 1.41.58 3.04.37 4.25-.54 1.98-1.51 4.06-3.65 4.34-4.05 2.51-3.65 1.51-9.21.63-11.64-.69-1.92-3.78-9.88-4.46-11.65H7.85z"/></svg><svg fill="none" viewBox="0 0 64 40" id="track" xmlns="http://www.w3.org/2000/svg"><path d="M8 23.974a1 1 0 011 1v7.007h1.591a6.32 6.32 0 0112.56 0H44v-29H9v3.145a1 1 0 01-2 0V1.98a1 1 0 011-1h37a1 1 0 011 1v1h11.452A4.554 4.554 0 0162 7.529V8.98a1 1 0 01-1 1h-1.163l.763 9.165a4.545 4.545 0 013.4 4.383v8.452a1 1 0 01-1 1h-2.025a6.494 6.494 0 01-12.95 0c-.009 0-.016.005-.025.005h-2a1 1 0 01-1 1H23.06a6.322 6.322 0 01-12.378 0H8a1 1 0 01-1-1v-8.012a1 1 0 011-1zM54.5 36.98a4.5 4.5 0 100-9 4.5 4.5 0 000 9zm-8.5-6h2a.928.928 0 01.173.035 6.492 6.492 0 0112.645-.035H62v-7.452a2.551 2.551 0 00-2.548-2.548H46v10zm0-12h12.58l-.75-9H46v9zm0-11h14v-.452a2.551 2.551 0 00-2.548-2.548H46v3zM12.556 32.94a4.314 4.314 0 004.314 4.072h.001a4.321 4.321 0 004.248-3.583.9.9 0 01.051-.973 4.314 4.314 0 00-8.614.484z" fill="#E30613"/><path d="M9 8.98h14a1 1 0 010 2H9a1 1 0 010-2zM7 19.98h22a1 1 0 010 2H7a1 1 0 010-2zM9 13.98h11a1 1 0 010 2H9a1 1 0 010-2zM5 10.98H3a1 1 0 010-2h2a1 1 0 010 2zM2 19.98h2a1 1 0 010 2H2a1 1 0 010-2zM1 13.98h4a1 1 0 010 2H1a1 1 0 010-2z" fill="#E30613"/></svg><svg fill="none" viewBox="0 0 40 40" id="youtube" xmlns="http://www.w3.org/2000/svg"><path d="M17.73 22.927l6.194-3.286-6.194-3.219v6.505z" fill="#7C7C7D"/><path d="M20 0C8.954 0 0 8.954 0 20s8.954 20 20 20 20-8.954 20-20S31.046 0 20 0zm11.167 24.658c-.267 1.687-1.082 2.604-2.797 2.797-1.917.217-6.227.317-8.143.317-1.982 0-5.99-.083-7.991-.25-1.72-.143-2.894-1.104-3.13-2.814-.173-1.245-.284-2.725-.284-5.078 0-2.62.095-3.728.317-4.912.316-1.689 1.123-2.507 2.963-2.697 1.931-.2 3.757-.3 7.842-.3 1.998 0 6.303.104 8.292.283 1.737.157 2.716 1.22 2.93 2.914.15 1.182.284 2.875.284 4.695 0 3.197-.283 5.045-.283 5.045z" fill="#7C7C7D"/></svg></svg>