<svg width="26" height="26" viewBox="0 0 26 26" fill="none" xmlns="http://www.w3.org/2000/svg"><path d="M13 0C5.82 0 0 5.82 0 13s5.82 13 13 13 13-5.82 13-13C25.992 5.824 20.176.008 13 0zm0 1.238c6.487-.009 11.753 5.243 11.762 11.73a11.75 11.75 0 01-1.9 6.42c-4.678-5.446-12.885-6.07-18.332-1.391-.498.428-.964.894-1.392 1.392C-.399 13.95 1.142 6.675 6.58 3.138a11.75 11.75 0 016.42-1.9zm0 23.524a11.744 11.744 0 01-9.112-4.336c4.099-5.033 11.5-5.79 16.533-1.691.62.505 1.186 1.07 1.691 1.69A11.746 11.746 0 0113 24.763z" fill="#343434"/><path d="M13 13a4.333 4.333 0 100-8.667A4.333 4.333 0 0013 13zm0-7.429a3.095 3.095 0 110 6.19 3.095 3.095 0 010-6.19z" fill="#343434"/></svg>