<svg width="30" height="40" viewBox="0 0 30 40" xmlns="http://www.w3.org/2000/svg"><path d="M5.33 38.88h19.79s5.13-16.84 3.39-27.99c-.07-.48-.23-.94-.45-1.36-.8-1.52-3.12-5.14-8.34-8.18a5.793 5.793 0 00-5.25-.29C10.3 2.91 2.53 7.14 1.17 13.43c-.08.36-.1.73-.09 1.1.06 2.69.52 14.55 4.25 24.35z" fill="#fff"/><path d="M25.13 39.43H5.34c-.23 0-.43-.14-.51-.36C1.03 29.1.59 16.88.54 14.53c-.01-.45.02-.85.1-1.23C2.04 6.83 9.77 2.53 14.25.54c1.85-.82 4-.7 5.75.32 5.38 3.13 7.77 6.91 8.55 8.4.25.48.42 1 .51 1.54 1.74 11.15-3.2 27.55-3.41 28.24-.07.24-.28.39-.52.39zm-19.42-1.1h19c.74-2.58 4.81-17.39 3.26-27.36-.07-.42-.2-.82-.4-1.19-.74-1.4-3-4.97-8.13-7.96a5.275 5.275 0 00-4.75-.27C10.4 3.45 3 7.54 1.71 13.53c-.06.29-.09.6-.08.97.05 2.3.47 14.09 4.08 23.83z"/></svg>