<svg width="31" height="33" viewBox="0 0 31 33" xmlns="http://www.w3.org/2000/svg"><path d="M7.13 31.97H24.1s10.07-14.99 4.51-22.54C23.04 1.88 17.12.22 11.29 1.32 5.46 2.43 2.1 5.59 1.04 14.4c-.01-.01-.54 10.55 6.09 17.57z" fill="#fff"/><path d="M24.09 32.51H7.12c-.15 0-.29-.06-.39-.17C.02 25.24.46 14.81.48 14.37 1.49 5.96 4.59 2.04 11.17.79 18.09-.52 23.93 2.2 29.03 9.11c5.73 7.77-4.07 22.54-4.49 23.17-.1.14-.27.23-.45.23zM7.36 31.43H23.8c1.24-1.93 9.27-15.03 4.36-21.68-4.82-6.54-10.31-9.12-16.78-7.9-5.1.97-8.71 3.48-9.81 12.61-.01.06-.43 10.2 5.79 16.97z"/></svg>