<svg width="38" height="30" viewBox="0 0 38 30" xmlns="http://www.w3.org/2000/svg"><path d="M16.94 4.42s4.3-4.75 10.26 0c0 0-2.75 4.98-3.19 7.4-.01 0-2.74-7.31-7.07-7.4z" fill="#E1E1E1"/><path d="M24 12.35c-.22 0-.42-.14-.5-.34-.03-.07-2.66-6.97-6.58-7.06a.536.536 0 01-.39-.89C16.58 4.01 21.24-1 27.51 4c.2.16.26.44.13.67-.03.05-2.71 4.93-3.13 7.24a.52.52 0 01-.47.43c0 .01-.02.01-.04.01zm-5.86-8.27c2.82.83 4.81 4.22 5.75 6.17.73-2.08 2.09-4.69 2.62-5.68-3.91-2.91-6.97-1.5-8.37-.49z"/><path d="M17.65 4.42s-4.3-4.75-10.26 0c0 0 2.75 4.98 3.19 7.4.01 0 2.74-7.31 7.07-7.4z" fill="#E1E1E1"/><path d="M10.59 12.35h-.05a.52.52 0 01-.47-.43c-.42-2.31-3.11-7.19-3.13-7.24a.524.524 0 01.13-.67c6.27-5 10.93.01 10.98.06.14.15.18.38.09.57-.08.19-.27.32-.48.32-3.93.08-6.55 6.99-6.58 7.06-.08.19-.27.33-.49.33zM8.08 4.56c.53.99 1.89 3.6 2.62 5.68.94-1.95 2.93-5.34 5.75-6.17-1.4-1-4.46-2.41-8.37.49z"/><path d="M5.42 28.64h26.69s4.54-7.28 4.51-15.2c-.02-5.09-2.83-9.05-5.43-11.08-1.58-1.24-3.83-1.13-5.3.23-1.23 1.15-2.47 2.76-2.72 4.75 0 0-3.56-5.18-5.72-5.83-2.65-.79-5.13.02-6.12 3.1a.996.996 0 01-1.64.43c-1.14-1.05-2.84-2.09-4.26-.71C1.37 8.29.81 11.81 1.41 14.9c.97 5.07 4.01 13.74 4.01 13.74z" fill="#fff"/><path d="M32.11 29.17H5.42a.53.53 0 01-.5-.35c-.03-.09-3.07-8.76-4.04-13.81C.11 11 1.43 7.49 5.05 3.96c.77-.75 2.44-1.66 4.99.7.12.12.28.16.44.12.16-.04.28-.16.33-.32.99-3.08 3.59-4.39 6.78-3.45 1.74.52 4.12 3.47 5.31 5.06.43-1.35 1.31-2.65 2.62-3.87a4.588 4.588 0 015.99-.26c2.71 2.12 5.62 6.25 5.64 11.5.03 7.98-4.4 15.18-4.59 15.48-.1.16-.27.25-.45.25zM5.8 28.11h26.01c.77-1.33 4.3-7.8 4.28-14.67-.02-4.86-2.71-8.7-5.23-10.67-1.38-1.08-3.32-1-4.61.2-1.51 1.4-2.36 2.89-2.55 4.43-.03.22-.19.4-.4.45a.523.523 0 01-.56-.21c-.96-1.4-3.81-5.14-5.44-5.62-2.66-.79-4.65.21-5.47 2.75-.16.51-.56.89-1.07 1.02s-1.04 0-1.43-.36C7.88 4.08 6.69 3.84 5.8 4.71 2.46 7.97 1.23 11.18 1.93 14.8c.84 4.4 3.29 11.63 3.87 13.31z"/></svg>