<svg width="41" height="29" viewBox="0 0 41 29" xmlns="http://www.w3.org/2000/svg"><path d="M13.95 3.36s4.3-4.75 10.26 0c0 0-2.75 4.98-3.19 7.4 0 0-2.74-7.31-7.07-7.4z" fill="#E1E1E1"/><path d="M21.02 11.29c-.22 0-.42-.14-.5-.34-.03-.07-2.66-6.97-6.58-7.06a.536.536 0 01-.39-.89c.05-.05 4.71-5.06 10.98-.06.2.16.26.44.13.67-.03.05-2.71 4.93-3.13 7.24a.52.52 0 01-.47.43c-.01.01-.03.01-.04.01zm-5.86-8.27c2.82.83 4.81 4.22 5.75 6.17.73-2.08 2.09-4.69 2.62-5.68-3.92-2.91-6.98-1.49-8.37-.49z"/><path d="M8.61 27.85H33.8s8.29-9.28 5.87-17.76c-2.08-7.28-7.26-8.9-8.68-9.21-.25-.05-.49-.07-.74-.06-1.32.06-5.83.6-8.13 5.13-.27.54-1.04.48-1.28-.07-.66-1.47-2.25-3.31-6.03-4.63a7.375 7.375 0 00-3.36-.34c-2.2.29-5.81 1.35-8.31 5.01-.24.35-.43.73-.58 1.13-.46 1.2-1.99 4.1-.84 7.28 2.71 7.49 6.89 13.52 6.89 13.52z" fill="#fff"/><path d="M33.8 28.38H8.61c-.17 0-.34-.08-.44-.23-.04-.06-4.25-6.18-6.96-13.65-1.09-3.02.05-5.74.66-7.2.07-.17.13-.32.19-.45.18-.47.39-.88.64-1.24C5.36 1.7 9.28.65 11.38.37c1.2-.16 2.45-.03 3.6.37 4.05 1.41 5.68 3.45 6.34 4.91.06.13.16.14.2.13.09 0 .12-.06.13-.08C24.08.92 28.83.34 30.23.28c.3-.02.59.01.88.07 1.59.35 6.93 2.07 9.08 9.58 2.47 8.67-5.64 17.87-5.98 18.26-.12.13-.26.19-.41.19zM8.89 27.32h24.66c1.1-1.31 7.74-9.61 5.6-17.09-1.99-6.95-6.85-8.52-8.29-8.84-.19-.04-.4-.06-.6-.05-1.25.06-5.51.57-7.68 4.84-.21.42-.63.64-1.11.66-.49-.01-.93-.3-1.13-.76-.57-1.27-2.03-3.06-5.72-4.34-1-.35-2.07-.46-3.11-.32-2.35.31-5.63 1.39-7.94 4.78-.2.29-.37.63-.52 1.02-.05.14-.12.3-.2.48-.56 1.33-1.59 3.8-.64 6.43 2.37 6.55 5.91 12.03 6.68 13.19z"/></svg>