<svg width="40" height="37" viewBox="0 0 40 37" fill="none" xmlns="http://www.w3.org/2000/svg"><path d="M10.833 36.667a8.834 8.834 0 01-6.28-2.601L2.6 32.114a8.88 8.88 0 010-12.558L18.578 3.577a.833.833 0 111.178 1.179L3.78 20.732a7.215 7.215 0 000 10.202l1.954 1.953a7.215 7.215 0 0010.202 0L36.81 12.012a5.203 5.203 0 000-7.357L35.345 3.19a5.333 5.333 0 00-7.357 0L9.268 21.91a3.19 3.19 0 000 4.512l.976.977a3.302 3.302 0 004.512 0l13.822-13.822a.833.833 0 111.178 1.178L15.935 28.577a5.023 5.023 0 01-6.869 0l-.977-.976a4.857 4.857 0 010-6.869l18.72-18.72a6.869 6.869 0 019.714 0l1.465 1.465a6.868 6.868 0 010 9.713L17.113 34.066a8.834 8.834 0 01-6.28 2.601z" fill="#7C7C7D"/></svg>