<svg width="40" height="40" viewBox="0 0 40 40" fill="none" xmlns="http://www.w3.org/2000/svg"><path d="M20 0C8.954 0 0 8.954 0 20s8.954 20 20 20 20-8.954 20-20S31.046 0 20 0zm5.876 11.464h-2.858c-.601-.04-1.222.42-1.332 1.021-.013 1.042-.006 2.082-.006 3.123 1.396.007 2.793 0 4.19.007a57.902 57.902 0 01-.51 4.494c-1.236.013-2.47 0-3.706.006-.013 4.442.007 8.878-.006 13.32-1.837.006-3.666-.007-5.503.006-.032-4.442 0-8.884-.02-13.326-.891-.006-1.79.007-2.682-.006.006-1.494 0-2.987 0-4.475.892-.013 1.79 0 2.683-.006.026-1.448-.026-2.903.026-4.352.097-1.157.53-2.314 1.39-3.11 1.041-.989 2.515-1.325 3.912-1.364 1.474-.013 2.949-.006 4.422-.006.006 1.558.006 3.11 0 4.668z" fill="#7C7C7D"/></svg>