<svg width="40" height="43" viewBox="0 0 40 43" fill="none" xmlns="http://www.w3.org/2000/svg"><path d="M20 .867c-11.046 0-20 9.37-20 20.928 0 11.558 8.954 20.928 20 20.928s20-9.37 20-20.928C40 10.237 31.046.867 20 .867zm-5.355 30.685H9.82V16.366h4.825v15.186zm-2.412-17.259H12.2c-1.618 0-2.667-1.167-2.667-2.625 0-1.49 1.08-2.624 2.731-2.624 1.652 0 2.667 1.134 2.698 2.624 0 1.458-1.046 2.625-2.73 2.625zm19.81 17.26H27.22v-8.126c0-2.04-.698-3.433-2.444-3.433-1.333 0-2.127.938-2.476 1.846-.127.325-.16.777-.16 1.231v8.481h-4.826s.065-13.76 0-15.186h4.825v2.152c.641-1.033 1.786-2.51 4.35-2.51 3.175 0 5.555 2.171 5.555 6.836v8.708z" fill="#7C7C7D"/></svg>