<svg width="16" height="10" viewBox="0 0 16 10" fill="none" xmlns="http://www.w3.org/2000/svg"><path d="M15.18 0H.82C.37 0 0 .341 0 .758v8.33c0 .417.37.758.82.758h14.36c.45 0 .82-.34.82-.757V.758C16 .34 15.63 0 15.18 0zm-.308.568l-6.4 4.43A.849.849 0 018 5.13.846.846 0 017.528 5L1.128.568h13.744zm-3.419 4.723l3.487 3.977.012.01H1.048l.012-.01L4.547 5.29a.27.27 0 00-.046-.4.325.325 0 00-.432.043L.616 8.87V.923l6.543 4.53c.246.17.545.244.841.245.295 0 .595-.075.84-.245l6.544-4.53v7.948l-3.453-3.937a.325.325 0 00-.432-.043.27.27 0 00-.046.4z" fill="#E30613"/></svg>