<svg width="9" height="16" viewBox="0 0 9 16" fill="none" xmlns="http://www.w3.org/2000/svg"><path d="M3.248.8h2.615c.144 0 .261.12.261.266a.264.264 0 01-.261.267H3.248a.264.264 0 01-.26-.267A.261.261 0 013.247.8zm-1.83 0h.261c.145 0 .262.12.262.266a.264.264 0 01-.262.267h-.26a.264.264 0 01-.262-.267c0-.147.117-.266.261-.266zm2.813 12.8h.65a.73.73 0 01.72.736v.128a.73.73 0 01-.72.736h-.65a.73.73 0 01-.72-.736v-.128a.728.728 0 01.72-.736zm-.198.864a.2.2 0 00.198.203h.65a.2.2 0 00.198-.203v-.128a.2.2 0 00-.199-.203h-.649a.2.2 0 00-.198.203v.128z" fill="#E30613"/><path d="M1.056 0h6.999C8.576 0 9 .432 9 .964v14.072a.956.956 0 01-.945.964H1.056a.956.956 0 01-.945-.964V.964A.955.955 0 011.056 0zM.634 15.036c0 .237.19.43.422.43h6.999a.427.427 0 00.422-.43V.964c0-.237-.19-.43-.422-.43H1.056a.427.427 0 00-.422.43v14.072z" fill="#E30613"/><path d="M.372 1.6H8.74c.144 0 .261.12.261.267v11.2a.264.264 0 01-.261.266H.372a.264.264 0 01-.26-.266v-11.2c0-.148.116-.267.26-.267zm.262 11.2h7.843V2.134H.634V12.8z" fill="#E30613"/></svg>