<svg width="9" height="16" viewBox="0 0 9 16" fill="none" xmlns="http://www.w3.org/2000/svg"><path d="M3.138.8h2.614c.144 0 .261.12.261.266a.264.264 0 01-.261.267H3.138a.264.264 0 01-.262-.267c0-.147.117-.266.262-.266zM1.307.8h.262c.144 0 .261.12.261.266a.264.264 0 01-.261.267h-.262a.264.264 0 01-.261-.267c0-.147.117-.266.261-.266zM4.12 13.6h.65a.73.73 0 01.72.736v.128a.73.73 0 01-.72.736h-.65a.73.73 0 01-.72-.736v-.128a.728.728 0 01.72-.736zm-.198.864a.2.2 0 00.198.203h.65a.2.2 0 00.198-.203v-.128a.2.2 0 00-.199-.203H4.12a.2.2 0 00-.198.203v.128z" fill="#fff"/><path d="M.945 0h6.999c.521 0 .945.432.945.964v14.072a.956.956 0 01-.945.964H.945A.956.956 0 010 15.036V.964C0 .433.424 0 .945 0zM.523 15.036c0 .237.19.43.422.43h6.999a.427.427 0 00.422-.43V.964c0-.237-.19-.43-.422-.43H.945a.427.427 0 00-.422.43v14.072z" fill="#fff"/><path d="M.262 1.6h8.366c.144 0 .261.12.261.267v11.2a.264.264 0 01-.261.266H.262A.264.264 0 010 13.067v-11.2C0 1.719.117 1.6.262 1.6zm.261 11.2h7.843V2.134H.523V12.8z" fill="#fff"/></svg>