<svg width="12" height="16" viewBox="0 0 12 16" fill="none" xmlns="http://www.w3.org/2000/svg"><path d="M6 0c3.308 0 6 2.651 6 5.91 0 1.073-.488 2.227-.51 2.276a9.508 9.508 0 01-.693 1.278l-4.114 6.14C6.515 15.856 6.266 16 6 16c-.267 0-.516-.144-.684-.396L1.2 9.465a9.446 9.446 0 01-.693-1.278C.488 8.138 0 6.984 0 5.91 0 2.651 2.692 0 6 0zM1.16 7.916c.14.33.43.864.632 1.165l4.114 6.14c.081.122.107.122.188 0l4.114-6.14a8.7 8.7 0 00.633-1.165c.005-.014.453-1.076.453-2.006C11.294 3.035 8.92.695 6 .695 3.08.695.706 3.035.706 5.91c0 .93.449 1.996.453 2.006z" fill="#E30613"/><path d="M6 2.782c1.751 0 3.176 1.403 3.176 3.129C9.176 7.636 7.751 9.04 6 9.04c-1.751 0-3.176-1.404-3.176-3.13 0-1.725 1.425-3.128 3.176-3.128zm0 5.563c1.362 0 2.47-1.092 2.47-2.434S7.363 3.477 6 3.477 3.53 4.57 3.53 5.911 4.637 8.345 6 8.345z" fill="#E30613"/></svg>