<svg width="34" height="42" viewBox="0 0 34 42" xmlns="http://www.w3.org/2000/svg"><path d="M5.8 41.12h22.99c2.37 0 4.29-1.9 4.31-4.27.03-5.66-.11-15.51-1.39-20.44-1.86-7.16-6.63-13.52-12.19-15.38h-8.48S-1.95 6.04 1.53 37.26a4.287 4.287 0 004.27 3.86z" fill="#fff"/><path d="M28.78 41.67H5.8c-2.48 0-4.56-1.87-4.83-4.35C-2.52 6.04 10.28.73 10.83.52c.06-.02.13-.04.2-.04h8.48c.06 0 .12.01.17.03 5.54 1.85 10.59 8.18 12.55 15.76 1.3 5.01 1.44 15.04 1.41 20.58-.01 2.65-2.19 4.82-4.86 4.82zM11.14 1.58c-1.08.51-12.32 6.58-9.08 35.62a3.768 3.768 0 003.74 3.37h22.99c2.06 0 3.75-1.67 3.76-3.72.03-5.48-.11-15.4-1.37-20.3C29.31 9.36 24.6 3.36 19.43 1.59h-8.29v-.01z"/></svg>