<svg width="31" height="36" viewBox="0 0 31 36" xmlns="http://www.w3.org/2000/svg"><path d="M8.42 1.07h14.67s5.66 9.54 6.19 13.43c.53 3.89 0 9.69-2.12 12.44-2.12 2.76-8.21 6.98-8.21 6.98s-1.33 1.75-5.04 0c-2.39-1.12-6.25-3.43-9.21-6.37-2.64-2.62-3.9-6.28-3.39-9.96C1.9 13.3 3.6 6.75 8.42 1.07z" fill="#fff"/><path d="M16.86 35.24c-.83 0-1.88-.21-3.19-.83-2.61-1.23-6.44-3.57-9.37-6.48C1.51 25.16.22 21.36.76 17.5 1.38 12.99 3.15 6.42 8.01.7c.1-.12.26-.19.42-.19H23.1c.19 0 .37.1.47.27.23.39 5.72 9.68 6.26 13.64.56 4.1-.03 10-2.23 12.85-2.06 2.68-7.62 6.6-8.28 7.05-.23.25-.98.92-2.46.92zM8.68 1.62C4.12 7.09 2.45 13.35 1.85 17.66c-.49 3.51.69 6.97 3.23 9.5 2.83 2.81 6.53 5.08 9.06 6.26 3.21 1.51 4.33.21 4.38.16.03-.04.08-.08.12-.11.06-.04 6.04-4.2 8.09-6.86 1.94-2.52 2.55-8.1 2.01-12.03-.46-3.38-5.04-11.38-5.96-12.95H8.68v-.01z"/></svg>