<svg width="40" height="40" viewBox="0 0 40 40" fill="none" xmlns="http://www.w3.org/2000/svg"><path d="M17.73 22.927l6.194-3.286-6.194-3.219v6.505z" fill="#7C7C7D"/><path d="M20 0C8.954 0 0 8.954 0 20s8.954 20 20 20 20-8.954 20-20S31.046 0 20 0zm11.167 24.658c-.267 1.687-1.082 2.604-2.797 2.797-1.917.217-6.227.317-8.143.317-1.982 0-5.99-.083-7.991-.25-1.72-.143-2.894-1.104-3.13-2.814-.173-1.245-.284-2.725-.284-5.078 0-2.62.095-3.728.317-4.912.316-1.689 1.123-2.507 2.963-2.697 1.931-.2 3.757-.3 7.842-.3 1.998 0 6.303.104 8.292.283 1.737.157 2.716 1.22 2.93 2.914.15 1.182.284 2.875.284 4.695 0 3.197-.283 5.045-.283 5.045z" fill="#7C7C7D"/></svg>