<svg width="65" height="65" viewBox="0 0 65 65" fill="none" xmlns="http://www.w3.org/2000/svg"><path d="M9.75 0a6.507 6.507 0 00-6.5 6.5c0 3.585 2.916 6.5 6.5 6.5s6.5-2.915 6.5-6.5S13.334 0 9.75 0zm0 10.833A4.338 4.338 0 015.417 6.5 4.338 4.338 0 019.75 2.167 4.338 4.338 0 0114.083 6.5a4.337 4.337 0 01-4.333 4.333z" fill="#7C7C7D"/><path d="M14.085 8.667h-.026c-.34 0-.66.159-.865.43-.833 1.104-2.088 1.737-3.444 1.737-1.356 0-2.61-.632-3.444-1.737a1.138 1.138 0 00-.891-.43A5.42 5.42 0 000 14.082v4.335c0 .598.485 1.083 1.083 1.083h17.333c.598 0 1.083-.485 1.083-1.083v-4.335a5.418 5.418 0 00-5.413-5.415zm3.248 8.666H2.167V14.08a3.253 3.253 0 012.796-3.213A6.415 6.415 0 009.75 13a6.419 6.419 0 004.79-2.135 3.253 3.253 0 012.793 3.215v3.253zM55.25 0a6.507 6.507 0 00-6.5 6.5c0 3.585 2.916 6.5 6.5 6.5s6.5-2.915 6.5-6.5S58.834 0 55.25 0zm0 10.833A4.337 4.337 0 0150.917 6.5a4.338 4.338 0 014.333-4.333A4.337 4.337 0 0159.583 6.5a4.337 4.337 0 01-4.333 4.333z" fill="#7C7C7D"/><path d="M59.586 8.667h-.027c-.34 0-.66.159-.865.43-.833 1.104-2.088 1.737-3.444 1.737-1.355 0-2.611-.632-3.444-1.737a1.138 1.138 0 00-.891-.43 5.42 5.42 0 00-5.415 5.415v4.335c0 .598.485 1.083 1.083 1.083h17.333c.598 0 1.083-.485 1.083-1.083v-4.335a5.418 5.418 0 00-5.413-5.415zm3.247 8.666H47.667V14.08a3.253 3.253 0 012.796-3.213A6.419 6.419 0 0055.25 13a6.419 6.419 0 004.79-2.136 3.253 3.253 0 012.793 3.216v3.254h-.001zM9.75 45.5a6.507 6.507 0 00-6.5 6.5c0 3.585 2.916 6.5 6.5 6.5s6.5-2.915 6.5-6.5-2.916-6.5-6.5-6.5zm0 10.833A4.338 4.338 0 015.417 52a4.337 4.337 0 014.333-4.333A4.338 4.338 0 0114.083 52a4.337 4.337 0 01-4.333 4.333z" fill="#7C7C7D"/><path d="M14.085 54.167h-.026c-.34 0-.66.159-.865.43-.833 1.105-2.088 1.737-3.444 1.737-1.356 0-2.611-.632-3.444-1.737a1.137 1.137 0 00-.891-.43A5.42 5.42 0 000 59.582v4.335C0 64.515.485 65 1.083 65h17.333c.598 0 1.083-.485 1.083-1.083v-4.335a5.418 5.418 0 00-5.413-5.415zm3.248 8.666H2.167V59.58a3.253 3.253 0 012.796-3.213A6.419 6.419 0 009.75 58.5a6.419 6.419 0 004.79-2.136 3.253 3.253 0 012.793 3.216v3.254h-.001zM55.25 45.5a6.507 6.507 0 00-6.5 6.5c0 3.585 2.916 6.5 6.5 6.5s6.5-2.915 6.5-6.5-2.916-6.5-6.5-6.5zm0 10.833A4.337 4.337 0 0150.917 52a4.337 4.337 0 014.333-4.333A4.337 4.337 0 0159.583 52a4.337 4.337 0 01-4.333 4.333z" fill="#7C7C7D"/><path d="M59.586 54.167h-.027c-.34 0-.66.159-.865.43-.833 1.105-2.088 1.737-3.444 1.737-1.355 0-2.611-.632-3.444-1.737a1.137 1.137 0 00-.891-.43 5.42 5.42 0 00-5.415 5.415v4.335c0 .598.485 1.083 1.083 1.083h17.333c.598 0 1.083-.485 1.083-1.083v-4.335a5.418 5.418 0 00-5.413-5.415zm3.247 8.666H47.667V59.58a3.253 3.253 0 012.796-3.213A6.419 6.419 0 0055.25 58.5a6.419 6.419 0 004.79-2.136 3.253 3.253 0 012.793 3.216v3.254h-.001zM50.453 5.41a33.049 33.049 0 00-2.891-1.71 1.085 1.085 0 00-1.463.455 1.085 1.085 0 00.457 1.463c.92.483 1.828 1.02 2.7 1.598a1.086 1.086 0 001.502-.303 1.086 1.086 0 00-.306-1.502zm-8.684-4.067A32.46 32.46 0 0035.632.15a1.086 1.086 0 00-1.182.975c-.057.594.38 1.125.975 1.182 1.939.186 3.866.56 5.727 1.113.103.03.207.046.308.046a1.084 1.084 0 00.309-2.123zM29.38.149a32.39 32.39 0 00-6.137 1.192 1.084 1.084 0 00.618 2.077 30.21 30.21 0 015.727-1.113A1.084 1.084 0 0029.38.15zM18.902 4.154a1.083 1.083 0 00-1.462-.456 33.07 33.07 0 00-2.892 1.711 1.083 1.083 0 101.198 1.806 30.135 30.135 0 012.7-1.599c.53-.276.733-.931.456-1.462zm42.54 40.626a1.083 1.083 0 00-1.44.523c-.44.942-.934 1.874-1.471 2.77a1.084 1.084 0 00.928 1.64c.368 0 .727-.187.928-.526a32.356 32.356 0 001.576-2.967 1.082 1.082 0 00-.521-1.44zm3.411-15.379a1.084 1.084 0 00-2.157.204 30.703 30.703 0 01-.296 8.031 1.086 1.086 0 001.069 1.266c.518 0 .976-.372 1.066-.9a32.75 32.75 0 00.318-8.6zm-1.95-8.394a32.735 32.735 0 00-1.352-3.077 1.084 1.084 0 00-1.938.973c.47.933.894 1.9 1.262 2.87a1.084 1.084 0 002.028-.766zM4.906 17.45a1.082 1.082 0 00-1.455.48 32.419 32.419 0 00-1.352 3.078 1.084 1.084 0 002.027.768c.368-.97.793-1.938 1.262-2.87a1.086 1.086 0 00-.482-1.456zM2.599 37.629a30.6 30.6 0 01-.296-8.029 1.084 1.084 0 00-.975-1.181 1.09 1.09 0 00-1.18.974 32.813 32.813 0 00.314 8.599 1.085 1.085 0 002.137-.363zm3.868 10.444a30.895 30.895 0 01-1.471-2.769 1.084 1.084 0 00-1.963.917 32.38 32.38 0 001.578 2.967 1.083 1.083 0 001.484.372c.513-.309.68-.974.372-1.487zm41.196-19.906H28.168A2.17 2.17 0 0026 30.335v12.997a2.17 2.17 0 002.17 2.168h10.382l6.182 6.183a1.083 1.083 0 001.85-.767V45.5h1.082a2.17 2.17 0 002.168-2.17V30.335a2.173 2.173 0 00-2.17-2.168zm.002 15.166H45.5c-.598 0-1.083.485-1.083 1.083V48.3l-4.65-4.65a1.083 1.083 0 00-.766-.318l-10.833-.004V30.335l.003-.002 19.497.002-.003 12.998z" fill="#7C7C7D"/><path d="M35.748 21.667H16.253a2.17 2.17 0 00-2.169 2.168v12.997A2.17 2.17 0 0016.253 39h1.081v5.417a1.086 1.086 0 001.083 1.084c.282 0 .559-.11.766-.317L25.365 39h1.718c.598 0 1.083-.485 1.083-1.083v-7.581l8.667-.003c.598 0 1.083-.485 1.083-1.083v-5.414a2.17 2.17 0 00-2.168-2.17zm.002 6.5h-7.582A2.17 2.17 0 0026 30.335v6.498h-1.083c-.287 0-.564.114-.765.317l-4.65 4.65v-3.884c0-.598-.486-1.083-1.084-1.083l-2.168-.001.003-12.998 19.497.003v4.33z" fill="#7C7C7D"/><path d="M37.917 33.583h-6.5a1.083 1.083 0 000 2.166h6.5a1.083 1.083 0 000-2.166zm6.5 0H42.25a1.083 1.083 0 000 2.166h2.167a1.083 1.083 0 000-2.166zm0 4.334h-6.5a1.083 1.083 0 000 2.166h6.5a1.083 1.083 0 000-2.166zm-10.834 0h-2.167a1.083 1.083 0 000 2.166h2.167a1.083 1.083 0 000-2.166z" fill="#E30613"/><path d="M21.774 60.875a30.415 30.415 0 01-2.87-1.262 1.083 1.083 0 10-.973 1.936 31.9 31.9 0 003.077 1.352 1.084 1.084 0 001.397-.63 1.084 1.084 0 00-.631-1.396zm15.566 2.689a1.082 1.082 0 00-1.204-.947c-2.398.287-4.88.287-7.288-.002a1.082 1.082 0 10-.258 2.15 32.95 32.95 0 007.805.003 1.08 1.08 0 00.946-1.204zm10.21-3.47c-.27-.534-.92-.75-1.454-.48-.935.47-1.901.894-2.87 1.261a1.083 1.083 0 00.766 2.026 32.496 32.496 0 003.076-1.352c.536-.269.752-.919.482-1.455z" fill="#7C7C7D"/></svg>