<svg width="65" height="65" viewBox="0 0 65 65" fill="none" xmlns="http://www.w3.org/2000/svg"><path d="M52.406 8.125h1.422a1.016 1.016 0 000-2.031h-4.062a1.015 1.015 0 00-1.016 1.015v4.063a1.016 1.016 0 002.031 0V9.425a29.453 29.453 0 01-31.123 49.59 1.04 1.04 0 00-1.374.434.988.988 0 00.43 1.36A31.484 31.484 0 0052.406 8.124zm-38.187 47.46A29.454 29.454 0 0145.342 5.984a1.04 1.04 0 001.374-.434.988.988 0 00-.43-1.358 31.485 31.485 0 00-33.692 52.683h-1.422a1.016 1.016 0 100 2.031h4.062a1.015 1.015 0 001.016-1.015v-4.063a1.016 1.016 0 00-2.031 0v1.757z" fill="#E30613"/><path d="M9.14 32.5a23.36 23.36 0 1046.72 0 23.36 23.36 0 00-46.72 0zm44.688 0a21.328 21.328 0 11-42.656 0 21.328 21.328 0 0142.656 0z" fill="#E30613"/><path d="M13.203 32.5a19.298 19.298 0 1038.595 0 19.298 19.298 0 00-38.595 0zm29.453-10.136a1.02 1.02 0 001.432-.01l1.32-1.32a17.184 17.184 0 014.358 10.45h-2.032a1.016 1.016 0 000 2.032h2.032a17.184 17.184 0 01-4.327 10.43l-1.31-1.31a1.02 1.02 0 00-1.442 1.442l1.31 1.31a17.185 17.185 0 01-10.481 4.378v-2.032a1.016 1.016 0 00-2.032 0v2.032a17.184 17.184 0 01-10.43-4.327l1.31-1.31a1.02 1.02 0 00-1.442-1.442l-1.31 1.31a17.184 17.184 0 01-4.327-10.481h1.98a1.016 1.016 0 100-2.032h-1.98a17.184 17.184 0 014.327-10.43l1.31 1.31a1.02 1.02 0 001.442-1.442l-1.31-1.31a17.184 17.184 0 0110.43-4.327v1.98a1.016 1.016 0 002.032 0v-1.98c3.865.226 7.54 1.75 10.43 4.327l-1.3 1.3a1.02 1.02 0 00.01 1.452z" fill="#E30613"/><path d="M33.516 21.328a1.016 1.016 0 00-2.032 0V32.5a1.016 1.016 0 00.295.721l5.373 5.373a1.02 1.02 0 101.44-1.442l-5.076-5.068V21.328z" fill="#E30613"/></svg>