<svg width="56" height="55" viewBox="0 0 56 55" fill="none" xmlns="http://www.w3.org/2000/svg"><path d="M46.977 35.506a6.562 6.562 0 002.55-5.255 6.207 6.207 0 00-5.957-6.418 5.662 5.662 0 00-3.711 1.402 6.713 6.713 0 00.228 10.217c.013.01.028.016.04.027a12.303 12.303 0 00-5.97 5.289 10.554 10.554 0 00-2.75-1.606c.472-.357.89-.78 1.243-1.255a6.665 6.665 0 001.297-3.99 6.443 6.443 0 00-5.957-6.418 6.063 6.063 0 00-5.86 5.31 6.176 6.176 0 00-.097 1.108 6.562 6.562 0 002.538 5.245c-.993.394-1.92.935-2.75 1.606a12.43 12.43 0 00-5.668-5.171 6.551 6.551 0 002.671-5.348 6.207 6.207 0 00-5.957-6.417 6.207 6.207 0 00-5.956 6.418 6.575 6.575 0 002.415 5.146C4.272 37.202.542 43.242.542 50.417c0 .506.41.917.917.917H16.36c-.13.911-.2 1.83-.206 2.75 0 .506.41.917.917.917h21.84c.506 0 .917-.41.917-.917a20.236 20.236 0 00-.207-2.75h14.902c.506 0 .917-.41.917-.917-.001-7.023-3.572-12.971-8.463-14.91zm-7.531-5.256a4.728 4.728 0 011.608-3.628 3.843 3.843 0 012.516-.957 4.377 4.377 0 014.124 4.583 4.377 4.377 0 01-4.124 4.583c-.856 0-1.686-.29-2.355-.825a4.735 4.735 0 01-1.77-3.756zm-15.58 3.667c0-.27.022-.539.07-.804a4.25 4.25 0 014.054-3.78 4.257 4.257 0 014.056 3.8c.046.26.07.52.068.782a4.837 4.837 0 01-.94 2.903 3.954 3.954 0 01-3.184 1.68 4.374 4.374 0 01-4.125-4.581zm-10.999-8.25a4.377 4.377 0 014.125 4.582 4.377 4.377 0 01-4.125 4.584 4.377 4.377 0 01-4.124-4.583 4.377 4.377 0 014.124-4.584zM16.683 49.5H2.396c.348-7.155 4.726-12.833 10.06-12.833 3.136 0 6.09 2.007 8.001 5.398a16.506 16.506 0 00-3.774 7.435zm1.325 3.667c.04-.867.144-1.727.308-2.579a14.627 14.627 0 013.9-7.72.695.695 0 00.068-.075 8.228 8.228 0 015.706-2.46 8.227 8.227 0 015.705 2.458.717.717 0 00.07.076 14.628 14.628 0 013.9 7.722c.163.85.265 1.712.306 2.576H18.008v.002zM39.296 49.5a16.473 16.473 0 00-3.774-7.434c1.912-3.392 4.866-5.4 8.002-5.4 5.334 0 9.715 5.679 10.06 12.834H39.295z" fill="#7C7C7D"/><path d="M19.06 12.569l2.103.263-1.302 1.672a1.212 1.212 0 00.1 1.597L21.9 18.04c.433.43 1.116.472 1.598.1l1.67-1.3.264 2.104A1.212 1.212 0 0026.63 20h2.74a1.213 1.213 0 001.2-1.058l.262-2.104 1.672 1.302a1.21 1.21 0 001.597-.1l1.938-1.939c.43-.431.471-1.115.099-1.596l-1.3-1.673 2.102-.263a1.21 1.21 0 001.059-1.2V8.63a1.21 1.21 0 00-1.06-1.199l-2.102-.263 1.301-1.672a1.212 1.212 0 00-.1-1.597L34.102 1.96a1.211 1.211 0 00-1.598-.1l-1.67 1.3-.264-2.103A1.213 1.213 0 0029.37 0h-2.74a1.21 1.21 0 00-1.2 1.058l-.263 2.103-1.672-1.301a1.211 1.211 0 00-1.597.1L19.96 3.899a1.213 1.213 0 00-.099 1.597l1.3 1.671-2.102.263A1.21 1.21 0 0018 8.63v2.74c.002.61.456 1.123 1.06 1.199zm.48-3.647l2.323-.29a.77.77 0 00.632-.514c.08-.23.173-.455.282-.674a.769.769 0 00-.083-.812l-1.439-1.846 1.526-1.532 1.847 1.437a.767.767 0 00.81.084c.22-.109.445-.202.676-.281a.772.772 0 00.516-.632l.294-2.323h2.154l.29 2.323a.768.768 0 00.515.632c.23.079.456.173.676.281.265.131.58.098.813-.084l1.847-1.437 1.526 1.526-1.44 1.846a.769.769 0 00-.084.812c.11.219.203.444.282.674.095.279.34.478.631.515l2.325.294v2.155l-2.323.29a.767.767 0 00-.631.514c-.08.23-.174.455-.282.674a.77.77 0 00.083.812l1.439 1.846-1.526 1.532-1.847-1.438a.768.768 0 00-.811-.084 5.66 5.66 0 01-.676.281.77.77 0 00-.515.633l-.294 2.323h-2.154l-.29-2.323a.77.77 0 00-.514-.633 5.66 5.66 0 01-.676-.281.768.768 0 00-.812.084l-1.846 1.438-1.527-1.527 1.439-1.846a.767.767 0 00.082-.812 5.718 5.718 0 01-.28-.674.77.77 0 00-.633-.514l-2.325-.295V8.922z" fill="#E30613"/><path d="M28 15a5 5 0 100-10 5 5 0 000 10zm0-8.333a3.333 3.333 0 11.001 6.667A3.333 3.333 0 0128 6.667z" fill="#E30613"/><path d="M6.076 25.545a.933.933 0 00.88-.642c.131-.412-.016-.677-.31-1.208-.657-1.192-2.657-4.813-1.443-7.767.693-1.682 5.336-3.04 7.83-3.77a62.656 62.656 0 001.51-.452.915.915 0 00.634-.876l-.02-7.163a.953.953 0 00-.379-.7 1.006 1.006 0 00-.803-.184C8.763 3.837 2.557 5.533.822 9.291-2.184 15.8 3.927 23.82 5.253 25.128c.21.242.505.392.823.417zM3.51 15.224a7.248 7.248 0 00-.52 2.933c-1.082-2.534-1.693-5.517-.501-8.097 1.387-3.01 7.607-4.583 10.842-5.274l.016 5.36c-.256.077-.532.157-.825.242-4.21 1.234-8.064 2.529-9.014 4.835h.002v.001zM41.455 11.7c.422.136.938.286 1.51.454 2.495.733 7.138 2.086 7.83 3.769 1.217 2.953-.786 6.576-1.443 7.766-.293.532-.441.799-.31 1.21a.931.931 0 00.876.642 1.2 1.2 0 00.825-.406c1.329-1.308 7.444-9.327 4.434-15.84-1.735-3.762-7.94-5.455-13.153-6.507l-.085-.017a.917.917 0 00-1.1.895l-.017 7.16a.915.915 0 00.633.874zm1.215-6.91c3.157.671 9.446 2.245 10.843 5.276 1.191 2.579.579 5.56-.501 8.095a7.25 7.25 0 00-.522-2.934c-.95-2.305-4.805-3.6-9.013-4.83a89.277 89.277 0 01-.825-.243l.018-5.364z" fill="#7C7C7D"/></svg>