<svg width="55" height="65" viewBox="0 0 55 65" fill="none" xmlns="http://www.w3.org/2000/svg"><path d="M43.74 28.34a.972.972 0 001.146-.744c.24-1.154.362-2.341.362-3.528 0-9.656-7.997-17.51-17.827-17.51-9.83 0-17.827 7.854-17.827 17.509 0 9.654 7.998 17.51 17.828 17.51 6.7 0 12.773-3.636 15.85-9.487a.948.948 0 00-.418-1.287.981.981 0 00-1.31.41c-2.741 5.214-8.154 8.453-14.122 8.453-8.758 0-15.883-6.998-15.883-15.6 0-8.603 7.126-15.6 15.883-15.6 8.757 0 15.883 7 15.883 15.602a15.46 15.46 0 01-.323 3.144.957.957 0 00.757 1.128z" fill="#7C7C7D"/><path d="M38.241 20.514a.966.966 0 00-.787-.65l-6.338-.89-2.822-5.645c-.323-.702-1.423-.701-1.746 0l-2.822 5.644-6.338.891c-.78.085-1.119 1.114-.54 1.63l4.594 4.38-1.096 6.196c-.16.751.73 1.39 1.412 1.008l5.661-2.938 5.662 2.938c.68.382 1.572-.257 1.411-1.008l-1.095-6.196 4.593-4.38a.938.938 0 00.251-.98zm-6.564 4.342a.945.945 0 00-.282.848l.844 4.776-4.363-2.265a.99.99 0 00-.91 0l-4.363 2.265.844-4.776a.945.945 0 00-.281-.848l-3.542-3.377 4.886-.688a.972.972 0 00.735-.524l2.176-4.352 2.175 4.352a.97.97 0 00.735.524l4.886.688-3.54 3.377z" fill="#E30613"/><path d="M54.71 56.775l-9.503-16.17c4.16-4.315 6.717-10.139 6.717-16.538C51.924 10.797 40.932 0 27.422 0a24.866 24.866 0 00-11.876 3.011.947.947 0 00-.379 1.3c.26.46.853.626 1.323.371a22.898 22.898 0 0110.932-2.771c12.438 0 22.556 9.939 22.556 22.157 0 12.216-10.119 22.157-22.556 22.157-12.438 0-22.557-9.94-22.557-22.157 0-6.555 2.931-12.736 8.041-16.961a.943.943 0 00.118-1.346.984.984 0 00-1.37-.115c-5.55 4.586-8.733 11.302-8.733 18.42 0 6.41 2.565 12.243 6.738 16.56l-2.691 4.58c-.646 1.06 1.062 2.04 1.684.954l2.447-4.163a24.621 24.621 0 0010.418 5.428L13.126 61.7l-2.147-6.636a.975.975 0 00-1.136-.644L2.92 55.913l3.463-5.892a.946.946 0 00-.357-1.305.982.982 0 00-1.328.349L.133 56.833c-.433.682.255 1.61 1.05 1.41l8.21-1.768 2.545 7.867c.223.775 1.38.9 1.768.188l9.818-16.702a24.946 24.946 0 007.825-.005l5.895 10.032a.976.976 0 001.328.35.946.946 0 00.356-1.306l-5.573-9.48a24.614 24.614 0 0010.41-5.44l8.157 13.877-6.924-1.492a.976.976 0 00-1.136.644l-2.147 6.635-.518-.883a.982.982 0 00-1.329-.35.946.946 0 00-.356 1.306l1.62 2.757c.389.712 1.547.585 1.768-.188l2.545-7.867 8.21 1.768c.801.197 1.488-.728 1.055-1.411z" fill="#7C7C7D"/></svg>