<svg width="65" height="55" viewBox="0 0 65 55" fill="none" xmlns="http://www.w3.org/2000/svg"><path d="M61.502.124H22.62a.954.954 0 100 1.909h38.882c.877 0 1.59.713 1.59 1.59v40.505c0 .876-.713 1.59-1.59 1.59h-4.155a8.366 8.366 0 002.97-7.686V9.655a.954.954 0 00-.955-.954 2.942 2.942 0 01-2.939-2.939.954.954 0 00-.954-.954H9.53a.954.954 0 00-.954.954 2.942 2.942 0 01-2.939 2.939.954.954 0 00-.954.954v28.44c0 .527.427.954.954.954 1.62 0 2.94 1.319 2.94 2.94 0 .526.427.953.954.953h21.243a.954.954 0 100-1.908H10.39a4.861 4.861 0 00-3.799-3.799v-26.72a4.861 4.861 0 003.8-3.799H54.61a4.862 4.862 0 003.798 3.799v23.313a8.362 8.362 0 00-6.381-2.958c-4.62 0-8.38 3.759-8.38 8.38 0 .612.069 1.209.194 1.784h-9.25a.954.954 0 100 1.908h9.917a8.431 8.431 0 002.199 2.776H3.498c-.877 0-1.59-.713-1.59-1.59V3.623c0-.877.713-1.59 1.59-1.59h15.306a.954.954 0 100-1.909H3.498A3.502 3.502 0 000 3.623v40.505a3.502 3.502 0 003.498 3.498H46.95v6.298c-.014.636.705 1.161 1.364.861l3.713-1.763 3.713 1.763c.527.286 1.379-.135 1.364-.861v-6.298h4.398A3.502 3.502 0 0065 44.128V3.623A3.503 3.503 0 0061.502.124zM45.556 39.25a6.478 6.478 0 016.471-6.47 6.478 6.478 0 016.471 6.47 6.478 6.478 0 01-6.471 6.471 6.479 6.479 0 01-6.471-6.47zm6.88 11.854a.954.954 0 00-.818 0l-2.76 1.311v-5.41a8.33 8.33 0 003.169.624c1.12 0 2.19-.223 3.169-.624v5.41l-2.76-1.31z" fill="#7C7C7D"/><path d="M40.548 15.187a.954.954 0 100-1.908H24.452a.954.954 0 100 1.908h16.096zm-29.206 5.474c0 .527.427.954.954.954h40.408a.954.954 0 100-1.908H12.296a.954.954 0 00-.954.954zm.954 7.382h40.408a.954.954 0 100-1.908H12.296a.954.954 0 100 1.908zm0 6.428h18.478a.954.954 0 100-1.908H12.296a.954.954 0 100 1.908z" fill="#7C7C7D"/><path d="M52.027 43.91a4.666 4.666 0 004.661-4.66 4.667 4.667 0 00-4.661-4.662 4.667 4.667 0 00-4.661 4.661c0 2.57 2.09 4.661 4.66 4.661zm0-7.414a2.756 2.756 0 012.753 2.753 2.756 2.756 0 01-2.753 2.753 2.756 2.756 0 01-2.753-2.753 2.756 2.756 0 012.753-2.753z" fill="#E30613"/></svg>