<svg width="35" height="47" viewBox="0 0 35 47" fill="none" xmlns="http://www.w3.org/2000/svg"><path d="M19.024.898c.344.06.7.106 1.045.165a16.958 16.958 0 017.612 3.333c2.79 2.156 4.738 4.924 5.83 8.257.392 1.19.642 2.414.736 3.662.369 4.429-.807 8.422-3.526 11.943-1.437 1.873-3.23 3.369-5.308 4.5a.832.832 0 00-.38.4c-2.043 4.24-4.097 8.492-6.152 12.731a.567.567 0 01-.142.2V29.284c.332-.07.665-.118.985-.2 4.49-.99 7.992-4.57 8.871-9.07 1.2-6.147-2.743-12.119-8.894-13.473-.262-.035-.535-.082-.808-.118-.119-.012-.178-.07-.166-.188V1.18c0-.094-.012-.188-.012-.283h.309z" fill="#E11F25"/><path d="M15.592.898v5.23c0 .259 0 .247-.238.294-2.244.365-4.227 1.284-5.925 2.792-1.995 1.778-3.266 3.969-3.729 6.595-.594 3.404.178 6.501 2.328 9.21 1.805 2.285 4.191 3.675 7.065 4.217.155.023.309.047.475.082v5.442c-.13 0-.25.011-.368 0-3.61-.436-6.78-1.826-9.476-4.24C2.767 27.88.95 24.607.26 20.732A15.79 15.79 0 01.036 17c.213-3.734 1.496-7.067 3.895-9.953C6.377 4.102 9.5 2.182 13.24 1.3c.653-.153 1.33-.236 1.995-.342a.673.673 0 00.142-.047c.071-.012.143-.012.214-.012z" fill="#7D7D7D"/></svg>