<svg width="65" height="65" viewBox="0 0 65 65" fill="none" xmlns="http://www.w3.org/2000/svg"><path d="M33.349 35.474a1.012 1.012 0 00-.366-.012 2.424 2.424 0 01-2.144-2.404 1.066 1.066 0 00-2.132 0 4.561 4.561 0 003.354 4.392v1.066a1.066 1.066 0 002.132 0v-1.002a4.553 4.553 0 00-.933-9.009 2.42 2.42 0 112.42-2.42 1.066 1.066 0 002.133 0 4.561 4.561 0 00-3.62-4.457v-.97a1.066 1.066 0 00-2.132 0v1.035a4.553 4.553 0 001.2 8.944 2.42 2.42 0 01.088 4.837z" fill="#E30613"/><path d="M17.8 29.653c0 8.54 6.921 15.461 15.46 15.461 8.539 0 15.46-6.922 15.46-15.46 0-8.54-6.921-15.461-15.46-15.461-8.535.009-15.45 6.926-15.46 15.46zm15.46-13.328c7.361 0 13.329 5.967 13.329 13.328 0 7.362-5.968 13.329-13.329 13.329-7.361 0-13.328-5.967-13.328-13.329.008-7.357 5.97-13.32 13.328-13.328z" fill="#E30613"/><path d="M53.977 47.743l-8.352 3.946a6.802 6.802 0 00-5.8-3.579l-7.71-.212a8.143 8.143 0 01-3.504-.905l-.784-.406a13.838 13.838 0 00-12.818.013l.049-1.777a1.066 1.066 0 00-1.037-1.095l-8.454-.233a1.066 1.066 0 00-1.095 1.037l-.51 18.553a1.066 1.066 0 001.036 1.095l8.454.233h.03c.577 0 1.05-.46 1.066-1.037l.024-.888 2.197-1.176a3.768 3.768 0 012.811-.308l13.116 3.682.07.017a14.226 14.226 0 008.825-1 .982.982 0 00.132-.073l19.017-12.3c.474-.307.627-.93.35-1.42a5.386 5.386 0 00-7.113-2.167zM6.122 62.078l.452-16.422 6.323.174-.452 16.422-6.323-.174zm34.508-.28a12.088 12.088 0 01-7.392.826l-13.08-3.672a5.895 5.895 0 00-4.396.48l-1.122.602.3-10.919a11.72 11.72 0 0111.906-.635l.785.407a10.297 10.297 0 004.426 1.143l7.71.212a4.676 4.676 0 014.445 3.727l-11.485-.318a1.067 1.067 0 00-.059 2.132l12.675.35h.03a1.068 1.068 0 001.065-1.038 6.77 6.77 0 00-.104-1.383l8.567-4.048.025-.012a3.257 3.257 0 013.684.516l-17.98 11.63zm-6.304-50.603V1.066a1.066 1.066 0 00-2.132 0v10.129a1.066 1.066 0 002.132 0zm7.997 0V6.397a1.066 1.066 0 00-2.133 0v4.798a1.066 1.066 0 002.133 0zm-15.993 0V6.397a1.066 1.066 0 10-2.132 0v4.798a1.066 1.066 0 002.132 0z" fill="#E30613"/></svg>