<svg width="483" height="410" viewBox="0 0 483 410" fill="none" xmlns="http://www.w3.org/2000/svg"><path opacity=".31" d="M472.656 318.03H10.344C4.63 318.03 0 313.402 0 307.689c0-5.714 4.629-10.341 10.344-10.341h462.3c5.715 0 10.344 4.627 10.344 10.341.012 5.713-4.617 10.341-10.332 10.341z" fill="#7C7C7D"/><path d="M18.008 302.542v-127.62h70.983v19.43H38.92v34.104h43.102v19.065h-43.1v35.201h50.08v19.808H18.008v.012zm143.075 0l-19.071-53.18h-16.32v53.18h-20.925v-127.62h41.082c5.255 0 10.144.767 14.679 2.29 4.522 1.534 8.407 3.825 11.643 6.87 3.236 3.058 5.775 6.882 7.617 11.463 1.83 4.58 2.751 9.927 2.751 16.042 0 8.074-1.712 15.039-5.137 20.906-3.424 5.867-8.502 10.329-15.221 13.387l21.822 56.662h-22.92zm.909-90.943c0-5.985-1.535-10.424-4.582-13.292-3.058-2.869-7.463-4.309-13.202-4.309H125.68v36.488h18.339c5.503 0 9.872-1.581 13.12-4.769 3.235-3.175 4.853-7.885 4.853-14.118zm95.934 90.943l-19.071-53.18h-16.32v53.18h-20.913v-127.62h41.083c5.254 0 10.155.767 14.678 2.29 4.522 1.534 8.408 3.825 11.643 6.87 3.236 3.058 5.775 6.882 7.617 11.463 1.842 4.58 2.751 9.927 2.751 16.042 0 8.074-1.712 15.039-5.137 20.906-3.424 5.867-8.502 10.329-15.221 13.387l21.822 56.662h-22.932zm.921-90.943c0-5.985-1.535-10.424-4.582-13.292-3.058-2.869-7.463-4.309-13.202-4.309h-18.528v36.488h18.339c5.503 0 9.872-1.581 13.12-4.769 3.223-3.175 4.853-7.885 4.853-14.118zm114.45 52.259c0 6.115-.945 11.616-2.846 16.503-1.901 4.887-4.582 9.078-8.077 12.56-3.484 3.483-7.617 6.139-12.376 7.98-4.77 1.83-10.025 2.751-15.776 2.751-6.967 0-12.966-1.134-17.973-3.388-5.019-2.255-9.081-5.312-12.198-9.172-3.118-3.849-5.409-8.311-6.885-13.387-1.464-5.076-2.196-10.423-2.196-16.043v-48.233c0-4.522.708-9.102 2.114-13.753 1.405-4.639 3.672-8.865 6.79-12.654 3.117-3.79 7.156-6.906 12.104-9.35 4.947-2.443 11.029-3.671 18.256-3.671 6.719 0 12.529 1.169 17.429 3.482 4.889 2.326 8.951 5.348 12.199 9.078a36.273 36.273 0 017.156 12.655c1.523 4.71 2.291 9.444 2.291 14.213v50.429h-.012zm-21.279-50.748c0-1.594-.272-3.459-.827-5.607-.555-2.149-1.5-4.203-2.846-6.162-1.346-1.96-3.153-3.648-5.408-5.053-2.267-1.405-5.172-2.113-8.715-2.113-3.554 0-6.518.649-8.892 1.936-2.385 1.287-4.287 2.88-5.692 4.781-1.405 1.901-2.421 3.955-3.023 6.162-.614 2.208-.921 4.285-.921 6.245l.189 48.871c0 6.127 1.405 11.274 4.216 15.429 2.81 4.167 7.581 6.244 14.312 6.244 4.771 0 8.892-1.617 12.387-4.863 3.484-3.246 5.232-7.685 5.232-13.328V213.11h-.012zm97.398 89.432l-19.071-53.18h-16.32v53.18h-20.913v-127.62h41.083c5.254 0 10.143.767 14.678 2.29 4.523 1.534 8.408 3.825 11.643 6.87 3.236 3.058 5.775 6.882 7.617 11.463 1.83 4.58 2.751 9.927 2.751 16.042 0 8.074-1.712 15.039-5.137 20.906-3.424 5.867-8.502 10.329-15.221 13.387l21.823 56.662h-22.933zm.921-90.943c0-5.985-1.535-10.424-4.582-13.292-3.058-2.869-7.463-4.309-13.202-4.309h-18.528v36.488h18.339c5.503 0 9.872-1.581 13.12-4.769 3.235-3.175 4.853-7.885 4.853-14.118z" fill="#E30613"/><path d="M161 38.637v26.1" stroke="#343434" stroke-width="3" stroke-miterlimit="10"/><path d="M210.62 0h-99.228v45.944h99.228V0z" fill="#E30613"/><path d="M148.27 30.196v4.143h-4.511v-4.143h-10.285v-3.978l7.947-20.399h4.759l-7.829 20.115h5.408v-7.212h4.511v7.212h2.09v4.262h-2.09zm20.217-2.786c0 1.145-.201 2.16-.591 3.034a6.54 6.54 0 01-1.617 2.231 7.06 7.06 0 01-2.35 1.393 8.202 8.202 0 01-2.799.472c-.98 0-1.913-.153-2.799-.472a6.723 6.723 0 01-2.326-1.393 6.63 6.63 0 01-1.594-2.23c-.39-.874-.591-1.89-.591-3.035V12.784c0-1.145.201-2.16.591-3.057a6.511 6.511 0 011.618-2.255 7.05 7.05 0 012.326-1.393 8.017 8.017 0 012.775-.472c.98 0 1.925.154 2.822.472a6.85 6.85 0 012.35 1.393 6.778 6.778 0 011.594 2.255c.39.885.591 1.9.591 3.057V27.41zm-4.511-14.626c0-.897-.26-1.605-.78-2.113-.519-.507-1.204-.755-2.054-.755-.851 0-1.535.248-2.055.755-.52.508-.779 1.205-.779 2.113v14.591c0 .933.259 1.64.779 2.137.52.495 1.204.732 2.055.732.85 0 1.535-.248 2.054-.732.52-.496.78-1.204.78-2.137v-14.59zm22.413 17.412v4.144h-4.511v-4.144h-10.286v-3.978L179.54 5.82h4.759l-7.83 20.115h5.409v-7.213h4.511v7.213h2.09v4.261h-2.09z" fill="#fff"/><path d="M347.471 166.505c1.051 1.062 1.618 2.845 2.055 4.108a328.296 328.296 0 012.515 7.543c.827 2.538 1.665 5.206 1.205 7.838-.177 1.051-.638 2.137-1.571 2.657-.602.33-1.346.377-2.019.224-1.783-.402-3.047-2.007-3.755-3.683-.709-1.676-.98-3.506-1.642-5.218-1.145-2.986-3.448-6.044-6.766-6.398-1.7-.189-3.909-.354-5.09-1.783-1.216-1.463-1.298-4.674.39-5.807.555-.366 1.205-.555 1.854-.673 2.114-.402 4.204-.189 6.318-.012 1.842.142 3.838-.213 5.562.567.366.141.673.365.944.637zM166.715 73.673c.331-1.487.65-2.987.945-4.486.638-3.163 2.374-6.445-.083-9.231-2.184-2.479-6.707-1.629-9.305-.118-2.539 1.476-4.298 4.498-3.684 7.378.531 2.479 2.881 4.439 5.408 4.533a129.939 129.939 0 00-1.877 6.67c-.815 3.199 1.145 4.32 4.015 3.718.72-.153 1.464-.319 2.043-.78.85-.672 1.157-1.793 1.417-2.844.389-1.617.767-3.223 1.121-4.84z" fill="#fff" stroke="#343434" stroke-miterlimit="10"/><path d="M337.434 162.657a49.13 49.13 0 00-1.287-.272c-13.509-2.491-28.211-6.634-42.016-5.371-2.975.271-5.916.838-8.892 1.027-10.049.637-19.696-2.928-29.368-5.041-3.944-.861-7.876-1.322-11.809-2.136-4.806-.992-9.765.023-14.607-.614-4.227-.555-8.372-2.385-12.612-1.853-5.479.684-10.32 4.084-11.749 9.514-.721 2.715-.378 5.607.26 8.346.59 2.562 1.617 5.289 3.908 6.599 4.783 2.727 13.816.968 19.119 1.062 7.179.118 14.359.366 21.527.602 14.147.472 28.293.956 42.44.602 14.56-.366 29.132-.023 43.704.496.496-4.32.957-8.641 1.382-12.961z" fill="#343434"/><path d="M98.19 191.023c-2.126 2.267-3.2 5.289-3.992 8.252-.46 1.747-.661 3.612-.142 5.335.65 2.161 2.657 4.167 5.066 3.672 1.512-.307 2.764-1.96 2.705-3.495a3.068 3.068 0 00-1.075-2.231c.071-.732.177-1.463.331-2.183.059-.272.129-.543.318-.744.685-.685.898.389.851.85-.048.507-.544 1.806.059 2.113.401.153.72-.366.826-.779.39-1.499.508-3.058.626-4.592.106-1.417.225-2.822.331-4.238.035-.461.071-.933-.012-1.393-.248-1.322-1.7-2.526-3.082-2.337-1.004.165-2.031.944-2.81 1.77z" fill="#fff" stroke="#343434" stroke-miterlimit="10"/><path opacity=".31" d="M374.561 114.423l-1.075.507a.75.75 0 01-.897-.236c-1.004-1.346-2.055-2.219-3.26-2.963a.714.714 0 01-.295-.85l.52-1.534a.734.734 0 00-.437-.921l-3.118-1.133a.74.74 0 00-.933.425l-.578 1.534a.717.717 0 01-.744.472c-1.417-.153-3.07 0-4.464.296-.331.07-.791-.036-.933-.343l-.685-1.44c-.177-.366-.46-.897-.814-.72l-3.012 1.428c-.366.177-.496.909-.33 1.263l.685 1.441c.141.307.106.649-.166.861-1.074.862-1.972 1.889-2.728 3.046-.189.283-.531.413-.85.295l-1.44-.531a.722.722 0 00-.933.437l-1.087 3.081a.73.73 0 00.425.92l1.571.614a.723.723 0 01.46.768 11.318 11.318 0 00.237 4.403.74.74 0 01-.39.838l-1.346.637c-.366.177-.638.614-.461.968l1.429 3.01c.177.366.638.355 1.004.178l1.334-.638c.295-.142.685-.012.898.248a14.23 14.23 0 003.141 2.845c.283.189.401.555.283.873l-.484 1.287a.735.735 0 00.437.945l3.035 1.062a.73.73 0 00.933-.46l.413-1.275a.74.74 0 01.791-.496 13.06 13.06 0 004.18-.165c.331-.071.626.118.768.425l.649 1.381c.178.366.65.342 1.004.165l3.011-1.428c.367-.177.307-.355.142-.709l-.649-1.381c-.142-.295.071-.72.33-.932 1.122-.909 2.279-2.09 3.071-3.329a.782.782 0 01.873-.295l1.394.472a.743.743 0 00.933-.449l1.11-3.069a.733.733 0 00-.461-.944l-1.228-.39a.724.724 0 01-.508-.755c.154-1.417.048-2.94-.212-4.25-.071-.319.071-.708.378-.85l1.062-.508c.367-.177.307-.354.13-.72l-1.429-3.01c-.177-.33-.318-.567-.684-.401zm-9.388 14.555a6.994 6.994 0 01-9.317-3.329 6.989 6.989 0 013.33-9.314 6.994 6.994 0 115.987 12.643zm47.057 5.595l-1.44.685c-.414.201-.933.047-1.205-.319-1.358-1.818-2.775-2.998-4.404-3.99a.962.962 0 01-.402-1.145l.697-2.077a.98.98 0 00-.591-1.24l-4.215-1.523a.981.981 0 00-1.252.579l-.779 2.066a.963.963 0 01-1.004.625c-1.913-.212-4.145 0-6.034.402-.437.094-1.063-.048-1.252-.461l-.921-1.936c-.236-.484-.614-1.204-1.11-.979l-4.062 1.924c-.485.236-.674 1.216-.449 1.711l.921 1.936c.201.413.142.874-.224 1.169-1.453 1.169-2.669 2.562-3.685 4.12a.946.946 0 01-1.145.389l-1.937-.72a.98.98 0 00-1.263.591l-1.465 4.155a.986.986 0 00.567 1.239l2.126.827c.413.165.685.59.614 1.027-.26 1.888-.225 3.742.319 5.949.106.449-.107.945-.52 1.133l-1.819.862c-.484.236-.85.826-.625 1.31l1.924 4.061c.237.484.874.472 1.358.236l1.807-.85c.402-.188.921-.011 1.205.343a19.132 19.132 0 004.239 3.836c.378.248.543.756.378 1.181l-.65 1.735a.975.975 0 00.591 1.275l4.097 1.44a.99.99 0 001.264-.626l.555-1.723a.975.975 0 011.063-.661c1.901.224 3.79.153 5.633-.224.448-.095.838.153 1.039.566l.885 1.854c.237.484.874.46 1.358.224l4.063-1.924c.484-.236.425-.472.188-.968l-.885-1.854c-.189-.401.094-.979.437-1.263 1.523-1.227 3.07-2.821 4.145-4.497.236-.378.755-.543 1.18-.402l1.878.638a.99.99 0 001.252-.602l1.499-4.144a.993.993 0 00-.625-1.275l-1.654-.519a.984.984 0 01-.684-1.027c.212-1.912.059-3.978-.296-5.749-.082-.437.107-.956.508-1.145l1.429-.673c.484-.236.401-.472.177-.968l-1.925-4.061c-.201-.448-.389-.779-.874-.543zm-12.694 19.643c-4.712 2.231-10.356.225-12.588-4.497-2.232-4.71-.224-10.353 4.499-12.584 4.712-2.231 10.356-.224 12.588 4.498 2.232 4.71.224 10.352-4.499 12.583z" fill="#7C7C7D"/><path d="M139.319 153.886c-4.452-.626-9.045.743-13.296 1.428-1.736.342-3.472.685-5.22 1.027-2.173.449-4.452.744-6.471 1.7-3.094 1.452-5.302 4.285-7.05 7.213-1.795 2.998-3.235 6.197-4.664 9.384-2.327 5.183-4.393 10.424-6.53 15.63a.62.62 0 00.318.803c3.153 1.463 6.247 3.057 9.317 4.698.142.071.307.012.355-.142.826-2.632 11.478-20.068 13.981-21.296 1.311-.637 3.259-.72 4.688-1.133a63.105 63.105 0 009.365-3.553 61.24 61.24 0 008.018-4.58c.862-.579 1.582-1.37 2.007-2.302 2.008-4.415-.236-8.24-4.818-8.877zm135.033 62.517c-.886-1.475-1.807-2.951-2.539-4.545-.425-.92-.85-1.876-1.594-2.561-1.087-.992-2.645-1.228-4.11-1.429-2.137-.283-4.333-.566-6.435-.047-.862.213-1.724.579-2.35 1.216-1.76 1.794-.083 4.994 1.641 6.221 1.878 1.322 4.121 1.606 5.94 3.093 1.807 1.487 2.893 3.671 3.885 5.737.98 2.031 1.96 4.049 2.94 6.08.189.377.414.802.815.932.224.071.472.035.709-.012 2.503-.566 3.991-3.305 4.074-5.867.118-3.399-1.358-6.103-2.976-8.818z" fill="#fff" stroke="#343434" stroke-miterlimit="10"/><path d="M119.764 171.026c1.665 1.523 3.696 2.727 5.574 3.27 2.243.649 4.936.213 6.412-1.594 1.346-1.664 1.83-4.473 3.956-4.792.626-.095 1.251.082 1.842.283 2.964.98 5.904 2.621 8.998 2.16 1.972-.295 3.755-1.44 5.09-2.939 1.523-1.723 2.527-4.061 2.078-6.327-.897-4.533-6.755-5.501-10.486-5.714-5.054-.307-10.215-.248-15.151-1.357-3.649-.827-6.754-.65-9.636 2.349-2.716 2.833-3.2 7.413-1.523 10.966.614 1.311 1.63 2.586 2.846 3.695z" fill="#fff" stroke="#343434" stroke-miterlimit="10"/><path d="M148.14 143.014c-6.034.613-7.947 4.627-11.064 9.184-2.575 3.777-5.007 9.373-1.677 13.339 2.68 3.199 6.223 4.627 9.718 6.646 2.964 1.7 5.35 3.022 9.117 2.869 9.151-.378 18.409.649 27.656.602 5.916-.036 11.596.011 17.288-1.783 4.983-1.57 6.778-6.41 8.089-11.226 1.334-4.911 2.031-11.935-1.394-16.255a8.927 8.927 0 00-1.535-1.523c-.862-.673-1.866-1.121-2.881-1.535-1.925-.791-4.039-1.487-6.07-1.015-.461.106-.897.272-1.346.413-4.133 1.252-8.184 1.783-12.494 2.243-4.853.52-9.872.047-14.702-.448-6.105-.626-12.529-2.137-18.705-1.511z" fill="#fff" stroke="#343434" stroke-miterlimit="10"/><path d="M261.48 213.429c.272-1.606.827-5.915-.248-6.965-1.027-1.004-2.468-1.11-3.767-1.405-1.7-.389-3.389-.98-5.066-1.464-3.471-1.003-6.943-2.006-10.415-3.022-5.656-1.652-11.029-3.695-16.461-5.961-7.357-3.057-14.997-6.504-22.921-5.69-1.889.189-3.625.897-5.456 1.287-2.031.437-4.18 1.18-5.857 2.432-2.586 1.924-3.223 5.288-2.113 8.227 2.692 7.13 10.002 7.473 16.307 9.161 3.271.873 6.755 1.039 10.12 1.334a532.594 532.594 0 0133.821 3.99c2.846.425 5.68.873 8.514 1.357.779.13 1.771.437 2.692.532.319-1.264.626-2.527.85-3.813z" fill="#343434"/><path d="M193.687 206.133c.484.13.98.142 1.499.012 5.999-1.535 11.219-6.882 14.82-11.628 5.775-7.625 9.294-16.562 14.726-24.341 1.665-2.384 3.908-4.037 5.29-6.599 2.456-4.545 3.637-10.636 2.692-15.735-1.842-9.857-13.261-12.761-21.94-11.297-5.692.956-10.77 4.261-16.438 5.323-.709.13-1.464.248-2.031.697-.189.142-.319.425-.413.779.023 6.906.059 13.8-.048 20.717-.059 4.297.437 9.81-.141 13.34-.355 2.172-2.079 4.568-2.764 6.728-1.606 5.064-2.113 10.495-.33 15.594.708 2.054 2.598 5.749 5.078 6.41zm-30.833-44.468c.106.224.224.449.331.661l-.331-.661z" fill="#343434"/><path d="M161.047 154.358c1.984-3.235 3.767-6.906 5.208-10.742 1.866-4.935 3.176-10.141 3.696-14.992.484-4.521.213-9.09-.071-13.623-.803-13.316-1.004-26.844-2.456-40.1-1.37.684-11.277 1.605-11.23 1.275-1.807 14.755-3.625 29.511-5.432 44.267-.425 3.482-.862 6.988-1.996 10.306-1.181 3.435-3.07 6.575-4.83 9.75-2.999 5.407-9.954 14.98-8.62 21.225" fill="#fff"/><path d="M161.047 154.358c1.984-3.235 3.767-6.906 5.208-10.742 1.866-4.935 3.176-10.141 3.696-14.992.484-4.521.213-9.09-.071-13.623-.803-13.316-1.004-26.844-2.456-40.1-1.37.684-11.277 1.605-11.23 1.275-1.807 14.755-3.625 29.511-5.432 44.267-.425 3.482-.862 6.988-1.996 10.306-1.181 3.435-3.07 6.575-4.83 9.75-2.999 5.407-9.954 14.98-8.62 21.225" stroke="#343434" stroke-miterlimit="10"/><path d="M192.14 176.303a112.141 112.141 0 0113.462-20.115" stroke="#fff" stroke-miterlimit="10"/><path d="M163.94 159.351c-.224-1.912-.614-3.754-.814-5.678-.095-.944-.201-1.9-.473-2.809-.023-.083-.059-.166-.094-.248-1.866 3.848-5.22 6.811-8.656 9.349 3.212 1.806 6.412 3.601 9.624 5.407.909.519.496-5.324.413-6.021zm-33.985 1.724c.012.625-.52 1.346-.886 1.782 5.621 2.833 6.613 14.296 6.07 19.726-.366 3.659-1.441 7.224-1.736 10.884-.449 5.442.945 11.214 4.676 15.192 4.523 4.84 12.116 6.328 18.316 3.979 6.199-2.338 10.816-8.169 12.174-14.65 3.342-15.925-12.174-29.972-22.094-40.242-3.908-4.049-8.868-6.894-14.654-6.67-1.748.071-3.472.402-5.184.791-4.346 1.004-8.29 2.574-10.534 6.552-1.358 2.396-3.767 4.226-4.487 6.894-.531 1.971.047 4.249 1.571 5.607 1.523 1.369 3.932 1.688 5.691.637 3.885-2.313 2.622-10.848 7.865-10.588-.118-.461.236-.945.661-1.134.437-.2.933-.189 1.405-.177.213.012.437.012.638.106.437.201.508.874.508 1.311z" fill="#343434"/><path d="M127.003 173.033c-.402-1.228-.107-2.656.755-3.612l-.755 3.612z" fill="#fff"/><path d="M127.003 173.033c-.402-1.228-.107-2.656.755-3.612" stroke="#343434" stroke-miterlimit="10"/><path d="M231.474 157.852c-2.243 5.725-6.636 10.412-8.809 16.172" stroke="#fff" stroke-miterlimit="10"/><path opacity=".31" d="M389.392 350.186a5.396 5.396 0 00-.685 2.833c.083 1.936 1.547 3.612 3.307 4.427 1.759.814 3.755.908 5.692.849 6.105-.212 12.045-1.924 17.689-4.178 4.995-1.995 10.97-4.014 14.855-7.839.981-.968 1.642-2.538.886-3.683-.555-.85-1.665-1.121-2.669-1.286-7.569-1.299-15.41-.933-22.85.956-4.215 1.05-13.603 3.187-16.225 7.921z" fill="#7C7C7D"/><path d="M421.04 292.555c.011-.2.035-.401.071-.602.366-2.207 2.101-3.884 3.294-5.784a12.676 12.676 0 001.913-6.162c.165-4.073.047-9.302 1.807-13.08 1.582-3.399 5.349-5.253 7.274-8.44 1.063-1.771 1.394-3.86 1.866-5.867.756-3.199 1.972-6.351 4.109-8.842 1.665-1.936 3.826-3.376 5.952-4.792 2.066-1.382 4.157-2.774 6.506-3.601 3.083-1.086 6.495-1.44 7.924 1.724 1.157 2.561.567 6.185-.649 8.593-1.051 2.102-2.728 3.802-4.299 5.549a81.904 81.904 0 00-7.475 9.644c-.625.944-1.251 1.948-1.393 3.081-.142 1.098.201 2.184.331 3.282.696 5.548-1.595 10.034-5.881 13.41-3.389 2.668-5.491 4.179-6.353 8.794-.532 2.857-.768 5.891-2.35 8.323-.65.991-1.5 1.841-2.267 2.738a21.548 21.548 0 00-5.019 11.982c-.189 2.196-.661 7.142-4.18 6.139-4.311-1.216-3.791-13.812-2.527-16.798.543-1.264 1.346-2.444 1.605-3.802.343-1.794-.354-3.671-.259-5.489z" fill="#343434"/><path d="M402.772 301.739c-.036-1.605.2-3.27.755-5.005.685-2.101 1.795-4.202 1.465-6.386-.555-3.612-4.712-5.572-6.011-8.984-1.771-4.674 2.397-9.372 3.33-14.283.791-4.167-.803-8.358-1.878-12.454-.46-1.771-3.093-11.84 2.138-10.235.826.26 1.358 1.051 1.759 1.806 2.539 4.828 3.177 10.943 7.227 14.91 1.653 1.629 3.803 2.715 5.373 4.415 2.492 2.715 3.224 6.716 2.657 10.364-.992 6.363-7.274 10.624-4.759 17.14 1.039 2.716 2.834 5.065 4.299 7.567 3.034 5.206 9.21 26.1-3.212 18.888-6.59-3.825-12.978-10.046-13.143-17.743z" fill="#fff" stroke="#343434" stroke-miterlimit="10"/><path d="M427.263 302.176c.071-.142.142-.271.212-.413 1.547-2.951 3.602-5.607 5.196-8.535 1.287-2.373 2.268-4.922 3.708-7.213 1.441-2.29 3.448-4.367 6.034-5.158 1.595-.484 4.181-.189 5.432 1.003.414.39.721.874 1.122 1.275.721.732 1.677 1.169 2.551 1.7 4.475 2.703 6.4 7.803 8.03 12.501 1.783 5.147 3.956 9.515 4.676 14.933.165 1.216.272 2.621-.578 3.518-.709.755-1.913.862-2.894.531-.98-.33-1.795-1.027-2.55-1.735-.992-.921-1.961-1.901-2.563-3.105-.508-1.027-.732-2.172-1.311-3.163-.684-1.181-1.818-2.019-2.845-2.916-3.012-2.597-4.854-5.714-6.991-8.948-2.161.885-4.287 3.707-6.625 4.946-2.043 1.086-5.456 1.476-6.589 3.742-1.122 2.231-.602 5.466-1.405 7.909-1.795 5.442-5.987 4.663-5.409-1.133a27.51 27.51 0 012.799-9.739z" fill="#fff" stroke="#343434" stroke-miterlimit="10"/><path d="M440.489 312.564h-40.115v5.017h3.212l4.724 26.738h24.243l4.712-26.738h3.224v-5.017z" fill="#343434"/><path d="M402.465 317.994h35.933" stroke="#fff" stroke-miterlimit="10"/><path d="M402.323 279.039a.98.98 0 100-1.96.98.98 0 000 1.96zm9.789 2.927c0 .543-.437.98-.98.98a.978.978 0 01-.98-.98c0-.543.437-.979.98-.979.543.011.98.448.98.979zm-1.96 10.766c0 .543-.437.98-.98.98a.978.978 0 01-.98-.98c0-.543.437-.98.98-.98.543 0 .98.437.98.98zm5.869-21.52c0 .543-.437.98-.98.98a.978.978 0 01-.98-.98c0-.543.437-.979.98-.979.543 0 .98.436.98.979zm-11.738-19.56c0 .543-.437.98-.98.98a.978.978 0 01-.98-.98c0-.543.437-.98.98-.98.543 0 .98.437.98.98zm12.718 53.794a.98.98 0 100-1.96.98.98 0 000 1.96zm-7.829-2.928c0 .543-.437.98-.98.98a.978.978 0 01-.98-.98c0-.543.437-.979.98-.979.543 0 .98.436.98.979zm-.968-36.193c0 .543-.437.98-.98.98a.978.978 0 01-.981-.98c0-.543.437-.98.981-.98.531 0 .98.437.98.98z" fill="#343434"/><path opacity=".31" d="M219.241 407.049c-6.637-1.322-13.226-2.999-19.745-4.817-6.128-1.699-12.588-3.754-16.709-8.593-12.399-14.532 7.817-29.536 18.516-35.792 8.739-5.112 19.142-11.12 29.569-9.609 5.916.85 11.49 3.27 16.934 5.749 18.15 8.263 36.288 17.553 56.056 20.221 4.145.555 38.484 1.464 36.914 7.059-.272.98-1.087 1.712-1.878 2.361-7.215 5.844-16.213 8.96-25.022 11.923-22.248 7.46-45.074 14.685-68.538 14.437-8.798-.083-17.489-1.216-26.097-2.939z" fill="#7C7C7D"/><path d="M231.451 363.289c-2.882 5.265 1.618 9.066 5.373 12.607 1.027.968 2.137 1.889 3.424 2.444 2.244.956 4.795.732 7.227.46 17.43-1.936 35.19-4.285 52.325-7.968 4.026-.862 8.018-1.924 12.033-2.833 5.231-1.181 10.675-3.459 15.67-5.454a50.129 50.129 0 0013.97-8.417c.07-.059.141-.129.212-.188.72-.437 1.346-.957 1.842-1.842 2.149-2.455 3.637-5.513 2.397-8.37-1.428-3.293-5.597-4.237-9.175-4.521-10.687-.85-21.397.307-31.966 1.889-7.121 1.074-14.182 2.585-21.338 3.471-7.275.897-14.218.094-21.457.259-12.494.307-24.515 7.461-30.537 18.463z" fill="#343434"/><path d="M262.484 337.283c-4.428-1.747-8.986-.106-11.419-5.147-.886-1.818-1.299-3.824-1.937-5.737-2.007-5.926-6.4-10.99-11.985-13.823 4.357-4.096 10.191-6.15 15.493-8.913a59.79 59.79 0 0013.379-9.491c3.684-3.458 9.388-10.872 6.341-16.255-2.456-4.332-8.549-2.974-12.493-1.971-5.492 1.405-10.274 1.665-15.234 4.899-4.77 3.116-8.691 7.319-12.541 11.521-6.01 6.552-19.118 19.36-10.545 28.556 4.854 5.206 9.861 10.187 15.718 14.26 1.653 1.145 3.353 2.243 5.184 3.045 3.637 1.606 5.042 4.569 8.691 6.198 3.035 1.357 6.27 2.349 9.6 2.514 2.468.118 6.472-.448 6.708-3.423.212-2.786-2.634-5.312-4.96-6.233z" fill="#fff" stroke="#343434" stroke-miterlimit="10"/><path d="M324.35 329.256c-2.149 2.845-5.751 4.71-9.187 3.907-3.637-.85-6.046-4.238-8.007-7.425-3.105-5.064-6.01-10.341-7.569-16.078-1.712-6.315-2.515-16.361 3.755-20.552 4.464-2.986 11.75-1.286 15.198 2.526 7.44 8.24 12.364 26.183 6.625 36.406-.26.413-.532.826-.815 1.216z" fill="#fff" stroke="#000" stroke-miterlimit="10"/><path d="M312.966 278.803c-5.514-5.832-12.068-10.129-20.665-9.904-2.314.059-4.617.436-6.932.519-8.124.283-16.166-1.735-23.995 1.381-8.349 3.341-16.095 8.11-23.417 13.28-.59.414 13.698 20.009 15.222 21.792 5.916-4.332 4.499 16.078 4.404 18.84-.236 6.871-.401 13.823 1.004 20.588.343-.473.744-.992 1.311-1.11.697-.154 1.134.685 1.759.838 1.323.331 3.189-.012 4.559-.024 2.621-.011 5.255 0 7.888-.023 6.058-.047 12.127-.071 18.126-.921 3.141-.437 6.247-.885 9.365-.838 1.641-5.702 1.074-12.572 1.228-18.238.165-5.454-.272-10.79.153-16.22a170.651 170.651 0 0022.732-7.342c.449-.178-3.543-9.244-3.98-10.117-1.7-3.4-3.731-6.646-6.176-9.574a54.681 54.681 0 00-2.586-2.927z" fill="#343434"/><path d="M269.888 380.571c-1.122 1.121-24.751 6.304-24.751 6.304l-1.11-12.006 21.976-7.862 3.885 13.564z" fill="#fff" stroke="#343434" stroke-miterlimit="10"/><path d="M329.664 366.228c2.763-1.582 5.514-3.164 8.49-4.285 3.153-1.18 6.637-1.912 9.069-4.238 2.563-2.467 3.378-6.197 4.063-9.691.767-3.884.755-8.24-.319-12.077-1.524-5.453-5.94-10.034-11.502-11.297a15.18 15.18 0 00-10.049 1.228c-2.267 1.145-4.204 2.845-6.448 4.037-1.865.992-3.908 1.617-5.88 2.385-5.999 2.337-11.514 5.819-16.97 9.125-5.491 3.317-10.403 7.484-15.705 11.073-2.09 1.416-24.102 12.099-24.102 12.099 2.858 6.351 5.35 12.891 7.959 19.36 14.23-1.924 27.952-6.398 41.791-10.117 2.74-.732 5.291-1.841 8.042-2.467 3.106-.708 6.011-2.077 8.786-3.588.944-.496 1.866-1.027 2.775-1.547zm-85.318 21.91c-4.358.861-8.727-.071-13.427-.579-3.66-.389-7.415.284-11.053-.283-4.865-.744-8.644-4.191-8.998-9.042-.201-2.739-.307-5.785 1.5-7.851 1.476-1.688 3.92-2.254 6.152-2.042 2.232.201 4.346 1.063 6.471 1.795 3.626 1.251 7.369 2.148 11.124 2.939 3.035.649 5.657 2.16 8.668.661.165-.083.342-.165.519-.106.178.059.272.271.331.448a130.437 130.437 0 012.893 9.161c.449 1.605 1.181 2.538-.13 3.529-1.039.768-2.798 1.122-4.05 1.37z" fill="#343434"/><path d="M291.427 380.571c1.122 1.121 24.751 6.304 24.751 6.304l1.11-12.006-21.976-7.862-3.885 13.564z" fill="#fff" stroke="#343434" stroke-miterlimit="10"/><path d="M230.849 367.633c-4.547-1.712-8.963-3.73-13.144-6.245-1.405-.85-2.798-1.77-3.802-3.069-1.417-1.83-1.889-4.202-2.326-6.481-1.618-8.487-3.897-14.956 2.255-22.169 5.007-5.867 13.061-8.145 19.874-3.907 4.429 2.75 7.404 7.744 12.317 9.479 2.645.932 5.68.744 8.23 1.936 2.35 1.086 4.677 2.892 6.932 4.25 5.491 3.317 10.404 7.484 15.706 11.072 2.09 1.417 24.101 12.1 24.101 12.1-2.857 6.351-5.349 12.891-7.959 19.36-14.229-1.924-27.951-6.398-41.791-10.117-6.849-1.841-13.757-3.707-20.393-6.209zm86.121 20.505c4.357.861 8.726-.071 13.426-.579 3.661-.389 7.416.284 11.053-.283 4.605-.708 9.848-5.277 10.061-10.152.059-1.523-.331-3.034-.909-4.45-.307-.744-.662-1.476-1.157-2.102-1.122-1.416-2.894-2.243-4.7-2.408-2.764-.26-5.527.638-8.137 1.405-2.692.791-5.172 1.216-7.782 2.337a20.37 20.37 0 01-10.698 1.476c-.945-.13-1.913-.319-2.823-.047-2.042.602-1.842 3.671-1.995 5.359-.236 2.538-.354 5.147-1.382 7.52a16.249 16.249 0 005.043 1.924z" fill="#343434"/><path d="M306.436 289.415v-.106l-.177-2.987c-.035-.519-.059-1.038.024-1.546.248-1.558 1.488-2.739 2.645-3.801.874-.803 8.301-8.051 8.868-7.626 2.315 1.759 3.743.189 5.432-1.617.52-.555 1.039-1.204 1.027-1.96-.023-.755-.932-1.464-1.535-1.015a118.068 118.068 0 003.921-4.557c1.122-1.369 2.232-2.207 1.464-4.013-1.228-2.916-3.79-5.112-6.625-6.493-2.243-1.098-5.845-2.632-8.396-2.443-2.822.212-4.274 2.585-6.388 4.037-.095.059-.201.13-.307.118-.13-.012-.236-.118-.343-.213-.779-.708-2.066-.578-2.916.059-.851.626-1.335 1.629-1.724 2.609-.248.626-.461 1.311-.343 1.972.13.661.72 1.286 1.394 1.216-.532.082-1.406 4.096-1.547 4.615-.721 2.55-2.291 3.99-4.074 5.962-1.606 1.782-3.555 3.694-5.952 3.6-1.063-.047-2.385-.401-2.999.472-.213.295-.26.661-.296 1.027-.425 5.253 2.953 9.916 7.192 12.678 2.22 1.429 11.868 5.383 11.655.012z" fill="#fff" stroke="#343434" stroke-miterlimit="10"/><path d="M304.96 351.354h-60.472a1.955 1.955 0 01-1.961-1.959V312.93c0-1.086.874-1.96 1.961-1.96h60.472c1.086 0 1.96.874 1.96 1.96v36.465a1.955 1.955 0 01-1.96 1.959z" fill="#E30613"/><path d="M278.509 329.905c0 2.09-1.701 3.79-3.791 3.79s-3.791-1.7-3.791-3.79a3.795 3.795 0 013.791-3.789 3.78 3.78 0 013.791 3.789zm55.359-76.848a5.608 5.608 0 00-.307-1.157c-.39-.992-1.063-1.877-2.008-2.361-.732-.378-1.558-.508-2.373-.567a19.503 19.503 0 00-2.87-.035c-.921.047-1.842.165-2.763.106-1.441-.094-2.81-.602-4.145-1.121-1.346-.508-2.716-1.039-4.145-1.145-2.976-.236-5.089 2.042-6.884 4.131-2.008 2.349-3.543 5.065-4.995 7.78-2.834 5.253-3.696 11.757 1.641 15.841 6.991 5.348 15.316-1.947 20.547-6.409 1.075-.909 2.279-1.523 3.236-2.598 1.063-1.18 1.877-2.561 2.621-3.954.733-1.358 1.406-2.751 1.902-4.214.46-1.381.767-2.845.543-4.297zm-23.795 17.695c-1.074-.248-2.255-.59-3.141-1.275-.638-.484.095-1.523.709-1.015.744.614 1.842.85 2.751 1.098.685.189.366 1.345-.319 1.192zm16.674-9.219c-.201.755-.649 1.428-1.145 2.077-2.209 2.916-5.409 6.599-8.621 8.417-.118.071-.248.13-.366.189-.874-2.999-1.96-5.962-4.711-7.732-2.409-1.547-5.267-1.795-8.042-1.429.992-4.155 4.168-10.529 9.022-10.588 1.806-.024 3.507.814 4.983 1.841 1.476 1.039 2.799 2.278 4.31 3.258 1.712 1.122 5.267 1.322 4.57 3.967z" fill="#343434"/><path d="M316.379 275.427c.142-.366.307-.72.472-1.075 1.311-2.727 4.216-3.86 6.472-5.808 1.393-1.192 2.822-2.136 4.274-3.246.697-.531 1.276-1.334 1.996-1.782.472-.284 1.122-.343 1.535.035.319.283.413.756.437 1.181.189 2.809-1.382 4.993-2.751 7.259-1.205 1.984-3.082 3.223-4.334 5.147-1.228 1.889-1.028 4.333-.78 6.575l1.24 11.298c.39 3.529 1.276 6.48 2.114 9.904 1.299 5.241 1.216 11.344 1.311 16.715.106 5.395-3.472 11.864-9.069 12.997-11.266 2.278-8.821-13.634-9.117-20.033-.236-5.087.981-10.281 2.126-15.18 1.205-5.124 1.334-10.424 2.078-15.618.402-2.809.921-5.725 1.996-8.369z" fill="#fff" stroke="#343434" stroke-miterlimit="10"/><path d="M316.332 328.925c.012.473 0 .921-.071 1.323-.165.991-.874 1.959-1.866 2.113-1.063.165-2.019-.614-2.739-1.405-2.87-3.164-4.358-7.26-4.311-11.51.012-1.204.142-2.479.839-3.459.697-.991 2.125-1.546 3.153-.908.696.425 1.027 1.251 1.311 2.018.956 2.574 1.913 5.159 2.869 7.732.413 1.11.768 2.703.815 4.096z" fill="#fff"/><path d="M320.323 329.905c-.543.354-1.133.602-1.783.531-.484-.059-.543.685-.106.815.968.283 1.877.059 2.491-.756.272-.342-.248-.814-.602-.59zm-97.186-14.519c-.484-.461-.791-1.098-.696-1.783.071-.496-.13-.992-.65-1.145-.437-.13-1.074.153-1.145.649-.201 1.346.165 2.644 1.169 3.589.874.826 2.196-.496 1.322-1.31z" fill="#343434"/><path d="M258.634 376.793a217.247 217.247 0 0017.796 3.577m21.775-9.184a137.625 137.625 0 012.528-5.548c-7.664-4.297-15.127-8.877-22.709-13.292m-29.191 20.516a116.874 116.874 0 01-16.367-5.217" stroke="#fff" stroke-miterlimit="10"/></svg>