<svg width="64" height="64" viewBox="0 0 64 64" fill="none" xmlns="http://www.w3.org/2000/svg"><path d="M61.6 24.785c0-4.075-1.586-7.906-4.467-10.787l-9.53-9.53A15.154 15.154 0 0036.816 0H19.624a.937.937 0 100 1.875h15.084a7.11 7.11 0 017.101 7.101v4.893a5.929 5.929 0 005.922 5.922h4.893c3.908 0 7.088 3.173 7.101 7.078v31.209a4.051 4.051 0 01-4.046 4.047h-40.95a4.031 4.031 0 01-3.911-3.004l-.04-5.783h30.406c4.127 0 7.485-3.358 7.485-7.485v-2.027a.938.938 0 00-1.875 0v2.027a5.616 5.616 0 01-5.61 5.61H7.577a3.306 3.306 0 01-3.302-3.303V27.87a5.153 5.153 0 003.302 1.192h33.607a5.616 5.616 0 015.61 5.61v5.404a.937.937 0 101.875 0v-5.404c0-4.127-3.358-7.485-7.485-7.485H10.682V5.922a4.051 4.051 0 014.047-4.047h1.146a.937.937 0 100-1.875h-1.146a5.929 5.929 0 00-5.921 5.923v12.785H7.577A5.183 5.183 0 002.4 23.885V48.16a5.183 5.183 0 005.177 5.178h1.326l.04 5.908a1 1 0 00.026.212A5.9 5.9 0 0014.73 64h40.95a5.929 5.929 0 005.921-5.922V24.784zM7.577 20.583h1.23v6.604h-1.23a3.306 3.306 0 01-3.302-3.302 3.306 3.306 0 013.302-3.302zm45.047-2.666h-4.893a4.052 4.052 0 01-4.047-4.048V8.976a8.95 8.95 0 00-2.748-6.458 13.317 13.317 0 015.34 3.276l9.531 9.53a13.317 13.317 0 013.276 5.34 8.951 8.951 0 00-6.459-2.748z" fill="#E30613"/><path d="M40.157 35.222a.937.937 0 100-1.875h-4.834a.937.937 0 00-.937.937V46.21a.937.937 0 101.875 0v-5.14h3.512a.937.937 0 100-1.874H36.26v-3.975h3.896zM23.03 33.347a.938.938 0 00-.937.939v11.73c0 .073.01.144.025.212a.937.937 0 00.937.92h.003c.102-.001 2.507-.01 3.465-.027 1.664-.03 3.146-.783 4.172-2.122.946-1.235 1.467-2.922 1.467-4.752 0-4.127-2.313-6.9-5.754-6.9h-3.377zm7.257 6.9c0 2.904-1.561 4.96-3.796 5-.57.01-1.694.017-2.502.02a2059.77 2059.77 0 01-.012-5.033c0-.973-.005-3.595-.007-5.012h2.438c1.875 0 3.879 1.32 3.879 5.025zm-17.464-6.988a.937.937 0 00-.938.935V46.21a.938.938 0 001.875 0v-4.286c.778-.005 1.857-.01 2.408-.01 2.423 0 4.394-1.941 4.394-4.328 0-2.386-1.972-4.327-4.394-4.327h-3.345zm5.864 4.328c0 1.329-1.154 2.452-2.52 2.452-.547 0-1.61.005-2.389.01-.004-.8-.01-1.904-.01-2.462 0-.472-.002-1.622-.005-2.453h2.405c1.365 0 2.519 1.123 2.519 2.453z" fill="#E30613"/></svg>