<svg width="64" height="64" viewBox="0 0 64 64" fill="none" xmlns="http://www.w3.org/2000/svg"><path d="M32 1.8c16.6 0 30.3 13.5 30.3 30.3S48.6 62.3 32 62.3 1.8 48.6 1.8 32 15.4 1.8 32 1.8z" stroke="#E30613" stroke-width="1.935" stroke-miterlimit="10"/><path d="M30.3 35.4h-4.1l-8.3-13.9h-.1v13.9h-4.1V14.8h4.1l8.3 13.9h.1V14.8h4.1v20.6zm20.4-8.5c0 2.5-.8 4.6-2.4 6.3-1.6 1.6-3.7 2.5-6.2 2.5s-4.6-.8-6.2-2.5c-1.6-1.6-2.4-3.7-2.4-6.3v-3.7c0-2.5.8-4.6 2.4-6.3 1.6-1.7 3.6-2.5 6.2-2.5s4.6.8 6.2 2.5c1.6 1.7 2.4 3.7 2.4 6.3v3.7zm-4.1-3.7c0-1.6-.4-2.9-1.2-3.9-.8-1-1.9-1.5-3.3-1.5s-2.5.5-3.3 1.5c-.8 1-1.2 2.3-1.2 3.9v3.7c0 1.6.4 3 1.2 4 .8 1 1.9 1.5 3.3 1.5s2.5-.5 3.3-1.5c.8-1 1.2-2.4 1.2-4v-3.7zM19 46.6c0-.4-.1-.7-.4-1-.3-.2-.8-.5-1.5-.7-1.2-.4-2.1-.8-2.7-1.3-.6-.5-.9-1.2-.9-2s.3-1.5 1-2.1c.7-.5 1.6-.8 2.7-.8s2.1.3 2.8.9c.7.6 1 1.3 1 2.3h-2c0-.5-.2-.9-.5-1.2-.3-.3-.8-.4-1.3-.4s-.9.1-1.2.4c-.3.2-.4.6-.4.9 0 .4.2.6.5.9.3.2.8.5 1.6.7 1.1.3 2 .7 2.6 1.3.6.5.9 1.2.9 2.1 0 .9-.3 1.6-1 2.1s-1.6.8-2.7.8-2.1-.3-2.9-.8c-.8-.6-1.2-1.4-1.2-2.5h2c0 .6.2 1.1.5 1.4.4.3.8.4 1.5.4.6 0 1-.1 1.3-.3.2-.4.3-.7.3-1.1zm5.7-1v3.8h-2.1V39h4c1.2 0 2.1.3 2.8.9.7.6 1 1.4 1 2.4s-.3 1.8-1 2.4c-.7.6-1.6.9-2.8.9h-1.9zm0-1.6h1.9c.6 0 1-.2 1.3-.5.3-.3.4-.7.4-1.2s-.1-.9-.4-1.2c-.3-.3-.7-.5-1.3-.5h-1.9V44zm11.4 3.1h-3.4l-.7 2.2h-2.2L33.3 39h2.1l3.5 10.4h-2.2l-.6-2.3zm-2.9-1.6h2.3l-1.1-3.7-1.2 3.7zm12.1 1.1L48 39h2.7v10.4h-2.1v-7.1l-2.6 7h-1.4L42 42.2v7.1h-2.1V39h2.7l2.7 7.6z" fill="#E30613"/><path d="M13.6 50.4l-3 3m42.8-42.8l-4.8 4.8" stroke="#E30613" stroke-width="1.935" stroke-miterlimit="10" stroke-linecap="round"/></svg>