<svg width="190" height="43" viewBox="0 0 190 43" fill="none" xmlns="http://www.w3.org/2000/svg"><path d="M61.662 30.036H57.32V15.448h-5.312v-3.381h15.01v3.38h-5.355v14.589z" fill="url(#paint0_linear)"/><path d="M70.748 30.496c-1.123 0-3.21-.206-4.58-1.598-1.112-1.135-1.675-2.794-1.675-4.931 0-2.75.909-4.762 2.702-5.979a6.66 6.66 0 013.65-1.06c1.392 0 3.922.401 5.267 3.086.701 1.512.835 3.183.755 4.82h-8.373c.032 1.263.286 2.749 2.302 2.79 1.099.027 1.72-.51 1.985-1.693h3.795l-.022.258c-.043.498-.142 1.665-1.254 2.806-.924.955-2.584 1.502-4.554 1.502l.002-.001zm1.904-8.387c-.048-1.081-.441-2.258-1.929-2.258-1.608 0-1.997 1.425-2.087 2.258h4.016z" fill="url(#paint1_linear)"/><path d="M83.017 30.327c-2.853.096-4.415-1.645-4.448-3.892 0-1.028.362-2.918 2.788-4.015 1.42-.469 1.911-.584 4.807-.698l.038 2.561c-4.153-.088-4.024 2.129-2.977 2.972.956.77 3.122.274 2.97-2.978l-.084-2.556c-.005-.63-.038-.949-.16-1.308-.291-.813-1.218-.854-1.401-.854-.49 0-.933.214-1.185.574-.23.347-.23.684-.23.955v.238h-4.083l.01-.248c.022-.616.077-2.059 1.511-3.064.98-.688 2.302-1.037 3.927-1.037 1.188 0 3.369.215 4.638 1.656.925 1.09.925 2.645.925 3.156l.025 4.915c0 1.154.096 2.153.292 3.048l.063.289-3.778.014c-.084-.123-.16-1.24-.16-1.24h-.028c-.05.254-1.44 1.45-2.993 1.514" fill="url(#paint2_linear)"/><path d="M108.82 30.034v-7.426c0-1.513-.317-2.52-1.86-2.52-1.86 0-2.007 1.553-2.007 3.584v6.358h-4.174v-7.495c0-1.185-.14-2.448-1.81-2.448-2.058 0-2.058 1.702-2.058 2.52v7.426h-4.174v-10.16c0-.68-.039-1.402-.123-2.276l-.025-.26h4.031l.094 1.187c.573-.625 1.655-1.454 3.664-1.454 1.318 0 3.024.364 3.953 2.025.869-1.346 2.176-2 3.989-2 2.574 0 3.671 1.457 4.024 2.083.656 1.045.651 2.474.648 3.514v7.34h-4.174l.002.002z" fill="url(#paint3_linear)"/><path d="M122.08 27.574l5.523-15.483h2.15l-6.662 17.945h-2.15l-6.704-17.945h2.277l5.566 15.483z" fill="url(#paint4_linear)"/><path d="M131.292 30.034V17.413h1.971v12.62h-1.971zm-.124-15.656v-2.29h2.219v2.29h-2.219z" fill="url(#paint5_linear)"/><path d="M141.537 30.4c-3.928 0-5.688-3.351-5.688-6.675 0-3.216 1.811-6.675 5.785-6.675 3.863.034 5.911 2.555 5.911 7.248h-9.592c.077 1.463.664 4.289 4.053 4.289 1.616 0 2.993-1.117 3.35-2.716l.042-.188h2.069c-.998 4.247-3.703 4.655-5.932 4.709l.002.009zm3.89-7.903c-.256-2.316-1.618-3.638-3.766-3.638-2.323 0-3.395 1.904-3.637 3.637h7.403z" fill="url(#paint6_linear)"/><path d="M157.495 17.415h2.066l3.542 9.722 3.415-9.722h2.192l-4.806 12.62h-1.771l-3.668-10.076-3.752 10.077H152.9l-4.765-12.621h2.151l3.583 9.83 3.626-9.83z" fill="url(#paint7_linear)"/><path d="M174.887 30.4c-3.928 0-5.687-3.351-5.687-6.675 0-3.216 1.81-6.675 5.784-6.675 4.071.004 5.953 2.919 5.911 7.248h-9.592c.077 1.463.664 4.289 4.053 4.289 1.627-.04 2.93-.899 3.392-2.904h2.069c-1.013 4.16-3.733 4.672-5.932 4.709l.002.009zm3.89-7.903c-.256-2.316-1.618-3.638-3.766-3.638-2.323 0-3.395 1.904-3.637 3.637h7.403z" fill="url(#paint8_linear)"/><path d="M183.699 30.034v-9.649c.017-.963-.071-1.837-.123-2.72l-.015-.252h2.025l.049 1.176c.6-.907 1.579-1.497 2.627-1.538a8.19 8.19 0 01.445-.01c.354 0 .711.017 1.057.033l.231.011.005.227v1.662c-3.453-.576-4.225 1.628-4.267 3.2l-.084 7.859" fill="url(#paint9_linear)"/><path d="M38.662 0H4.461C1.98.031-.012 1.988 0 4.383v33.456c-.013 2.405 1.994 4.365 4.485 4.383h34.202c2.491-.018 4.497-1.978 4.486-4.383V4.383C43.185 1.973 41.17.012 38.675 0h-.013zM21.57 38.569c-9.916-.074-17.896-7.887-17.83-17.458-.066-9.57 7.914-17.384 17.83-17.458 9.921.067 17.909 7.883 17.843 17.458.066 9.575-7.921 17.39-17.843 17.458z" fill="url(#paint10_linear)"/><path d="M38.123 21.111l-12.375-5.595.995 3.585H16.405l.994-3.585-12.375 5.6 12.383 5.594-.994-3.585h10.338l-.994 3.585 12.366-5.595" fill="url(#paint11_linear)"/><defs><linearGradient id="paint0_linear" x1="59.512" y1="30.036" x2="59.512" y2="12.067" gradientUnits="userSpaceOnUse"><stop stop-color="#096FD2"/><stop offset="1" stop-color="#0E8EE9"/></linearGradient><linearGradient id="paint1_linear" x1="70.646" y1="30.497" x2="70.734" y2="16.928" gradientUnits="userSpaceOnUse"><stop stop-color="#096FD2"/><stop offset="1" stop-color="#0E8EE9"/></linearGradient><linearGradient id="paint2_linear" x1="84.506" y1="30.314" x2="84.506" y2="16.961" gradientUnits="userSpaceOnUse"><stop stop-color="#096FD2"/><stop offset="1" stop-color="#0E8EE9"/></linearGradient><linearGradient id="paint3_linear" x1="102.791" y1="30.034" x2="102.791" y2="17.07" gradientUnits="userSpaceOnUse"><stop stop-color="#096FD2"/><stop offset="1" stop-color="#0E8EE9"/></linearGradient><linearGradient id="paint4_linear" x1="121.995" y1="30.036" x2="121.995" y2="12.091" gradientUnits="userSpaceOnUse"><stop stop-color="#096FD2"/><stop offset="1" stop-color="#0E8EE9"/></linearGradient><linearGradient id="paint5_linear" x1="132.277" y1="30.034" x2="132.277" y2="12.087" gradientUnits="userSpaceOnUse"><stop stop-color="#096FD2"/><stop offset="1" stop-color="#0E8EE9"/></linearGradient><linearGradient id="paint6_linear" x1="141.697" y1="30.401" x2="141.697" y2="17.05" gradientUnits="userSpaceOnUse"><stop stop-color="#096FD2"/><stop offset="1" stop-color="#0E8EE9"/></linearGradient><linearGradient id="paint7_linear" x1="158.423" y1="30.036" x2="158.423" y2="17.415" gradientUnits="userSpaceOnUse"><stop stop-color="#096FD2"/><stop offset="1" stop-color="#0E8EE9"/></linearGradient><linearGradient id="paint8_linear" x1="175.048" y1="30.401" x2="175.048" y2="17.05" gradientUnits="userSpaceOnUse"><stop stop-color="#096FD2"/><stop offset="1" stop-color="#0E8EE9"/></linearGradient><linearGradient id="paint9_linear" x1="186.78" y1="30.034" x2="186.78" y2="17.04" gradientUnits="userSpaceOnUse"><stop stop-color="#096FD2"/><stop offset="1" stop-color="#0E8EE9"/></linearGradient><linearGradient id="paint10_linear" x1="21.587" y1="42.342" x2="21.587" y2="-.013" gradientUnits="userSpaceOnUse"><stop stop-color="#096FD2"/><stop offset="1" stop-color="#0E8EE9"/></linearGradient><linearGradient id="paint11_linear" x1="21.576" y1="26.712" x2="21.572" y2="15.514" gradientUnits="userSpaceOnUse"><stop stop-color="#096FD2"/><stop offset="1" stop-color="#0E8EE9"/></linearGradient></defs></svg>