<svg width="190" height="53" viewBox="0 0 190 53" fill="none" xmlns="http://www.w3.org/2000/svg"><path d="M19.024 3.898c.344.06.7.106 1.045.165a16.958 16.958 0 017.612 3.333c2.79 2.156 4.738 4.923 5.83 8.257.392 1.19.642 2.414.736 3.662.369 4.429-.807 8.422-3.526 11.943-1.437 1.873-3.23 3.369-5.308 4.5a.832.832 0 00-.38.4c-2.043 4.24-4.097 8.492-6.152 12.731a.567.567 0 01-.142.2V32.284c.332-.07.665-.118.985-.2 4.49-.99 7.992-4.57 8.871-9.07 1.2-6.147-2.743-12.119-8.894-13.473-.262-.035-.535-.082-.808-.118-.119-.012-.178-.07-.166-.188V4.18c0-.094-.012-.188-.012-.283h.309z" fill="#E11F25"/><path d="M15.592 3.898v5.23c0 .259 0 .247-.238.294-2.244.365-4.227 1.284-5.925 2.791-1.995 1.779-3.266 3.97-3.729 6.596-.594 3.404.178 6.501 2.328 9.21 1.805 2.285 4.191 3.675 7.065 4.217.155.023.309.047.475.082v5.442c-.13 0-.25.011-.368 0-3.61-.436-6.78-1.826-9.476-4.24C2.767 30.88.95 27.607.26 23.732A15.79 15.79 0 01.036 20c.213-3.734 1.496-7.067 3.895-9.953C6.377 7.102 9.5 5.182 13.24 4.3c.653-.153 1.33-.236 1.995-.342a.674.674 0 00.142-.047c.071-.012.143-.012.214-.012zm33.25 12.662c-.867-.707-2.161-1.084-3.954-1.084-1.627 0-2.839.118-3.73.282v13.12h2.423v-5.04c.333.082.725.094 1.2.094 1.721 0 3.23-.46 4.227-1.437.748-.706 1.14-1.743 1.14-2.991.012-1.249-.51-2.309-1.306-2.945zm-4.061 5.476c-.5 0-.88-.012-1.2-.118v-4.463c.25-.071.725-.118 1.413-.118 1.699 0 2.72.777 2.72 2.25 0 1.542-1.117 2.449-2.933 2.449zm12.029-2.991c-1.057 0-2.185.695-2.672 2.037h-.071l-.095-1.825H51.87c.071.86.083 1.79.083 3.097v6.513h2.434v-4.982c0-.259.036-.506.072-.742.213-1.107 1.033-1.825 2.185-1.825.297 0 .51.012.724.07v-2.273a1.69 1.69 0 00-.558-.07zm6.436 0c-2.921 0-5.011 1.943-5.011 5.088 0 3.109 2.126 4.958 4.857 4.958 2.458 0 4.975-1.566 4.975-5.1.012-2.944-1.935-4.946-4.82-4.946zm-.071 8.291c-1.472 0-2.41-1.401-2.41-3.262 0-1.602.676-3.274 2.422-3.274 1.674 0 2.34 1.73 2.34 3.227.011 1.967-.95 3.31-2.352 3.31zm16.364-10.329c-1.223-1.025-2.957-1.531-5.463-1.531a26.64 26.64 0 00-3.895.282v13.086c.808.094 1.888.176 3.302.176 2.6 0 4.75-.612 6.068-1.825 1.282-1.13 2.09-2.898 2.09-5.288.011-2.25-.784-3.852-2.102-4.9zM73.98 27.089c-.498 0-1.01 0-1.342-.047v-9.54c.345-.071.891-.13 1.663-.13 3.064 0 4.774 1.696 4.762 4.629 0 3.368-1.9 5.123-5.083 5.088zm9.763-7.832v9.61H86.2v-9.61h-2.458zm1.235-3.993c-.832 0-1.378.577-1.378 1.319 0 .707.534 1.296 1.366 1.296.843 0 1.377-.59 1.377-1.296-.012-.754-.534-1.32-1.365-1.32zm10.592 3.993l-.095 1.284h-.036c-.463-.79-1.33-1.496-2.826-1.496-2.327 0-4.394 1.908-4.394 5.064 0 2.733 1.722 4.711 4.133 4.711 1.294 0 2.256-.577 2.826-1.437h.036v.837c0 2.073-1.2 2.897-2.79 2.897a6.098 6.098 0 01-2.827-.719l-.534 1.826c.83.495 2.137.777 3.384.777 1.33 0 2.743-.282 3.729-1.166 1.009-.907 1.448-2.355 1.448-4.357v-5.454c0-1.319.036-2.108.072-2.767H95.57zm-.404 5.417c0 .283-.012.613-.095.837-.285.883-1.08 1.484-1.995 1.484-1.532 0-2.375-1.32-2.375-2.968 0-1.944 1.01-3.121 2.387-3.121 1.045 0 1.746.67 1.995 1.543.071.2.083.423.083.659v1.566zm5-5.417v9.61h2.458v-9.61h-2.458zm1.247-3.993c-.808 0-1.378.577-1.378 1.319 0 .707.534 1.296 1.366 1.296.843 0 1.377-.59 1.377-1.296-.024-.754-.534-1.32-1.365-1.32zm13.299 1.743c-1.223-1.025-2.933-1.531-5.438-1.531-1.461 0-2.803.118-3.895.282v13.086c.807.094 1.888.176 3.301.176 2.601 0 4.726-.612 6.056-1.825 1.283-1.13 2.09-2.898 2.09-5.288 0-2.25-.795-3.852-2.114-4.9zm-5.533 10.082c-.499 0-1.033 0-1.366-.047v-9.54c.368-.071.891-.13 1.674-.13 3.064 0 4.774 1.696 4.75 4.629 0 3.368-1.876 5.123-5.058 5.088zm17.979-3.369c0-2.108-1.034-4.675-4.181-4.675-3.099 0-4.726 2.497-4.726 5.17 0 2.945 1.841 4.853 5 4.853 1.389 0 2.541-.248 3.384-.613l-.368-1.66a7.703 7.703 0 01-2.684.447c-1.556 0-2.921-.754-2.992-2.485h6.483c.06-.236.084-.577.084-1.037zm-6.567-.683c.095-.965.748-2.332 2.256-2.332 1.627 0 2.019 1.46 2.007 2.332h-4.263zm13.893-3.992c-1.615 0-2.671.907-3.099 1.66h-.071l-.119-1.448h-2.126c.036.836.072 1.766.072 2.862v6.748h2.458v-5.665c0-.282.035-.577.119-.777.261-.719.926-1.413 1.911-1.413 1.342 0 1.853 1.048 1.853 2.414v5.43h2.434v-5.69c0-3.038-1.745-4.121-3.432-4.121zm11.08 2.037v-1.826h-2.328v-2.473l-2.41.671v1.79h-1.378v1.826h1.378v4.511c0 1.272.237 2.155.76 2.72.463.484 1.199.778 2.125.778.748 0 1.413-.118 1.758-.247l-.036-1.838c-.285.083-.51.095-.962.095-.926 0-1.247-.59-1.247-1.779v-4.228h2.34z" fill="#7D7D7D"/><path d="M179.799 25.251a3.65 3.65 0 01-.071-.624v-1.66c0-.248.048-.495.095-.672.261-1.13 1.247-1.908 2.304-1.908 1.757 0 2.624 1.484 2.624 3.31 0 2.084-.997 3.368-2.636 3.368a2.4 2.4 0 01-2.316-1.814zm-8.003-1.401v1.413c0 .177 0 .377-.072.565-.261.742-1.009 1.414-2.078 1.414-.831 0-1.496-.46-1.496-1.46.012-1.567 1.793-1.944 3.646-1.932z" fill="#E11F25"/><path d="M179.728 15.276v4.723h.048c.629-.99 1.781-1.65 3.313-1.65 2.541 0 4.346 2.085 4.334 5.218 0 3.698-2.375 5.524-4.714 5.524-1.342 0-2.542-.495-3.29-1.767h-.035l-.131 1.531h-2.244a46.74 46.74 0 00.095-2.897V15.264h-18.597v11.424h5.89v2.168h-8.514v-13.58h-4.56v14.816H190V15.276h-10.272zm-7.588 13.591l-.178-1.13h-.071c-.618.8-1.71 1.366-3.076 1.366-2.09 0-3.254-1.496-3.254-3.062 0-2.568 2.328-3.899 6.151-3.887v-.165c0-.671-.285-1.79-2.101-1.79-1.034 0-2.09.318-2.791.754l-.511-1.696c.76-.46 2.102-.907 3.753-.907 3.313 0 4.287 2.084 4.287 4.357v3.687c0 .942.035 1.837.166 2.473h-2.375z" fill="#E11F25"/></svg>