<svg width="483" height="410" viewBox="0 0 483 410" fill="none" xmlns="http://www.w3.org/2000/svg">
<path opacity="0.31" d="M472.656 318.03H10.3444C4.62902 318.03 0 313.402 0 307.689C0 301.975 4.62902 297.348 10.3444 297.348H472.644C478.359 297.348 482.988 301.975 482.988 307.689C483 313.402 478.371 318.03 472.656 318.03Z" fill="#7C7C7D"/>
<path d="M18.0083 302.542V174.922H88.9905V194.352H38.9215V228.456H82.0233V247.521H38.9215V282.722H89.0023V302.53H18.0083V302.542Z" fill="#E30613"/>
<path d="M161.083 302.542L142.012 249.362H125.692V302.542H104.767V174.922H145.849C151.104 174.922 155.993 175.689 160.528 177.212C165.05 178.746 168.935 181.037 172.171 184.082C175.407 187.14 177.946 190.964 179.788 195.545C181.618 200.125 182.539 205.472 182.539 211.587C182.539 219.661 180.827 226.626 177.402 232.493C173.978 238.36 168.9 242.822 162.181 245.88L184.003 302.542H161.083ZM161.992 211.599C161.992 205.614 160.457 201.175 157.41 198.307C154.352 195.438 149.947 193.998 144.208 193.998H125.68V230.486H144.019C149.522 230.486 153.891 228.905 157.139 225.717C160.374 222.542 161.992 217.832 161.992 211.599Z" fill="#E30613"/>
<path d="M257.926 302.542L238.855 249.362H222.535V302.542H201.622V174.922H242.705C247.959 174.922 252.86 175.689 257.383 177.212C261.905 178.746 265.791 181.037 269.026 184.082C272.262 187.14 274.801 190.964 276.643 195.545C278.485 200.125 279.394 205.472 279.394 211.587C279.394 219.661 277.682 226.626 274.257 232.493C270.833 238.36 265.755 242.822 259.036 245.88L280.858 302.542H257.926ZM258.847 211.599C258.847 205.614 257.312 201.175 254.265 198.307C251.207 195.438 246.802 193.998 241.063 193.998H222.535V230.486H240.874C246.377 230.486 250.746 228.905 253.994 225.717C257.217 222.542 258.847 217.832 258.847 211.599Z" fill="#E30613"/>
<path d="M373.297 263.858C373.297 269.973 372.352 275.474 370.451 280.361C368.55 285.248 365.869 289.439 362.374 292.921C358.89 296.404 354.757 299.06 349.998 300.901C345.228 302.731 339.973 303.652 334.222 303.652C327.255 303.652 321.256 302.518 316.249 300.264C311.23 298.009 307.168 294.952 304.051 291.092C300.933 287.243 298.642 282.781 297.166 277.705C295.702 272.629 294.97 267.282 294.97 261.662V213.429C294.97 208.907 295.678 204.327 297.084 199.676C298.489 195.037 300.756 190.811 303.874 187.022C306.991 183.232 311.03 180.116 315.978 177.672C320.925 175.229 327.007 174.001 334.234 174.001C340.953 174.001 346.763 175.17 351.663 177.483C356.552 179.809 360.614 182.831 363.862 186.561C367.097 190.291 369.483 194.506 371.018 199.216C372.541 203.926 373.309 208.66 373.309 213.429V263.858H373.297ZM352.018 213.11C352.018 211.516 351.746 209.651 351.191 207.503C350.636 205.354 349.691 203.3 348.345 201.341C346.999 199.381 345.192 197.693 342.937 196.288C340.67 194.883 337.765 194.175 334.222 194.175C330.668 194.175 327.704 194.824 325.33 196.111C322.945 197.398 321.043 198.991 319.638 200.892C318.233 202.793 317.217 204.847 316.615 207.054C316.001 209.262 315.694 211.339 315.694 213.299L315.883 262.17C315.883 268.297 317.288 273.444 320.099 277.599C322.909 281.766 327.68 283.843 334.411 283.843C339.182 283.843 343.303 282.226 346.798 278.98C350.282 275.734 352.03 271.295 352.03 265.652V213.11H352.018Z" fill="#E30613"/>
<path d="M449.416 302.542L430.345 249.362H414.025V302.542H393.112V174.922H434.195C439.449 174.922 444.338 175.689 448.873 177.212C453.396 178.746 457.281 181.037 460.516 184.082C463.752 187.14 466.291 190.964 468.133 195.545C469.963 200.125 470.884 205.472 470.884 211.587C470.884 219.661 469.172 226.626 465.747 232.493C462.323 238.36 457.245 242.822 450.526 245.88L472.349 302.542H449.416ZM450.337 211.599C450.337 205.614 448.802 201.175 445.755 198.307C442.697 195.438 438.292 193.998 432.553 193.998H414.025V230.486H432.364C437.867 230.486 442.236 228.905 445.484 225.717C448.719 222.542 450.337 217.832 450.337 211.599Z" fill="#E30613"/>
<path d="M161 38.6367V64.7369" stroke="#343434" stroke-width="3" stroke-miterlimit="10"/>
<path d="M210.62 0H111.392V45.9438H210.62V0Z" fill="#E30613"/>
<path d="M148.27 30.1957V34.3392H143.759V30.1957H133.474V26.2176L141.421 5.81909H146.18L138.351 25.9343H143.759V18.7216H148.27V25.9343H150.36V30.1957H148.27Z" fill="white"/>
<path d="M168.487 27.4104C168.487 28.5555 168.286 29.5707 167.896 30.4442C167.507 31.3178 166.963 32.0615 166.279 32.6753C165.594 33.2891 164.814 33.7495 163.929 34.0683C163.043 34.387 162.11 34.5404 161.13 34.5404C160.15 34.5404 159.217 34.387 158.331 34.0683C157.446 33.7495 156.666 33.2891 156.005 32.6753C155.332 32.0615 154.8 31.3178 154.411 30.4442C154.021 29.5707 153.82 28.5555 153.82 27.4104V12.7844C153.82 11.6394 154.021 10.6242 154.411 9.72701C154.8 8.84166 155.344 8.08616 156.029 7.47232C156.713 6.85847 157.481 6.39809 158.355 6.07936C159.229 5.76064 160.15 5.60718 161.13 5.60718C162.11 5.60718 163.055 5.76064 163.952 6.07936C164.85 6.39809 165.629 6.85847 166.302 7.47232C166.963 8.08616 167.507 8.84166 167.896 9.72701C168.286 10.6124 168.487 11.6276 168.487 12.7844V27.4104ZM163.976 12.7844C163.976 11.8873 163.716 11.179 163.196 10.6714C162.677 10.1638 161.992 9.91588 161.142 9.91588C160.291 9.91588 159.607 10.1638 159.087 10.6714C158.567 11.179 158.308 11.8755 158.308 12.7844V27.375C158.308 28.3076 158.567 29.0159 159.087 29.5116C159.607 30.0074 160.291 30.2435 161.142 30.2435C161.992 30.2435 162.677 29.9956 163.196 29.5116C163.716 29.0159 163.976 28.3076 163.976 27.375V12.7844Z" fill="white"/>
<path d="M186.389 30.1962V34.3397H181.878V30.1962H171.592V26.2181L179.54 5.81958H184.299L176.469 25.9347H181.878V18.7221H186.389V25.9347H188.479V30.1962H186.389Z" fill="white"/>
<path d="M347.471 166.505C348.522 167.567 349.089 169.35 349.526 170.613C350.4 173.116 351.227 175.63 352.041 178.156C352.868 180.694 353.706 183.362 353.246 185.994C353.069 187.045 352.608 188.131 351.675 188.651C351.073 188.981 350.329 189.028 349.656 188.875C347.873 188.473 346.609 186.868 345.901 185.192C345.192 183.516 344.921 181.686 344.259 179.974C343.114 176.988 340.811 173.93 337.493 173.576C335.793 173.387 333.584 173.222 332.403 171.793C331.187 170.33 331.105 167.119 332.793 165.986C333.348 165.62 333.998 165.431 334.647 165.313C336.761 164.911 338.851 165.124 340.965 165.301C342.807 165.443 344.803 165.088 346.527 165.868C346.893 166.009 347.2 166.233 347.471 166.505Z" fill="white" stroke="#343434" stroke-miterlimit="10"/>
<path d="M166.715 73.6731C167.046 72.1857 167.365 70.6865 167.66 69.1873C168.298 66.0236 170.034 62.7419 167.577 59.956C165.393 57.4771 160.87 58.327 158.272 59.838C155.733 61.3136 153.974 64.3356 154.588 67.2159C155.119 69.6949 157.469 71.6545 159.996 71.7489C159.311 73.9564 158.686 76.1757 158.119 78.4186C157.304 81.6176 159.264 82.7391 162.134 82.137C162.854 81.9836 163.598 81.8183 164.177 81.3579C165.027 80.685 165.334 79.5636 165.594 78.513C165.983 76.8958 166.361 75.2903 166.715 73.6731Z" fill="white" stroke="#343434" stroke-miterlimit="10"/>
<path d="M337.434 162.657C337.009 162.562 336.572 162.468 336.147 162.385C322.638 159.894 307.936 155.751 294.131 157.014C291.156 157.285 288.215 157.852 285.239 158.041C275.19 158.678 265.543 155.113 255.871 153C251.927 152.139 247.995 151.678 244.062 150.864C239.256 149.872 234.297 150.887 229.455 150.25C225.228 149.695 221.083 147.865 216.843 148.397C211.364 149.081 206.523 152.481 205.094 157.911C204.373 160.626 204.716 163.518 205.354 166.257C205.944 168.819 206.971 171.546 209.262 172.856C214.045 175.583 223.078 173.824 228.381 173.918C235.56 174.036 242.74 174.284 249.908 174.52C264.055 174.992 278.201 175.476 292.348 175.122C306.908 174.756 321.48 175.099 336.052 175.618C336.548 171.298 337.009 166.977 337.434 162.657Z" fill="#343434"/>
<path d="M98.1895 191.023C96.0639 193.29 94.9893 196.312 94.1981 199.275C93.7376 201.022 93.5368 202.887 94.0564 204.61C94.7059 206.771 96.7134 208.777 99.1223 208.282C100.634 207.975 101.886 206.322 101.827 204.787C101.803 203.938 101.401 203.099 100.752 202.556C100.823 201.824 100.929 201.093 101.083 200.373C101.142 200.101 101.212 199.83 101.401 199.629C102.086 198.944 102.299 200.018 102.252 200.479C102.204 200.986 101.708 202.285 102.311 202.592C102.712 202.745 103.031 202.226 103.137 201.813C103.527 200.314 103.645 198.755 103.763 197.221C103.869 195.804 103.988 194.399 104.094 192.983C104.129 192.522 104.165 192.05 104.082 191.59C103.834 190.268 102.382 189.064 101 189.253C99.9962 189.418 98.9688 190.197 98.1895 191.023Z" fill="white" stroke="#343434" stroke-miterlimit="10"/>
<path opacity="0.31" d="M374.561 114.423L373.486 114.93C373.179 115.072 372.789 114.966 372.589 114.694C371.585 113.348 370.534 112.475 369.329 111.731C369.046 111.554 368.916 111.2 369.034 110.881L369.554 109.347C369.684 108.969 369.483 108.568 369.117 108.426L365.999 107.293C365.621 107.163 365.208 107.352 365.066 107.718L364.488 109.252C364.37 109.559 364.074 109.76 363.744 109.724C362.327 109.571 360.674 109.724 359.28 110.02C358.949 110.09 358.489 109.984 358.347 109.677L357.662 108.237C357.485 107.871 357.202 107.34 356.848 107.517L353.836 108.945C353.47 109.122 353.34 109.854 353.506 110.208L354.191 111.649C354.332 111.956 354.297 112.298 354.025 112.51C352.951 113.372 352.053 114.399 351.297 115.556C351.108 115.839 350.766 115.969 350.447 115.851L349.007 115.32C348.629 115.178 348.204 115.379 348.074 115.757L346.987 118.838C346.857 119.204 347.046 119.617 347.412 119.758L348.983 120.372C349.29 120.49 349.491 120.809 349.443 121.14C349.255 122.544 349.278 123.914 349.68 125.543C349.762 125.873 349.597 126.239 349.29 126.381L347.944 127.018C347.578 127.195 347.306 127.632 347.483 127.986L348.912 130.996C349.089 131.362 349.55 131.351 349.916 131.174L351.25 130.536C351.545 130.394 351.935 130.524 352.148 130.784C352.998 131.823 354.096 132.85 355.289 133.629C355.572 133.818 355.69 134.184 355.572 134.502L355.088 135.789C354.946 136.167 355.147 136.604 355.525 136.734L358.56 137.796C358.949 137.926 359.363 137.725 359.493 137.336L359.906 136.061C360.012 135.73 360.343 135.529 360.697 135.565C362.114 135.73 363.508 135.683 364.877 135.4C365.208 135.329 365.503 135.518 365.645 135.825L366.294 137.206C366.472 137.572 366.944 137.548 367.298 137.371L370.309 135.943C370.676 135.766 370.616 135.588 370.451 135.234L369.802 133.853C369.66 133.558 369.873 133.133 370.132 132.921C371.254 132.012 372.411 130.831 373.203 129.592C373.38 129.32 373.769 129.19 374.076 129.297L375.47 129.769C375.848 129.899 376.261 129.698 376.403 129.32L377.513 126.251C377.654 125.861 377.442 125.436 377.052 125.307L375.824 124.917C375.493 124.811 375.281 124.492 375.316 124.162C375.47 122.745 375.364 121.222 375.104 119.912C375.033 119.593 375.175 119.204 375.482 119.062L376.544 118.554C376.911 118.377 376.851 118.2 376.674 117.834L375.245 114.824C375.068 114.494 374.927 114.257 374.561 114.423ZM365.173 128.978C361.677 130.631 357.509 129.143 355.856 125.649C354.202 122.155 355.69 117.988 359.186 116.335C362.681 114.682 366.849 116.17 368.503 119.664C370.156 123.158 368.656 127.325 365.173 128.978Z" fill="#7C7C7D"/>
<path opacity="0.31" d="M412.23 134.573L410.79 135.258C410.376 135.459 409.857 135.305 409.585 134.939C408.227 133.121 406.81 131.941 405.181 130.949C404.791 130.713 404.626 130.229 404.779 129.804L405.476 127.727C405.653 127.219 405.381 126.664 404.885 126.487L400.67 124.964C400.162 124.787 399.607 125.035 399.418 125.543L398.639 127.609C398.485 128.022 398.072 128.282 397.635 128.234C395.722 128.022 393.49 128.234 391.601 128.636C391.164 128.73 390.538 128.588 390.349 128.175L389.428 126.239C389.192 125.755 388.814 125.035 388.318 125.26L384.256 127.184C383.771 127.42 383.582 128.4 383.807 128.895L384.728 130.831C384.929 131.244 384.87 131.705 384.504 132C383.051 133.169 381.835 134.562 380.819 136.12C380.571 136.509 380.099 136.675 379.674 136.509L377.737 135.789C377.229 135.6 376.663 135.86 376.474 136.38L375.009 140.535C374.832 141.031 375.092 141.585 375.576 141.774L377.702 142.601C378.115 142.766 378.387 143.191 378.316 143.628C378.056 145.516 378.091 147.37 378.635 149.577C378.741 150.026 378.528 150.522 378.115 150.71L376.296 151.572C375.812 151.808 375.446 152.398 375.671 152.882L377.595 156.943C377.832 157.427 378.469 157.415 378.953 157.179L380.76 156.329C381.162 156.141 381.681 156.318 381.965 156.672C383.11 158.077 384.598 159.458 386.204 160.508C386.582 160.756 386.747 161.264 386.582 161.689L385.932 163.424C385.732 163.943 386.003 164.522 386.523 164.699L390.62 166.139C391.14 166.316 391.707 166.045 391.884 165.513L392.439 163.79C392.581 163.341 393.029 163.07 393.502 163.129C395.403 163.353 397.292 163.282 399.135 162.905C399.583 162.81 399.973 163.058 400.174 163.471L401.059 165.325C401.296 165.809 401.933 165.785 402.417 165.549L406.48 163.625C406.964 163.389 406.905 163.153 406.668 162.657L405.783 160.803C405.594 160.402 405.877 159.824 406.22 159.54C407.743 158.313 409.29 156.719 410.365 155.043C410.601 154.665 411.12 154.5 411.545 154.641L413.423 155.279C413.931 155.456 414.498 155.184 414.675 154.677L416.174 150.533C416.363 150.014 416.08 149.436 415.549 149.258L413.895 148.739C413.458 148.597 413.163 148.172 413.211 147.712C413.423 145.8 413.27 143.734 412.915 141.963C412.833 141.526 413.022 141.007 413.423 140.818L414.852 140.145C415.336 139.909 415.253 139.673 415.029 139.177L413.104 135.116C412.903 134.668 412.715 134.337 412.23 134.573ZM399.536 154.216C394.824 156.447 389.18 154.441 386.948 149.719C384.716 145.009 386.724 139.366 391.447 137.135C396.159 134.904 401.803 136.911 404.035 141.633C406.267 146.343 404.259 151.985 399.536 154.216Z" fill="#7C7C7D"/>
<path d="M139.319 153.886C134.867 153.26 130.274 154.629 126.023 155.314C124.287 155.656 122.551 155.999 120.803 156.341C118.63 156.79 116.351 157.085 114.332 158.041C111.238 159.493 109.03 162.326 107.282 165.254C105.487 168.252 104.047 171.451 102.618 174.638C100.291 179.821 98.2249 185.062 96.0875 190.268C95.9576 190.575 96.0993 190.929 96.4063 191.071C99.5593 192.534 102.653 194.128 105.723 195.769C105.865 195.84 106.03 195.781 106.078 195.627C106.904 192.995 117.556 175.559 120.059 174.331C121.37 173.694 123.318 173.611 124.747 173.198C127.959 172.266 131.089 171.073 134.112 169.645C136.898 168.323 139.579 166.788 142.13 165.065C142.992 164.486 143.712 163.695 144.137 162.763C146.145 158.348 143.901 154.523 139.319 153.886Z" fill="white" stroke="#343434" stroke-miterlimit="10"/>
<path d="M274.352 216.403C273.466 214.928 272.545 213.452 271.813 211.858C271.388 210.938 270.963 209.982 270.219 209.297C269.132 208.305 267.574 208.069 266.109 207.868C263.972 207.585 261.776 207.302 259.674 207.821C258.812 208.034 257.95 208.4 257.324 209.037C255.564 210.831 257.241 214.031 258.965 215.258C260.843 216.58 263.086 216.864 264.905 218.351C266.712 219.838 267.798 222.022 268.79 224.088C269.77 226.119 270.75 228.137 271.73 230.168C271.919 230.545 272.144 230.97 272.545 231.1C272.769 231.171 273.017 231.135 273.254 231.088C275.757 230.522 277.245 227.783 277.328 225.221C277.446 221.822 275.97 219.118 274.352 216.403Z" fill="white" stroke="#343434" stroke-miterlimit="10"/>
<path d="M119.764 171.026C121.429 172.549 123.46 173.753 125.338 174.296C127.581 174.945 130.274 174.509 131.75 172.702C133.096 171.038 133.58 168.229 135.706 167.91C136.332 167.815 136.957 167.992 137.548 168.193C140.512 169.173 143.452 170.814 146.546 170.353C148.518 170.058 150.301 168.913 151.636 167.414C153.159 165.691 154.163 163.353 153.714 161.087C152.817 156.554 146.959 155.586 143.228 155.373C138.174 155.066 133.013 155.125 128.077 154.016C124.428 153.189 121.323 153.366 118.441 156.365C115.725 159.198 115.241 163.778 116.918 167.331C117.532 168.642 118.548 169.917 119.764 171.026Z" fill="white" stroke="#343434" stroke-miterlimit="10"/>
<path d="M148.14 143.014C142.106 143.627 140.193 147.641 137.076 152.198C134.501 155.975 132.069 161.571 135.399 165.537C138.079 168.736 141.622 170.164 145.117 172.183C148.081 173.883 150.467 175.205 154.234 175.052C163.385 174.674 172.643 175.701 181.89 175.654C187.806 175.618 193.486 175.665 199.178 173.871C204.161 172.301 205.956 167.461 207.267 162.645C208.601 157.734 209.298 150.71 205.873 146.39C205.436 145.835 204.928 145.327 204.338 144.867C203.476 144.194 202.472 143.746 201.457 143.332C199.532 142.541 197.418 141.845 195.387 142.317C194.926 142.423 194.49 142.589 194.041 142.73C189.908 143.982 185.857 144.513 181.547 144.973C176.694 145.493 171.675 145.02 166.845 144.525C160.74 143.899 154.316 142.388 148.14 143.014Z" fill="white" stroke="#343434" stroke-miterlimit="10"/>
<path d="M261.48 213.429C261.752 211.823 262.307 207.514 261.232 206.464C260.205 205.46 258.764 205.354 257.465 205.059C255.765 204.67 254.076 204.079 252.399 203.595C248.928 202.592 245.456 201.589 241.984 200.573C236.328 198.921 230.955 196.878 225.523 194.612C218.166 191.555 210.526 188.108 202.602 188.922C200.713 189.111 198.977 189.819 197.146 190.209C195.115 190.646 192.966 191.389 191.289 192.641C188.703 194.565 188.066 197.929 189.176 200.868C191.868 207.998 199.178 208.341 205.483 210.029C208.754 210.902 212.238 211.068 215.603 211.363C226.916 212.331 238.205 213.665 249.424 215.353C252.27 215.778 255.104 216.226 257.938 216.71C258.717 216.84 259.709 217.147 260.63 217.242C260.949 215.978 261.256 214.715 261.48 213.429Z" fill="#343434"/>
<path d="M193.687 206.133C194.171 206.263 194.667 206.275 195.186 206.145C201.185 204.61 206.405 199.263 210.006 194.517C215.781 186.892 219.3 177.955 224.732 170.176C226.397 167.792 228.64 166.139 230.022 163.577C232.478 159.032 233.659 152.941 232.714 147.842C230.872 137.985 219.453 135.081 210.774 136.545C205.082 137.501 200.004 140.806 194.336 141.868C193.627 141.998 192.872 142.116 192.305 142.565C192.116 142.707 191.986 142.99 191.892 143.344C191.915 150.25 191.951 157.144 191.844 164.061C191.785 168.358 192.281 173.871 191.703 177.401C191.348 179.573 189.624 181.969 188.939 184.129C187.333 189.193 186.826 194.624 188.609 199.723C189.317 201.777 191.207 205.472 193.687 206.133Z" fill="#343434"/>
<path d="M162.854 161.665C162.96 161.889 163.078 162.114 163.185 162.326L162.854 161.665Z" fill="#343434"/>
<path d="M161.047 154.358C163.031 151.123 164.814 147.452 166.255 143.616C168.121 138.681 169.431 133.475 169.951 128.624C170.435 124.103 170.164 119.534 169.88 115.001C169.077 101.685 168.876 88.1573 167.424 74.9006C166.054 75.5853 156.147 76.5061 156.194 76.1755C154.387 90.9314 152.569 105.687 150.762 120.443C150.337 123.925 149.9 127.431 148.766 130.749C147.585 134.184 145.696 137.324 143.936 140.499C140.937 145.906 133.982 155.479 135.316 161.724" fill="white"/>
<path d="M161.047 154.358C163.031 151.123 164.814 147.452 166.255 143.616C168.121 138.681 169.431 133.475 169.951 128.624C170.435 124.103 170.164 119.534 169.88 115.001C169.077 101.685 168.876 88.1573 167.424 74.9006C166.054 75.5853 156.147 76.5061 156.194 76.1755C154.387 90.9314 152.569 105.687 150.762 120.443C150.337 123.925 149.9 127.431 148.766 130.749C147.585 134.184 145.696 137.324 143.936 140.499C140.937 145.906 133.982 155.479 135.316 161.724" stroke="#343434" stroke-miterlimit="10"/>
<path d="M192.14 176.303C195.883 169.137 200.406 162.385 205.602 156.188" stroke="white" stroke-miterlimit="10"/>
<path d="M163.94 159.351C163.716 157.439 163.326 155.597 163.126 153.673C163.031 152.729 162.925 151.773 162.653 150.864C162.63 150.781 162.594 150.698 162.559 150.616C160.693 154.464 157.339 157.427 153.903 159.965C157.115 161.771 160.315 163.566 163.527 165.372C164.436 165.891 164.023 160.048 163.94 159.351Z" fill="#343434"/>
<path d="M129.955 161.075C129.967 161.7 129.435 162.421 129.069 162.857C134.69 165.69 135.682 177.153 135.139 182.583C134.773 186.242 133.698 189.807 133.403 193.467C132.954 198.909 134.348 204.681 138.079 208.659C142.602 213.499 150.195 214.987 156.395 212.638C162.594 210.3 167.211 204.469 168.569 197.988C171.911 182.063 156.395 168.016 146.475 157.746C142.567 153.697 137.607 150.852 131.821 151.076C130.073 151.147 128.349 151.478 126.637 151.867C122.291 152.871 118.347 154.441 116.103 158.419C114.745 160.815 112.336 162.645 111.616 165.313C111.085 167.284 111.663 169.562 113.187 170.92C114.71 172.289 117.119 172.608 118.878 171.557C122.763 169.244 121.5 160.709 126.743 160.969C126.625 160.508 126.979 160.024 127.404 159.835C127.841 159.635 128.337 159.646 128.809 159.658C129.022 159.67 129.246 159.67 129.447 159.764C129.884 159.965 129.955 160.638 129.955 161.075Z" fill="#343434"/>
<path d="M127.003 173.033C126.601 171.805 126.896 170.377 127.758 169.421L127.003 173.033Z" fill="white"/>
<path d="M127.003 173.033C126.601 171.805 126.896 170.377 127.758 169.421" stroke="#343434" stroke-miterlimit="10"/>
<path d="M231.474 157.852C229.231 163.577 224.838 168.264 222.665 174.024" stroke="white" stroke-miterlimit="10"/>
<path opacity="0.31" d="M389.392 350.186C388.92 351.047 388.672 351.98 388.707 353.019C388.79 354.955 390.254 356.631 392.014 357.446C393.773 358.26 395.769 358.354 397.706 358.295C403.811 358.083 409.751 356.371 415.395 354.117C420.39 352.122 426.365 350.103 430.25 346.278C431.231 345.31 431.892 343.74 431.136 342.595C430.581 341.745 429.471 341.474 428.467 341.309C420.898 340.01 413.057 340.376 405.617 342.265C401.402 343.315 392.014 345.452 389.392 350.186Z" fill="#7C7C7D"/>
<path d="M421.04 292.555C421.051 292.355 421.075 292.154 421.111 291.953C421.477 289.746 423.212 288.069 424.405 286.169C425.562 284.327 426.224 282.179 426.318 280.007C426.483 275.934 426.365 270.705 428.125 266.927C429.707 263.528 433.474 261.674 435.399 258.487C436.462 256.716 436.793 254.627 437.265 252.62C438.021 249.421 439.237 246.269 441.374 243.778C443.039 241.842 445.2 240.402 447.326 238.986C449.392 237.604 451.483 236.212 453.832 235.385C456.915 234.299 460.327 233.945 461.756 237.109C462.913 239.67 462.323 243.294 461.107 245.702C460.056 247.804 458.379 249.504 456.808 251.251C454.08 254.273 451.577 257.507 449.333 260.895C448.708 261.839 448.082 262.843 447.94 263.976C447.798 265.074 448.141 266.16 448.271 267.258C448.967 272.806 446.676 277.292 442.39 280.668C439.001 283.336 436.899 284.847 436.037 289.462C435.505 292.319 435.269 295.353 433.687 297.785C433.037 298.776 432.187 299.626 431.42 300.523C428.562 303.876 426.791 308.126 426.401 312.505C426.212 314.701 425.74 319.647 422.221 318.644C417.91 317.428 418.43 304.832 419.694 301.846C420.237 300.582 421.04 299.402 421.299 298.044C421.642 296.25 420.945 294.373 421.04 292.555Z" fill="#343434"/>
<path d="M402.772 301.739C402.736 300.134 402.972 298.469 403.527 296.734C404.212 294.633 405.322 292.532 404.992 290.348C404.437 286.736 400.28 284.776 398.981 281.364C397.21 276.69 401.378 271.992 402.311 267.081C403.102 262.914 401.508 258.723 400.433 254.627C399.973 252.856 397.34 242.787 402.571 244.392C403.397 244.652 403.929 245.443 404.33 246.198C406.869 251.026 407.507 257.141 411.557 261.108C413.21 262.737 415.36 263.823 416.93 265.523C419.422 268.238 420.154 272.239 419.587 275.887C418.595 282.25 412.313 286.511 414.828 293.027C415.867 295.743 417.662 298.092 419.127 300.594C422.161 305.8 428.337 326.694 415.915 319.482C409.325 315.657 402.937 309.436 402.772 301.739Z" fill="white" stroke="#343434" stroke-miterlimit="10"/>
<path d="M427.263 302.176C427.334 302.034 427.405 301.905 427.475 301.763C429.022 298.812 431.077 296.156 432.671 293.228C433.958 290.855 434.939 288.306 436.379 286.015C437.82 283.725 439.827 281.648 442.413 280.857C444.008 280.373 446.594 280.668 447.845 281.86C448.259 282.25 448.566 282.734 448.967 283.135C449.688 283.867 450.644 284.304 451.518 284.835C455.993 287.538 457.918 292.638 459.548 297.336C461.331 302.483 463.504 306.851 464.224 312.269C464.389 313.485 464.496 314.89 463.646 315.787C462.937 316.542 461.733 316.649 460.752 316.318C459.772 315.988 458.957 315.291 458.202 314.583C457.21 313.662 456.241 312.682 455.639 311.478C455.131 310.451 454.907 309.306 454.328 308.315C453.644 307.134 452.51 306.296 451.483 305.399C448.471 302.802 446.629 299.685 444.492 296.451C442.331 297.336 440.205 300.158 437.867 301.397C435.824 302.483 432.411 302.873 431.278 305.139C430.156 307.37 430.676 310.605 429.873 313.048C428.078 318.49 423.886 317.711 424.464 311.915C424.783 308.527 425.74 305.21 427.263 302.176Z" fill="white" stroke="#343434" stroke-miterlimit="10"/>
<path d="M440.489 312.564H400.374V317.581H403.586L408.31 344.319H432.553L437.265 317.581H440.489V312.564Z" fill="#343434"/>
<path d="M402.465 317.994H438.398" stroke="white" stroke-miterlimit="10"/>
<path d="M402.323 279.039C402.864 279.039 403.303 278.6 403.303 278.059C403.303 277.518 402.864 277.079 402.323 277.079C401.782 277.079 401.343 277.518 401.343 278.059C401.343 278.6 401.782 279.039 402.323 279.039Z" fill="#343434"/>
<path d="M412.112 281.966C412.112 282.509 411.675 282.946 411.132 282.946C410.589 282.946 410.152 282.509 410.152 281.966C410.152 281.423 410.589 280.987 411.132 280.987C411.675 280.998 412.112 281.435 412.112 281.966Z" fill="#343434"/>
<path d="M410.152 292.732C410.152 293.275 409.715 293.712 409.172 293.712C408.629 293.712 408.192 293.275 408.192 292.732C408.192 292.189 408.629 291.752 409.172 291.752C409.715 291.752 410.152 292.189 410.152 292.732Z" fill="#343434"/>
<path d="M416.021 271.212C416.021 271.755 415.584 272.192 415.041 272.192C414.498 272.192 414.061 271.755 414.061 271.212C414.061 270.669 414.498 270.233 415.041 270.233C415.584 270.233 416.021 270.669 416.021 271.212Z" fill="#343434"/>
<path d="M404.283 251.652C404.283 252.195 403.846 252.632 403.303 252.632C402.76 252.632 402.323 252.195 402.323 251.652C402.323 251.109 402.76 250.672 403.303 250.672C403.846 250.672 404.283 251.109 404.283 251.652Z" fill="#343434"/>
<path d="M417.001 305.446C417.542 305.446 417.981 305.007 417.981 304.466C417.981 303.925 417.542 303.486 417.001 303.486C416.46 303.486 416.021 303.925 416.021 304.466C416.021 305.007 416.46 305.446 417.001 305.446Z" fill="#343434"/>
<path d="M409.172 302.518C409.172 303.061 408.735 303.498 408.192 303.498C407.649 303.498 407.212 303.061 407.212 302.518C407.212 301.975 407.649 301.539 408.192 301.539C408.735 301.539 409.172 301.975 409.172 302.518Z" fill="#343434"/>
<path d="M408.204 266.325C408.204 266.868 407.767 267.305 407.224 267.305C406.68 267.305 406.243 266.868 406.243 266.325C406.243 265.782 406.68 265.345 407.224 265.345C407.755 265.345 408.204 265.782 408.204 266.325Z" fill="#343434"/>
<path opacity="0.31" d="M219.241 407.049C212.604 405.727 206.015 404.05 199.496 402.232C193.368 400.533 186.908 398.478 182.787 393.639C170.388 379.107 190.604 364.103 201.303 357.847C210.042 352.735 220.445 346.727 230.872 348.238C236.788 349.088 242.362 351.508 247.806 353.987C265.956 362.25 284.094 371.54 303.862 374.208C308.007 374.763 342.346 375.672 340.776 381.267C340.504 382.247 339.689 382.979 338.898 383.628C331.683 389.472 322.685 392.588 313.876 395.551C291.628 403.011 268.802 410.236 245.338 409.988C236.54 409.905 227.849 408.772 219.241 407.049Z" fill="#7C7C7D"/>
<path d="M231.451 363.289C228.569 368.554 233.069 372.355 236.824 375.896C237.851 376.864 238.961 377.785 240.248 378.34C242.492 379.296 245.043 379.072 247.475 378.8C264.905 376.864 282.665 374.515 299.8 370.832C303.826 369.97 307.818 368.908 311.833 367.999C317.064 366.818 322.508 364.54 327.503 362.545C332.581 360.527 337.316 357.67 341.473 354.128C341.543 354.069 341.614 353.999 341.685 353.94C342.405 353.503 343.031 352.983 343.527 352.098C345.676 349.643 347.164 346.585 345.924 343.728C344.496 340.435 340.327 339.491 336.749 339.207C326.062 338.357 315.352 339.514 304.783 341.096C297.662 342.17 290.601 343.681 283.445 344.567C276.17 345.464 269.227 344.661 261.988 344.826C249.494 345.133 237.473 352.287 231.451 363.289Z" fill="#343434"/>
<path d="M262.484 337.283C258.056 335.536 253.498 337.177 251.065 332.136C250.179 330.318 249.766 328.312 249.128 326.399C247.121 320.473 242.728 315.409 237.143 312.576C241.5 308.48 247.334 306.426 252.636 303.663C257.501 301.137 262.024 297.926 266.015 294.172C269.699 290.714 275.403 283.3 272.356 277.917C269.9 273.585 263.807 274.943 259.863 275.946C254.371 277.351 249.589 277.611 244.629 280.845C239.859 283.961 235.938 288.164 232.088 292.366C226.078 298.918 212.97 311.726 221.543 320.922C226.397 326.128 231.404 331.109 237.261 335.182C238.914 336.327 240.614 337.425 242.445 338.227C246.082 339.833 247.487 342.796 251.136 344.425C254.171 345.782 257.406 346.774 260.736 346.939C263.204 347.057 267.208 346.491 267.444 343.516C267.656 340.73 264.81 338.204 262.484 337.283Z" fill="white" stroke="#343434" stroke-miterlimit="10"/>
<path d="M324.35 329.256C322.201 332.101 318.599 333.966 315.163 333.163C311.526 332.313 309.117 328.925 307.156 325.738C304.051 320.674 301.146 315.397 299.587 309.66C297.875 303.345 297.072 293.299 303.342 289.108C307.806 286.122 315.092 287.822 318.54 291.634C325.98 299.874 330.904 317.817 325.165 328.04C324.905 328.453 324.633 328.866 324.35 329.256Z" fill="white" stroke="black" stroke-miterlimit="10"/>
<path d="M312.966 278.803C307.452 272.971 300.898 268.674 292.301 268.899C289.987 268.958 287.684 269.335 285.369 269.418C277.245 269.701 269.203 267.683 261.374 270.799C253.025 274.14 245.279 278.909 237.957 284.079C237.367 284.493 251.655 304.088 253.179 305.871C259.095 301.539 257.678 321.949 257.583 324.711C257.347 331.582 257.182 338.534 258.587 345.299C258.93 344.826 259.331 344.307 259.898 344.189C260.595 344.035 261.032 344.874 261.657 345.027C262.98 345.358 264.846 345.015 266.216 345.003C268.837 344.992 271.471 345.003 274.104 344.98C280.162 344.933 286.231 344.909 292.23 344.059C295.371 343.622 298.477 343.174 301.595 343.221C303.236 337.519 302.669 330.649 302.823 324.983C302.988 319.529 302.551 314.193 302.976 308.763C310.711 306.851 318.316 304.395 325.708 301.421C326.157 301.243 322.165 292.177 321.728 291.304C320.028 287.904 317.997 284.658 315.552 281.73C314.726 280.727 313.864 279.747 312.966 278.803Z" fill="#343434"/>
<path d="M269.888 380.571C268.766 381.692 245.137 386.875 245.137 386.875L244.027 374.869L266.003 367.007L269.888 380.571Z" fill="white" stroke="#343434" stroke-miterlimit="10"/>
<path d="M329.664 366.228C332.427 364.646 335.178 363.064 338.154 361.943C341.307 360.763 344.791 360.031 347.223 357.705C349.786 355.238 350.601 351.508 351.286 348.014C352.053 344.13 352.041 339.774 350.967 335.937C349.443 330.484 345.027 325.903 339.465 324.64C336.111 323.885 332.498 324.322 329.416 325.868C327.149 327.013 325.212 328.713 322.968 329.905C321.103 330.897 319.06 331.522 317.088 332.29C311.089 334.627 305.574 338.109 300.118 341.415C294.627 344.732 289.715 348.899 284.413 352.488C282.323 353.904 260.311 364.587 260.311 364.587C263.169 370.938 265.661 377.478 268.27 383.947C282.5 382.023 296.222 377.549 310.061 373.83C312.801 373.098 315.352 371.989 318.103 371.363C321.209 370.655 324.114 369.286 326.889 367.775C327.833 367.279 328.755 366.748 329.664 366.228Z" fill="#343434"/>
<path d="M244.346 388.138C239.988 388.999 235.619 388.067 230.919 387.559C227.259 387.17 223.504 387.843 219.866 387.276C215.001 386.532 211.222 383.085 210.868 378.234C210.667 375.495 210.561 372.449 212.368 370.383C213.844 368.695 216.288 368.129 218.52 368.341C220.752 368.542 222.866 369.404 224.991 370.136C228.617 371.387 232.36 372.284 236.115 373.075C239.15 373.724 241.772 375.235 244.783 373.736C244.948 373.653 245.125 373.571 245.302 373.63C245.48 373.689 245.574 373.901 245.633 374.078C246.708 377.1 247.676 380.146 248.526 383.239C248.975 384.844 249.707 385.777 248.396 386.768C247.357 387.536 245.598 387.89 244.346 388.138Z" fill="#343434"/>
<path d="M291.427 380.571C292.549 381.692 316.178 386.875 316.178 386.875L317.288 374.869L295.312 367.007L291.427 380.571Z" fill="white" stroke="#343434" stroke-miterlimit="10"/>
<path d="M230.849 367.633C226.302 365.921 221.886 363.903 217.705 361.388C216.3 360.538 214.907 359.618 213.903 358.319C212.486 356.489 212.014 354.117 211.577 351.838C209.959 343.351 207.68 336.882 213.832 329.669C218.839 323.802 226.893 321.524 233.706 325.762C238.135 328.512 241.11 333.506 246.023 335.241C248.668 336.173 251.703 335.985 254.253 337.177C256.603 338.263 258.93 340.069 261.185 341.427C266.676 344.744 271.589 348.911 276.891 352.499C278.981 353.916 300.992 364.599 300.992 364.599C298.135 370.95 295.643 377.49 293.033 383.959C278.804 382.035 265.082 377.561 251.242 373.842C244.393 372.001 237.485 370.135 230.849 367.633Z" fill="#343434"/>
<path d="M316.97 388.138C321.327 388.999 325.696 388.067 330.396 387.559C334.057 387.17 337.812 387.843 341.449 387.276C346.054 386.568 351.297 381.999 351.51 377.124C351.569 375.601 351.179 374.09 350.601 372.674C350.294 371.93 349.939 371.198 349.444 370.572C348.322 369.156 346.55 368.329 344.744 368.164C341.98 367.904 339.217 368.802 336.607 369.569C333.915 370.36 331.435 370.785 328.825 371.906C325.484 373.346 321.74 373.866 318.127 373.382C317.182 373.252 316.214 373.063 315.304 373.335C313.262 373.937 313.462 377.006 313.309 378.694C313.073 381.232 312.955 383.841 311.927 386.214C313.616 387.205 315.293 387.795 316.97 388.138Z" fill="#343434"/>
<path d="M306.436 289.415C306.436 289.38 306.436 289.344 306.436 289.309C306.377 288.317 306.318 287.314 306.259 286.322C306.224 285.803 306.2 285.284 306.283 284.776C306.531 283.218 307.771 282.037 308.928 280.975C309.802 280.172 317.229 272.924 317.796 273.349C320.111 275.108 321.539 273.538 323.228 271.732C323.748 271.177 324.267 270.528 324.255 269.772C324.232 269.017 323.323 268.308 322.72 268.757C324.067 267.27 325.377 265.747 326.641 264.2C327.763 262.831 328.873 261.993 328.105 260.187C326.877 257.271 324.315 255.075 321.48 253.694C319.237 252.596 315.635 251.062 313.084 251.251C310.262 251.463 308.81 253.836 306.696 255.288C306.601 255.347 306.495 255.418 306.389 255.406C306.259 255.394 306.153 255.288 306.046 255.193C305.267 254.485 303.98 254.615 303.13 255.252C302.279 255.878 301.795 256.881 301.406 257.861C301.158 258.487 300.945 259.172 301.063 259.833C301.193 260.494 301.783 261.119 302.457 261.049C301.925 261.131 301.051 265.145 300.91 265.664C300.189 268.214 298.619 269.654 296.836 271.626C295.23 273.408 293.281 275.32 290.884 275.226C289.821 275.179 288.499 274.825 287.885 275.698C287.672 275.993 287.625 276.359 287.589 276.725C287.164 281.978 290.542 286.641 294.781 289.403C297.001 290.832 306.649 294.786 306.436 289.415Z" fill="white" stroke="#343434" stroke-miterlimit="10"/>
<path d="M304.96 351.354H244.488C243.401 351.354 242.527 350.481 242.527 349.395V312.93C242.527 311.844 243.401 310.97 244.488 310.97H304.96C306.046 310.97 306.92 311.844 306.92 312.93V349.395C306.92 350.481 306.046 351.354 304.96 351.354Z" fill="#E30613"/>
<path d="M278.509 329.905C278.509 331.995 276.808 333.695 274.718 333.695C272.628 333.695 270.927 331.995 270.927 329.905C270.927 327.816 272.628 326.116 274.718 326.116C276.82 326.116 278.509 327.804 278.509 329.905Z" fill="#343434"/>
<path d="M333.868 253.057C333.809 252.667 333.702 252.266 333.561 251.9C333.171 250.908 332.498 250.023 331.553 249.539C330.821 249.161 329.995 249.031 329.18 248.972C328.223 248.89 327.267 248.878 326.31 248.937C325.389 248.984 324.468 249.102 323.547 249.043C322.106 248.949 320.737 248.441 319.402 247.922C318.056 247.414 316.686 246.883 315.257 246.777C312.281 246.541 310.168 248.819 308.373 250.908C306.365 253.257 304.83 255.973 303.378 258.688C300.544 263.941 299.682 270.445 305.019 274.529C312.01 279.877 320.335 272.582 325.566 268.12C326.641 267.211 327.845 266.597 328.802 265.522C329.865 264.342 330.679 262.961 331.423 261.568C332.156 260.21 332.829 258.817 333.325 257.354C333.785 255.973 334.092 254.509 333.868 253.057ZM310.073 270.752C308.999 270.504 307.818 270.162 306.932 269.477C306.294 268.993 307.027 267.954 307.641 268.462C308.385 269.076 309.483 269.312 310.392 269.56C311.077 269.749 310.758 270.905 310.073 270.752ZM326.747 261.533C326.546 262.288 326.098 262.961 325.602 263.61C323.393 266.526 320.193 270.209 316.981 272.027C316.863 272.098 316.733 272.157 316.615 272.216C315.741 269.217 314.655 266.254 311.904 264.484C309.495 262.937 306.637 262.689 303.862 263.055C304.854 258.9 308.03 252.526 312.884 252.467C314.69 252.443 316.391 253.281 317.867 254.308C319.343 255.347 320.666 256.586 322.177 257.566C323.889 258.688 327.444 258.888 326.747 261.533Z" fill="#343434"/>
<path d="M316.379 275.427C316.521 275.061 316.686 274.707 316.851 274.352C318.162 271.625 321.067 270.492 323.323 268.544C324.716 267.352 326.145 266.408 327.597 265.298C328.294 264.767 328.873 263.964 329.593 263.516C330.065 263.232 330.715 263.173 331.128 263.551C331.447 263.834 331.541 264.307 331.565 264.732C331.754 267.541 330.183 269.725 328.814 271.991C327.609 273.975 325.732 275.214 324.48 277.138C323.252 279.027 323.452 281.471 323.7 283.713C324.114 287.479 324.527 291.245 324.94 295.011C325.33 298.54 326.216 301.491 327.054 304.915C328.353 310.156 328.27 316.259 328.365 321.63C328.471 327.025 324.893 333.494 319.296 334.627C308.03 336.905 310.475 320.993 310.179 314.594C309.943 309.507 311.16 304.313 312.305 299.414C313.51 294.29 313.639 288.99 314.383 283.796C314.785 280.987 315.304 278.071 316.379 275.427Z" fill="white" stroke="#343434" stroke-miterlimit="10"/>
<path d="M316.332 328.925C316.344 329.398 316.332 329.846 316.261 330.248C316.096 331.239 315.387 332.207 314.395 332.361C313.332 332.526 312.376 331.747 311.656 330.956C308.786 327.792 307.298 323.696 307.345 319.446C307.357 318.242 307.487 316.967 308.184 315.987C308.881 314.996 310.309 314.441 311.337 315.079C312.033 315.504 312.364 316.33 312.648 317.097C313.604 319.671 314.561 322.256 315.517 324.829C315.93 325.939 316.285 327.532 316.332 328.925Z" fill="white"/>
<path d="M320.323 329.905C319.78 330.259 319.19 330.507 318.54 330.436C318.056 330.377 317.997 331.121 318.434 331.251C319.402 331.534 320.311 331.31 320.925 330.495C321.197 330.153 320.677 329.681 320.323 329.905Z" fill="#343434"/>
<path d="M223.137 315.386C222.653 314.925 222.346 314.288 222.441 313.603C222.512 313.107 222.311 312.611 221.791 312.458C221.354 312.328 220.717 312.611 220.646 313.107C220.445 314.453 220.811 315.751 221.815 316.696C222.689 317.522 224.011 316.2 223.137 315.386Z" fill="#343434"/>
<path d="M258.634 376.793C264.515 378.234 270.455 379.426 276.43 380.37" stroke="white" stroke-miterlimit="10"/>
<path d="M298.205 371.186C299.008 369.321 299.847 367.468 300.733 365.638C293.069 361.341 285.606 356.761 278.024 352.346" stroke="white" stroke-miterlimit="10"/>
<path d="M248.833 372.862C243.26 371.528 237.78 369.781 232.466 367.645" stroke="white" stroke-miterlimit="10"/>
</svg>
