<svg width="190" height="43" viewBox="0 0 190 43" fill="none" xmlns="http://www.w3.org/2000/svg">
<path d="M61.6622 30.0359H57.3195V15.4478H52.0071V12.0668H67.0167V15.4478H61.6622V30.0359Z" fill="url(#paint0_linear)"/>
<path d="M70.7476 30.4956C69.6253 30.4956 67.5378 30.2895 66.1688 28.8983C65.0562 27.7632 64.4925 26.104 64.4925 23.9669C64.4925 21.2171 65.4019 19.2045 67.1951 17.9881C68.2588 17.295 69.5203 16.9285 70.8458 16.9285C72.2372 16.9285 74.7669 17.3292 76.1118 20.0139C76.8134 21.5259 76.9466 23.1971 76.8674 24.834H68.4941C68.5265 26.0969 68.7803 27.583 70.7957 27.6242C71.8948 27.651 72.5159 27.1146 72.7811 25.9308H76.5756L76.5537 26.1889C76.5115 26.6874 76.4116 27.8543 75.2998 28.9948C74.3765 29.9501 72.7157 30.4973 70.7463 30.4973L70.7476 30.4956ZM72.6516 22.1089C72.6044 21.0278 72.211 19.851 70.7231 19.851C69.1155 19.851 68.7259 21.2756 68.6361 22.1089H72.652H72.6516Z" fill="url(#paint1_linear)"/>
<path d="M83.0167 30.3266C80.1636 30.4235 78.6024 28.6818 78.5686 26.4351C78.5686 25.4067 78.9308 23.517 81.3572 22.4202C82.7768 21.9514 83.2684 21.836 86.1636 21.7222L86.2024 24.2835C82.0491 24.1945 82.1781 26.412 83.225 27.2548C84.1808 28.0242 86.3466 27.529 86.1957 24.2769L86.1114 21.7205C86.1059 21.0905 86.0734 20.7722 85.9516 20.4126C85.6598 19.6003 84.7327 19.5591 84.5497 19.5591C84.0594 19.5591 83.6167 19.7735 83.365 20.1331C83.1356 20.4802 83.1356 20.8167 83.1356 21.0876V21.3255H79.0518L79.0611 21.0781C79.0843 20.4621 79.1391 19.0194 80.573 18.0141C81.5533 17.3264 82.8746 16.9775 84.5004 16.9775C85.6876 16.9775 87.8687 17.1924 89.1381 18.633C90.0632 19.7236 90.0632 21.2781 90.0632 21.789L90.0885 26.7039C90.0885 27.8584 90.1838 28.8571 90.3798 29.7522L90.443 30.0408L86.6649 30.0553C86.581 29.9316 86.5052 28.815 86.5052 28.815L86.4773 28.8154C86.4267 29.069 85.0375 30.2647 83.4843 30.3286" fill="url(#paint2_linear)"/>
<path d="M108.82 30.0338V22.6078C108.82 21.0954 108.503 20.0877 106.96 20.0877C105.1 20.0877 104.953 21.6414 104.953 23.6725V30.0305H100.779V22.5345C100.779 21.3503 100.639 20.0869 98.9686 20.0869C96.9111 20.0869 96.9111 21.789 96.9111 22.607V30.033H92.7371V19.8733C92.7371 19.1938 92.6983 18.4714 92.6144 17.5969L92.5895 17.3367H96.6202L96.7138 18.5242C97.2872 17.8987 98.369 17.0703 100.378 17.0703C101.696 17.0703 103.402 17.4344 104.331 19.0952C105.2 17.7486 106.507 17.0951 108.32 17.0951C110.894 17.0951 111.991 18.5518 112.344 19.1781C113 20.2234 112.995 21.6521 112.992 22.692V30.0314H108.818L108.82 30.0338Z" fill="url(#paint3_linear)"/>
<path d="M122.08 27.5743L127.603 12.0914H129.753L123.091 30.0359H120.941L114.237 12.0914H116.514L122.08 27.5743Z" fill="url(#paint4_linear)"/>
<path d="M131.292 30.0339V17.4126H133.263V30.0339H131.292ZM131.168 14.3779V12.0874H133.387V14.3783H131.168V14.3779Z" fill="url(#paint5_linear)"/>
<path d="M141.537 30.4008C137.609 30.4008 135.849 27.0486 135.849 23.7252C135.849 20.5091 137.66 17.0497 141.634 17.0497C145.497 17.0835 147.545 19.6045 147.545 24.2984H137.953C138.03 25.7605 138.617 28.5866 142.006 28.5866C143.622 28.5866 144.999 27.4696 145.356 25.8706L145.398 25.683H147.467C146.469 29.9299 143.764 30.3381 141.535 30.3917L141.537 30.4008ZM145.427 22.4965C145.171 20.1809 143.809 18.8594 141.661 18.8594C139.338 18.8594 138.266 20.7627 138.024 22.4965H145.427Z" fill="url(#paint6_linear)"/>
<path d="M157.495 17.4146H159.561L163.103 27.1372L166.518 17.4146H168.71L163.904 30.0359H162.133L158.465 19.9586L154.713 30.0359H152.9L148.135 17.4146H150.286L153.869 27.2444L157.495 17.4146Z" fill="url(#paint7_linear)"/>
<path d="M174.887 30.4008C170.959 30.4008 169.2 27.0486 169.2 23.7252C169.2 20.5091 171.01 17.0497 174.984 17.0497C179.055 17.0542 180.937 19.9689 180.895 24.2984H171.303C171.38 25.7605 171.967 28.5866 175.356 28.5866C176.983 28.5478 178.286 27.6881 178.748 25.683H180.817C179.804 29.8433 177.084 30.3546 174.885 30.3917L174.887 30.4008ZM178.777 22.4965C178.521 20.1809 177.159 18.8594 175.011 18.8594C172.688 18.8594 171.616 20.7627 171.374 22.4965H178.777Z" fill="url(#paint8_linear)"/>
<path d="M183.699 30.0338V20.3854C183.716 19.4218 183.628 18.548 183.576 17.6652L183.561 17.4133H185.586L185.635 18.5893C186.235 17.6822 187.214 17.0917 188.262 17.0505C188.409 17.043 188.557 17.0402 188.707 17.0402C189.061 17.0402 189.418 17.0575 189.764 17.0744L189.995 17.0855L190 17.3123V18.9744C186.547 18.3975 185.775 20.6018 185.733 22.174L185.649 30.033" fill="url(#paint9_linear)"/>
<path d="M38.6624 0H4.46076C1.97955 0.0313368 -0.0117531 1.98782 5.22196e-05 4.38302V37.8392C-0.0117531 40.2438 1.99472 42.2044 4.48606 42.2222H38.6877C41.179 42.2044 43.1855 40.2438 43.1737 37.8392V4.38302C43.1855 1.9738 41.1714 0.0115451 38.6754 0C38.6712 0 38.6666 0 38.6624 0ZM21.57 38.569C11.6536 38.4952 3.6736 30.682 3.7398 21.1111C3.6736 11.5402 11.6536 3.72701 21.57 3.65321C31.4915 3.72042 39.479 11.5356 39.4128 21.1111C39.479 30.6865 31.4915 38.5018 21.57 38.569Z" fill="url(#paint10_linear)"/>
<path d="M38.1229 21.111L25.7484 15.5157L26.7426 19.1009H16.4045L17.3987 15.5157L5.02423 21.1151L17.4071 26.7104L16.413 23.1252H26.751L25.7568 26.7104L38.1229 21.1151" fill="url(#paint11_linear)"/>
<defs>
<linearGradient id="paint0_linear" x1="59.5117" y1="30.0359" x2="59.5117" y2="12.0668" gradientUnits="userSpaceOnUse">
<stop stop-color="#096FD2"/>
<stop offset="1" stop-color="#0E8EE9"/>
</linearGradient>
<linearGradient id="paint1_linear" x1="70.6457" y1="30.4966" x2="70.7345" y2="16.9276" gradientUnits="userSpaceOnUse">
<stop stop-color="#096FD2"/>
<stop offset="1" stop-color="#0E8EE9"/>
</linearGradient>
<linearGradient id="paint2_linear" x1="84.506" y1="30.3138" x2="84.506" y2="16.9609" gradientUnits="userSpaceOnUse">
<stop stop-color="#096FD2"/>
<stop offset="1" stop-color="#0E8EE9"/>
</linearGradient>
<linearGradient id="paint3_linear" x1="102.791" y1="30.0338" x2="102.791" y2="17.0703" gradientUnits="userSpaceOnUse">
<stop stop-color="#096FD2"/>
<stop offset="1" stop-color="#0E8EE9"/>
</linearGradient>
<linearGradient id="paint4_linear" x1="121.995" y1="30.0359" x2="121.995" y2="12.0914" gradientUnits="userSpaceOnUse">
<stop stop-color="#096FD2"/>
<stop offset="1" stop-color="#0E8EE9"/>
</linearGradient>
<linearGradient id="paint5_linear" x1="132.277" y1="30.0339" x2="132.277" y2="12.0874" gradientUnits="userSpaceOnUse">
<stop stop-color="#096FD2"/>
<stop offset="1" stop-color="#0E8EE9"/>
</linearGradient>
<linearGradient id="paint6_linear" x1="141.697" y1="30.4008" x2="141.697" y2="17.0497" gradientUnits="userSpaceOnUse">
<stop stop-color="#096FD2"/>
<stop offset="1" stop-color="#0E8EE9"/>
</linearGradient>
<linearGradient id="paint7_linear" x1="158.423" y1="30.0359" x2="158.423" y2="17.4146" gradientUnits="userSpaceOnUse">
<stop stop-color="#096FD2"/>
<stop offset="1" stop-color="#0E8EE9"/>
</linearGradient>
<linearGradient id="paint8_linear" x1="175.048" y1="30.4008" x2="175.048" y2="17.0497" gradientUnits="userSpaceOnUse">
<stop stop-color="#096FD2"/>
<stop offset="1" stop-color="#0E8EE9"/>
</linearGradient>
<linearGradient id="paint9_linear" x1="186.78" y1="30.0338" x2="186.78" y2="17.0402" gradientUnits="userSpaceOnUse">
<stop stop-color="#096FD2"/>
<stop offset="1" stop-color="#0E8EE9"/>
</linearGradient>
<linearGradient id="paint10_linear" x1="21.5869" y1="42.3417" x2="21.5869" y2="-0.0133676" gradientUnits="userSpaceOnUse">
<stop stop-color="#096FD2"/>
<stop offset="1" stop-color="#0E8EE9"/>
</linearGradient>
<linearGradient id="paint11_linear" x1="21.5755" y1="26.7118" x2="21.5719" y2="15.5144" gradientUnits="userSpaceOnUse">
<stop stop-color="#096FD2"/>
<stop offset="1" stop-color="#0E8EE9"/>
</linearGradient>
</defs>
</svg>
